G04 EAGLE Gerber RS-274X export*
G75*
%MOMM*%
%FSLAX34Y34*%
%LPD*%
%INSoldermask Bottom*%
%IPPOS*%
%AMOC8*
5,1,8,0,0,1.08239X$1,22.5*%
G01*
%ADD10R,2.235200X0.863600*%
%ADD11C,1.511200*%
%ADD12C,1.993900*%
%ADD13C,1.625600*%
%ADD14R,2.003200X0.903200*%
%ADD15C,0.959600*%


D10*
X576834Y577850D03*
X515366Y577850D03*
X576834Y565150D03*
X576834Y552450D03*
X515366Y565150D03*
X515366Y552450D03*
X576834Y539750D03*
X515366Y539750D03*
X576834Y527050D03*
X515366Y527050D03*
X576834Y514350D03*
X576834Y501650D03*
X515366Y514350D03*
X515366Y501650D03*
X576834Y488950D03*
X515366Y488950D03*
X805434Y584200D03*
X743966Y584200D03*
X805434Y571500D03*
X805434Y558800D03*
X743966Y571500D03*
X743966Y558800D03*
X805434Y546100D03*
X743966Y546100D03*
X805434Y533400D03*
X805434Y520700D03*
X743966Y533400D03*
X743966Y520700D03*
X805434Y508000D03*
X743966Y508000D03*
X576834Y444500D03*
X515366Y444500D03*
X576834Y431800D03*
X576834Y419100D03*
X515366Y431800D03*
X515366Y419100D03*
X576834Y406400D03*
X515366Y406400D03*
X576834Y393700D03*
X576834Y381000D03*
X515366Y393700D03*
X515366Y381000D03*
X576834Y368300D03*
X515366Y368300D03*
X576834Y698500D03*
X515366Y698500D03*
X576834Y685800D03*
X576834Y673100D03*
X515366Y685800D03*
X515366Y673100D03*
X576834Y660400D03*
X515366Y660400D03*
X576834Y647700D03*
X576834Y635000D03*
X515366Y647700D03*
X515366Y635000D03*
X576834Y622300D03*
X515366Y622300D03*
D11*
X393700Y787400D03*
X419100Y787400D03*
X444500Y787400D03*
X469900Y787400D03*
X495300Y787400D03*
X520700Y787400D03*
X546100Y787400D03*
X571500Y787400D03*
X609600Y787400D03*
X635000Y787400D03*
X660400Y787400D03*
X685800Y787400D03*
X711200Y787400D03*
X736600Y787400D03*
X762000Y787400D03*
X787400Y787400D03*
X838200Y787400D03*
X863600Y787400D03*
X889000Y787400D03*
X914400Y787400D03*
X939800Y787400D03*
X965200Y787400D03*
X990600Y787400D03*
X1016000Y787400D03*
X1092200Y787400D03*
X1092200Y762000D03*
X1092200Y736600D03*
X1092200Y711200D03*
X1092200Y685800D03*
X1092200Y660400D03*
X1092200Y635000D03*
X1092200Y609600D03*
X1092200Y584200D03*
X1092200Y558800D03*
X1092200Y533400D03*
X1092200Y508000D03*
X1092200Y482600D03*
X1092200Y457200D03*
X1092200Y431800D03*
X1092200Y406400D03*
X1092200Y381000D03*
X1092200Y355600D03*
X1117600Y355600D03*
X1117600Y381000D03*
X1117600Y406400D03*
X1117600Y431800D03*
X1117600Y457200D03*
X1117600Y482600D03*
X1117600Y508000D03*
X1117600Y533400D03*
X1117600Y558800D03*
X1117600Y584200D03*
X1117600Y609600D03*
X1117600Y635000D03*
X1117600Y660400D03*
X1117600Y685800D03*
X1117600Y711200D03*
X1117600Y736600D03*
X1117600Y762000D03*
X1117600Y787400D03*
X1066800Y304800D03*
X1041400Y304800D03*
X1016000Y304800D03*
X990600Y304800D03*
X965200Y304800D03*
X939800Y304800D03*
X914400Y304800D03*
X889000Y304800D03*
X838200Y304800D03*
X812800Y304800D03*
X787400Y304800D03*
X762000Y304800D03*
X736600Y304800D03*
X711200Y304800D03*
X685800Y304800D03*
X660400Y304800D03*
X609600Y304800D03*
X584200Y304800D03*
X558800Y304800D03*
X533400Y304800D03*
X508000Y304800D03*
X482600Y304800D03*
D12*
X393700Y243904D02*
X393700Y225997D01*
X444500Y225997D02*
X444500Y243904D01*
X508000Y854647D02*
X508000Y872554D01*
X457200Y872554D02*
X457200Y854647D01*
X774700Y854647D02*
X774700Y872554D01*
X723900Y872554D02*
X723900Y854647D01*
X673100Y854647D02*
X673100Y872554D01*
X622300Y872554D02*
X622300Y854647D01*
X571500Y854647D02*
X571500Y872554D01*
D13*
X615188Y469900D02*
X629412Y469900D01*
X629412Y444500D02*
X615188Y444500D01*
X665988Y469900D02*
X680212Y469900D01*
X680212Y444500D02*
X665988Y444500D01*
X716788Y469900D02*
X731012Y469900D01*
X731012Y444500D02*
X716788Y444500D01*
X767588Y469900D02*
X781812Y469900D01*
X781812Y444500D02*
X767588Y444500D01*
X818388Y469900D02*
X832612Y469900D01*
X832612Y444500D02*
X818388Y444500D01*
X869188Y469900D02*
X883412Y469900D01*
X883412Y444500D02*
X869188Y444500D01*
D10*
X691134Y698500D03*
X629666Y698500D03*
X691134Y685800D03*
X691134Y673100D03*
X629666Y685800D03*
X629666Y673100D03*
X691134Y660400D03*
X629666Y660400D03*
X691134Y647700D03*
X691134Y635000D03*
X629666Y647700D03*
X629666Y635000D03*
X691134Y622300D03*
X629666Y622300D03*
X691134Y584200D03*
X629666Y584200D03*
X691134Y571500D03*
X691134Y558800D03*
X629666Y571500D03*
X629666Y558800D03*
X691134Y546100D03*
X629666Y546100D03*
X691134Y533400D03*
X691134Y520700D03*
X629666Y533400D03*
X629666Y520700D03*
X691134Y508000D03*
X629666Y508000D03*
D12*
X508000Y243904D02*
X508000Y225997D01*
X558800Y225997D02*
X558800Y243904D01*
X609600Y243904D02*
X609600Y225997D01*
X660400Y225997D02*
X660400Y243904D01*
X711200Y243904D02*
X711200Y225997D01*
X762000Y225997D02*
X762000Y243904D01*
X812800Y243904D02*
X812800Y225997D01*
X876300Y225997D02*
X876300Y243904D01*
X927100Y243904D02*
X927100Y225997D01*
X977900Y225997D02*
X977900Y243904D01*
X1028700Y243904D02*
X1028700Y225997D01*
X1079500Y225997D02*
X1079500Y243904D01*
X1130300Y243904D02*
X1130300Y225997D01*
X1181100Y225997D02*
X1181100Y243904D01*
X1143000Y854647D02*
X1143000Y872554D01*
X1092200Y872554D02*
X1092200Y854647D01*
X1041400Y854647D02*
X1041400Y872554D01*
X990600Y872554D02*
X990600Y854647D01*
X939800Y854647D02*
X939800Y872554D01*
X889000Y872554D02*
X889000Y854647D01*
X838200Y854647D02*
X838200Y872554D01*
D13*
X557022Y749300D02*
X542798Y749300D01*
X542798Y723900D02*
X557022Y723900D01*
X406400Y748538D02*
X406400Y762762D01*
X431800Y762762D02*
X431800Y748538D01*
D10*
X449834Y723900D03*
X388366Y723900D03*
X449834Y711200D03*
X449834Y698500D03*
X388366Y711200D03*
X388366Y698500D03*
X449834Y685800D03*
X388366Y685800D03*
X449834Y673100D03*
X449834Y660400D03*
X388366Y673100D03*
X388366Y660400D03*
X449834Y647700D03*
X388366Y647700D03*
D14*
X911800Y679450D03*
X911800Y666750D03*
X911800Y654050D03*
X911800Y641350D03*
X840800Y641350D03*
X840800Y654050D03*
X840800Y666750D03*
X840800Y679450D03*
D12*
X1188657Y577850D02*
X1206564Y577850D01*
X1206564Y628650D02*
X1188657Y628650D01*
X1188657Y679450D02*
X1206564Y679450D01*
X1206564Y730250D02*
X1188657Y730250D01*
X1188657Y781050D02*
X1206564Y781050D01*
X1206564Y317500D02*
X1188657Y317500D01*
X1188657Y368300D02*
X1206564Y368300D01*
X1206564Y419100D02*
X1188657Y419100D01*
X1188657Y469900D02*
X1206564Y469900D01*
X1206564Y520700D02*
X1188657Y520700D01*
D15*
X608330Y590550D03*
X589280Y609600D03*
X711200Y622300D03*
X762000Y609600D03*
X575310Y478790D03*
X648970Y317500D03*
X622300Y317500D03*
X698500Y321310D03*
X970280Y693420D03*
X970280Y679450D03*
X520700Y609600D03*
X610870Y562610D03*
X751840Y328930D03*
X751840Y293370D03*
X1117600Y304800D03*
X381000Y355600D03*
X386080Y375920D03*
X419100Y688340D03*
X419100Y723900D03*
X586740Y358140D03*
X825500Y368300D03*
X927100Y635000D03*
X897890Y694690D03*
X711200Y595630D03*
X494030Y685800D03*
X509270Y588010D03*
X515620Y457200D03*
X600710Y453390D03*
X533400Y317500D03*
X600710Y579120D03*
X492760Y601980D03*
X444500Y603250D03*
X774700Y533400D03*
X774700Y495300D03*
X647700Y495300D03*
X647700Y535940D03*
X647700Y478790D03*
X837084Y688494D03*
X723900Y546100D03*
X533400Y609600D03*
X490220Y635000D03*
X560070Y514350D03*
X474980Y570230D03*
X481330Y529590D03*
X490220Y549910D03*
X496288Y469900D03*
X474980Y364490D03*
X496288Y622300D03*
X546100Y431800D03*
X622300Y495300D03*
X595912Y514350D03*
X532412Y495300D03*
X546100Y495300D03*
X560070Y501650D03*
X1016000Y342900D03*
X647700Y673100D03*
X558800Y444500D03*
X613475Y663005D03*
X952500Y419100D03*
X1041400Y419100D03*
X1016000Y444500D03*
X673100Y508000D03*
X726132Y561032D03*
X1079500Y596900D03*
X1054100Y647700D03*
X927100Y685800D03*
X895350Y675640D03*
X812800Y709930D03*
X674370Y552450D03*
X675486Y645314D03*
X869950Y709930D03*
X848360Y695960D03*
X598498Y657140D03*
X660400Y698500D03*
X787400Y596900D03*
X788670Y535940D03*
X723900Y520700D03*
X664210Y642620D03*
X779780Y551180D03*
X716280Y577850D03*
X952500Y622300D03*
X1016000Y393700D03*
X985520Y372110D03*
X961390Y433070D03*
X959132Y469900D03*
X1054100Y622300D03*
X1003300Y571500D03*
X509270Y480060D03*
X485789Y570879D03*
X562610Y603250D03*
X592300Y619760D03*
X420370Y607060D03*
X800100Y457200D03*
X850900Y457200D03*
X548076Y705132D03*
X495300Y704568D03*
X1143000Y673100D03*
X1153160Y695960D03*
X1163320Y744220D03*
M02*
