M48
;GenerationSoftware,Autodesk,EAGLE,9.5.0*%
;CreationDate,2020-03-12T23:09:47Z*%
FMAT,2
ICI,OFF
METRIC,TZ,000.000
T4C0.350
T3C0.800
T2C0.914
T1C1.194
%
G90
M71
T1
X45720Y85725
X50800Y85725
X44450Y23495
X39370Y23495
X62230Y85725
X99060Y85725
X67310Y85725
X83820Y85725
X88900Y85725
X93980Y85725
X72390Y85725
X104140Y85725
X109220Y85725
X114300Y85725
X118110Y23495
X113030Y23495
X107950Y23495
X102870Y23495
X97790Y23495
X92710Y23495
X87630Y23495
X81280Y23495
X76200Y23495
X71120Y23495
X66040Y23495
X60960Y23495
X55880Y23495
X50800Y23495
X77470Y85725
X57150Y85725
T2
X40640Y75565
X54991Y74930
X54991Y72390
X77470Y46990
X72390Y44450
X43180Y75565
X67310Y44450
X67310Y46990
X62230Y44450
X82550Y46990
X72390Y46990
X87630Y44450
X87630Y46990
X82550Y44450
X77470Y44450
X62230Y46990
T3
X109220Y58420
X109220Y55880
X109220Y53340
X109220Y50800
X109220Y48260
X109220Y45720
X109220Y43180
X109220Y40640
X109220Y38100
X109220Y35560
X111760Y35560
X111760Y38100
X111760Y43180
X111760Y45720
X111760Y48260
X111760Y50800
X111760Y53340
X111760Y55880
X111760Y58420
X111760Y60960
X111760Y63500
X111760Y66040
X111760Y68580
X111760Y71120
X111760Y73660
X111760Y76200
X111760Y78740
X106680Y30480
X104140Y30480
X101600Y30480
X99060Y30480
X96520Y30480
X93980Y30480
X91440Y30480
X88900Y30480
X83820Y30480
X81280Y30480
X78740Y30480
X73660Y30480
X71120Y30480
X68580Y30480
X66040Y30480
X60960Y30480
X58420Y30480
X55880Y30480
X53340Y30480
X50800Y30480
X48260Y30480
X76200Y30480
X83820Y78740
X39370Y78740
X41910Y78740
X44450Y78740
X46990Y78740
X49530Y78740
X52070Y78740
X54610Y78740
X57150Y78740
X60960Y78740
X63500Y78740
X66040Y78740
X68580Y78740
X71120Y78740
X73660Y78740
X76200Y78740
X78740Y78740
X111760Y40640
X86360Y78740
X88900Y78740
X91440Y78740
X93980Y78740
X96520Y78740
X99060Y78740
X101600Y78740
X109220Y78740
X109220Y76200
X109220Y73660
X109220Y71120
X109220Y68580
X109220Y66040
X109220Y63500
X109220Y60960
T4
X60833Y59055
X58928Y60960
X71120Y62230
X76200Y60960
X57531Y47879
X64897Y31750
X62230Y31750
X69850Y32131
X97028Y69342
X97028Y67945
X52070Y60960
X61087Y56261
X75184Y32893
X75184Y29337
X111760Y30480
X38100Y35560
X38608Y37592
X41910Y68834
X41910Y72390
X58674Y35814
X82550Y36830
X92710Y63500
X89789Y69469
X71120Y59563
X49403Y68580
X50927Y58801
X51562Y45720
X60071Y45339
X60071Y57912
X49276Y60198
X44450Y60325
X77470Y53340
X77470Y49530
X64770Y49530
X64770Y53594
X64770Y47879
X83708Y68849
X72390Y54610
X53340Y60960
X49022Y63500
X56007Y51435
X47498Y57023
X48133Y52959
X49022Y54991
X49629Y46990
X47498Y36449
X49629Y62230
X54610Y43180
X62230Y49530
X49530Y70457
X54808Y70513
X85090Y45720
X80010Y45720
X42037Y60706
X59230Y61976
X56261Y60325
X48579Y57088
X50927Y48006
X100330Y57150
X105410Y62230
X96139Y43307
X98552Y37211
X101600Y39370
X95250Y62230
X71628Y57785
X77978Y55118
X66421Y64262
X53340Y31750
X72390Y52070
X78867Y53594
X78740Y59690
X66040Y69850
X59850Y65714
X84836Y69596
X86995Y70993
X67549Y64531
X67437Y55245
X81280Y70993
X89535Y67564
X92710Y68580
X105410Y64770
X107950Y59690
X72613Y56103
X67310Y50800
X101600Y44450
X104140Y41910
X95250Y41910
X61348Y66301
X55880Y44450
X64770Y67310
X101600Y34290
X56007Y50165
X54610Y49530
X53241Y49530
X59591Y51435
X95913Y46990
M30