G04 EAGLE Gerber RS-274X export*
G75*
%MOMM*%
%FSLAX34Y34*%
%LPD*%
%INSilkscreen Bottom*%
%IPPOS*%
%AMOC8*
5,1,8,0,0,1.08239X$1,22.5*%
G01*
%ADD10C,0.152400*%
%ADD11C,0.050800*%
%ADD12C,0.127000*%
%ADD13C,0.200000*%
%ADD14C,0.101600*%


D10*
X561848Y482600D02*
X561970Y482602D01*
X562092Y482608D01*
X562214Y482618D01*
X562335Y482631D01*
X562456Y482649D01*
X562576Y482670D01*
X562696Y482696D01*
X562814Y482725D01*
X562932Y482757D01*
X563049Y482794D01*
X563164Y482834D01*
X563278Y482878D01*
X563390Y482926D01*
X563501Y482977D01*
X563610Y483032D01*
X563718Y483090D01*
X563823Y483152D01*
X563926Y483217D01*
X564028Y483285D01*
X564127Y483357D01*
X564223Y483431D01*
X564318Y483509D01*
X564409Y483590D01*
X564499Y483673D01*
X564585Y483759D01*
X564668Y483849D01*
X564749Y483940D01*
X564827Y484035D01*
X564901Y484131D01*
X564973Y484230D01*
X565041Y484332D01*
X565106Y484435D01*
X565168Y484540D01*
X565226Y484648D01*
X565281Y484757D01*
X565332Y484868D01*
X565380Y484980D01*
X565424Y485094D01*
X565464Y485209D01*
X565501Y485326D01*
X565533Y485444D01*
X565562Y485562D01*
X565588Y485682D01*
X565609Y485802D01*
X565627Y485923D01*
X565640Y486044D01*
X565650Y486166D01*
X565656Y486288D01*
X565658Y486410D01*
X526542Y580390D02*
X526544Y580512D01*
X526550Y580634D01*
X526560Y580756D01*
X526573Y580877D01*
X526591Y580998D01*
X526612Y581118D01*
X526638Y581238D01*
X526667Y581356D01*
X526699Y581474D01*
X526736Y581591D01*
X526776Y581706D01*
X526820Y581820D01*
X526868Y581932D01*
X526919Y582043D01*
X526974Y582152D01*
X527032Y582260D01*
X527094Y582365D01*
X527159Y582468D01*
X527227Y582570D01*
X527299Y582669D01*
X527373Y582765D01*
X527451Y582860D01*
X527532Y582951D01*
X527615Y583041D01*
X527701Y583127D01*
X527791Y583210D01*
X527882Y583291D01*
X527977Y583369D01*
X528073Y583443D01*
X528172Y583515D01*
X528274Y583583D01*
X528377Y583648D01*
X528482Y583710D01*
X528590Y583768D01*
X528699Y583823D01*
X528810Y583874D01*
X528922Y583922D01*
X529036Y583966D01*
X529151Y584006D01*
X529268Y584043D01*
X529386Y584075D01*
X529504Y584104D01*
X529624Y584130D01*
X529744Y584151D01*
X529865Y584169D01*
X529986Y584182D01*
X530108Y584192D01*
X530230Y584198D01*
X530352Y584200D01*
X526542Y486410D02*
X526544Y486288D01*
X526550Y486166D01*
X526560Y486044D01*
X526573Y485923D01*
X526591Y485802D01*
X526612Y485682D01*
X526638Y485562D01*
X526667Y485444D01*
X526699Y485326D01*
X526736Y485209D01*
X526776Y485094D01*
X526820Y484980D01*
X526868Y484868D01*
X526919Y484757D01*
X526974Y484648D01*
X527032Y484540D01*
X527094Y484435D01*
X527159Y484332D01*
X527227Y484230D01*
X527299Y484131D01*
X527373Y484035D01*
X527451Y483940D01*
X527532Y483849D01*
X527615Y483759D01*
X527701Y483673D01*
X527791Y483590D01*
X527882Y483509D01*
X527977Y483431D01*
X528073Y483357D01*
X528172Y483285D01*
X528274Y483217D01*
X528377Y483152D01*
X528482Y483090D01*
X528590Y483032D01*
X528699Y482977D01*
X528810Y482926D01*
X528922Y482878D01*
X529036Y482834D01*
X529151Y482794D01*
X529268Y482757D01*
X529386Y482725D01*
X529504Y482696D01*
X529624Y482670D01*
X529744Y482649D01*
X529865Y482631D01*
X529986Y482618D01*
X530108Y482608D01*
X530230Y482602D01*
X530352Y482600D01*
X565658Y580390D02*
X565656Y580512D01*
X565650Y580634D01*
X565640Y580756D01*
X565627Y580877D01*
X565609Y580998D01*
X565588Y581118D01*
X565562Y581238D01*
X565533Y581356D01*
X565501Y581474D01*
X565464Y581591D01*
X565424Y581706D01*
X565380Y581820D01*
X565332Y581932D01*
X565281Y582043D01*
X565226Y582152D01*
X565168Y582260D01*
X565106Y582365D01*
X565041Y582468D01*
X564973Y582570D01*
X564901Y582669D01*
X564827Y582765D01*
X564749Y582860D01*
X564668Y582951D01*
X564585Y583041D01*
X564499Y583127D01*
X564409Y583210D01*
X564318Y583291D01*
X564223Y583369D01*
X564127Y583443D01*
X564028Y583515D01*
X563926Y583583D01*
X563823Y583648D01*
X563718Y583710D01*
X563610Y583768D01*
X563501Y583823D01*
X563390Y583874D01*
X563278Y583922D01*
X563164Y583966D01*
X563049Y584006D01*
X562932Y584043D01*
X562814Y584075D01*
X562696Y584104D01*
X562576Y584130D01*
X562456Y584151D01*
X562335Y584169D01*
X562214Y584182D01*
X562092Y584192D01*
X561970Y584198D01*
X561848Y584200D01*
X561848Y482600D02*
X530352Y482600D01*
X530352Y584200D02*
X541020Y584200D01*
X551180Y584200D01*
X561848Y584200D01*
X551180Y584200D02*
X551178Y584059D01*
X551172Y583918D01*
X551162Y583777D01*
X551149Y583636D01*
X551131Y583496D01*
X551109Y583357D01*
X551084Y583218D01*
X551055Y583079D01*
X551022Y582942D01*
X550985Y582806D01*
X550944Y582671D01*
X550900Y582536D01*
X550852Y582404D01*
X550800Y582272D01*
X550745Y582142D01*
X550686Y582014D01*
X550623Y581887D01*
X550557Y581763D01*
X550488Y581640D01*
X550415Y581519D01*
X550339Y581400D01*
X550259Y581283D01*
X550176Y581169D01*
X550091Y581056D01*
X550002Y580947D01*
X549910Y580839D01*
X549815Y580735D01*
X549717Y580633D01*
X549616Y580534D01*
X549513Y580437D01*
X549407Y580344D01*
X549299Y580254D01*
X549188Y580166D01*
X549075Y580082D01*
X548959Y580001D01*
X548841Y579923D01*
X548721Y579848D01*
X548599Y579777D01*
X548475Y579709D01*
X548349Y579645D01*
X548222Y579584D01*
X548093Y579527D01*
X547962Y579474D01*
X547830Y579424D01*
X547697Y579377D01*
X547562Y579335D01*
X547426Y579296D01*
X547289Y579261D01*
X547152Y579230D01*
X547013Y579203D01*
X546874Y579179D01*
X546734Y579160D01*
X546594Y579144D01*
X546453Y579132D01*
X546312Y579124D01*
X546171Y579120D01*
X546029Y579120D01*
X545888Y579124D01*
X545747Y579132D01*
X545606Y579144D01*
X545466Y579160D01*
X545326Y579179D01*
X545187Y579203D01*
X545048Y579230D01*
X544911Y579261D01*
X544774Y579296D01*
X544638Y579335D01*
X544503Y579377D01*
X544370Y579424D01*
X544238Y579474D01*
X544107Y579527D01*
X543978Y579584D01*
X543851Y579645D01*
X543725Y579709D01*
X543601Y579777D01*
X543479Y579848D01*
X543359Y579923D01*
X543241Y580001D01*
X543125Y580082D01*
X543012Y580166D01*
X542901Y580254D01*
X542793Y580344D01*
X542687Y580437D01*
X542584Y580534D01*
X542483Y580633D01*
X542385Y580735D01*
X542290Y580839D01*
X542198Y580947D01*
X542109Y581056D01*
X542024Y581169D01*
X541941Y581283D01*
X541861Y581400D01*
X541785Y581519D01*
X541712Y581640D01*
X541643Y581763D01*
X541577Y581887D01*
X541514Y582014D01*
X541455Y582142D01*
X541400Y582272D01*
X541348Y582404D01*
X541300Y582536D01*
X541256Y582671D01*
X541215Y582806D01*
X541178Y582942D01*
X541145Y583079D01*
X541116Y583218D01*
X541091Y583357D01*
X541069Y583496D01*
X541051Y583636D01*
X541038Y583777D01*
X541028Y583918D01*
X541022Y584059D01*
X541020Y584200D01*
D11*
X562102Y584200D02*
X562102Y482600D01*
D12*
X563245Y588645D02*
X563245Y600075D01*
X564515Y588645D02*
X561975Y588645D01*
X561975Y600075D02*
X564515Y600075D01*
X554773Y588645D02*
X552233Y588645D01*
X554773Y588645D02*
X554873Y588647D01*
X554972Y588653D01*
X555072Y588663D01*
X555170Y588676D01*
X555269Y588694D01*
X555366Y588715D01*
X555462Y588740D01*
X555558Y588769D01*
X555652Y588802D01*
X555745Y588838D01*
X555836Y588878D01*
X555926Y588922D01*
X556014Y588969D01*
X556100Y589019D01*
X556184Y589073D01*
X556266Y589130D01*
X556345Y589190D01*
X556423Y589254D01*
X556497Y589320D01*
X556569Y589389D01*
X556638Y589461D01*
X556704Y589535D01*
X556768Y589613D01*
X556828Y589692D01*
X556885Y589774D01*
X556939Y589858D01*
X556989Y589944D01*
X557036Y590032D01*
X557080Y590122D01*
X557120Y590213D01*
X557156Y590306D01*
X557189Y590400D01*
X557218Y590496D01*
X557243Y590592D01*
X557264Y590689D01*
X557282Y590788D01*
X557295Y590886D01*
X557305Y590986D01*
X557311Y591085D01*
X557313Y591185D01*
X557313Y597535D01*
X557311Y597635D01*
X557305Y597734D01*
X557295Y597834D01*
X557282Y597932D01*
X557264Y598031D01*
X557243Y598128D01*
X557218Y598224D01*
X557189Y598320D01*
X557156Y598414D01*
X557120Y598507D01*
X557080Y598598D01*
X557036Y598688D01*
X556989Y598776D01*
X556939Y598862D01*
X556885Y598946D01*
X556828Y599028D01*
X556768Y599107D01*
X556704Y599185D01*
X556638Y599259D01*
X556569Y599331D01*
X556497Y599400D01*
X556423Y599466D01*
X556345Y599530D01*
X556266Y599590D01*
X556184Y599647D01*
X556100Y599701D01*
X556014Y599751D01*
X555926Y599798D01*
X555836Y599842D01*
X555745Y599882D01*
X555652Y599918D01*
X555558Y599951D01*
X555462Y599980D01*
X555366Y600005D01*
X555269Y600026D01*
X555170Y600044D01*
X555072Y600057D01*
X554972Y600067D01*
X554873Y600073D01*
X554773Y600075D01*
X552233Y600075D01*
X547751Y597535D02*
X544576Y600075D01*
X544576Y588645D01*
X547751Y588645D02*
X541401Y588645D01*
X536321Y594360D02*
X536318Y594585D01*
X536310Y594810D01*
X536297Y595034D01*
X536278Y595258D01*
X536254Y595482D01*
X536225Y595705D01*
X536190Y595927D01*
X536150Y596148D01*
X536104Y596368D01*
X536054Y596587D01*
X535998Y596805D01*
X535937Y597022D01*
X535871Y597237D01*
X535800Y597450D01*
X535723Y597661D01*
X535642Y597871D01*
X535556Y598079D01*
X535465Y598284D01*
X535369Y598487D01*
X535369Y598488D02*
X535337Y598576D01*
X535301Y598663D01*
X535262Y598749D01*
X535219Y598833D01*
X535173Y598915D01*
X535124Y598995D01*
X535072Y599073D01*
X535016Y599149D01*
X534958Y599223D01*
X534896Y599294D01*
X534832Y599363D01*
X534765Y599429D01*
X534696Y599492D01*
X534624Y599553D01*
X534550Y599611D01*
X534473Y599665D01*
X534395Y599717D01*
X534314Y599765D01*
X534232Y599810D01*
X534147Y599852D01*
X534061Y599890D01*
X533974Y599925D01*
X533886Y599957D01*
X533796Y599984D01*
X533705Y600009D01*
X533613Y600029D01*
X533521Y600046D01*
X533427Y600059D01*
X533334Y600068D01*
X533240Y600074D01*
X533146Y600076D01*
X533052Y600074D01*
X532958Y600068D01*
X532865Y600059D01*
X532771Y600046D01*
X532679Y600029D01*
X532587Y600009D01*
X532496Y599984D01*
X532406Y599957D01*
X532318Y599925D01*
X532231Y599890D01*
X532145Y599852D01*
X532060Y599810D01*
X531978Y599765D01*
X531897Y599717D01*
X531819Y599665D01*
X531742Y599611D01*
X531668Y599553D01*
X531596Y599492D01*
X531527Y599429D01*
X531460Y599363D01*
X531396Y599294D01*
X531334Y599223D01*
X531276Y599149D01*
X531220Y599073D01*
X531168Y598995D01*
X531119Y598915D01*
X531073Y598833D01*
X531030Y598749D01*
X530991Y598663D01*
X530955Y598576D01*
X530923Y598488D01*
X530923Y598487D02*
X530827Y598284D01*
X530736Y598079D01*
X530650Y597871D01*
X530569Y597661D01*
X530492Y597450D01*
X530421Y597237D01*
X530355Y597022D01*
X530294Y596805D01*
X530238Y596587D01*
X530188Y596368D01*
X530142Y596148D01*
X530102Y595927D01*
X530067Y595705D01*
X530038Y595482D01*
X530014Y595258D01*
X529995Y595034D01*
X529982Y594810D01*
X529974Y594585D01*
X529971Y594360D01*
X536321Y594360D02*
X536318Y594135D01*
X536310Y593910D01*
X536297Y593686D01*
X536278Y593462D01*
X536254Y593238D01*
X536225Y593015D01*
X536190Y592793D01*
X536150Y592572D01*
X536104Y592352D01*
X536054Y592133D01*
X535998Y591915D01*
X535937Y591698D01*
X535871Y591483D01*
X535800Y591270D01*
X535723Y591059D01*
X535642Y590849D01*
X535556Y590641D01*
X535465Y590436D01*
X535369Y590233D01*
X535337Y590145D01*
X535301Y590058D01*
X535262Y589972D01*
X535219Y589888D01*
X535173Y589806D01*
X535124Y589726D01*
X535072Y589648D01*
X535016Y589572D01*
X534958Y589498D01*
X534896Y589427D01*
X534832Y589358D01*
X534765Y589292D01*
X534696Y589229D01*
X534624Y589168D01*
X534550Y589110D01*
X534473Y589056D01*
X534395Y589004D01*
X534314Y588956D01*
X534232Y588911D01*
X534147Y588869D01*
X534061Y588831D01*
X533974Y588796D01*
X533886Y588764D01*
X533796Y588737D01*
X533705Y588712D01*
X533613Y588692D01*
X533521Y588675D01*
X533427Y588662D01*
X533334Y588653D01*
X533240Y588647D01*
X533146Y588645D01*
X530923Y590233D02*
X530827Y590436D01*
X530736Y590641D01*
X530650Y590849D01*
X530569Y591059D01*
X530492Y591270D01*
X530421Y591483D01*
X530355Y591698D01*
X530294Y591915D01*
X530238Y592133D01*
X530188Y592352D01*
X530142Y592572D01*
X530102Y592793D01*
X530067Y593015D01*
X530038Y593238D01*
X530014Y593462D01*
X529995Y593686D01*
X529982Y593910D01*
X529974Y594135D01*
X529971Y594360D01*
X530923Y590233D02*
X530955Y590145D01*
X530991Y590058D01*
X531030Y589972D01*
X531073Y589888D01*
X531119Y589806D01*
X531168Y589726D01*
X531220Y589648D01*
X531276Y589572D01*
X531334Y589498D01*
X531396Y589427D01*
X531460Y589358D01*
X531527Y589292D01*
X531596Y589229D01*
X531668Y589168D01*
X531742Y589110D01*
X531819Y589056D01*
X531897Y589004D01*
X531978Y588956D01*
X532060Y588911D01*
X532145Y588869D01*
X532231Y588831D01*
X532318Y588796D01*
X532406Y588764D01*
X532496Y588737D01*
X532587Y588712D01*
X532679Y588692D01*
X532771Y588675D01*
X532865Y588662D01*
X532958Y588653D01*
X533052Y588647D01*
X533146Y588645D01*
X535686Y591185D02*
X530606Y597535D01*
X551815Y486029D02*
X553085Y486029D01*
X553085Y492379D01*
X541655Y489204D01*
X544195Y497459D02*
X553085Y499999D01*
X544195Y497459D02*
X544195Y503809D01*
X546735Y501904D02*
X541655Y501904D01*
X541655Y508254D02*
X553085Y512064D01*
X541655Y515874D01*
X544513Y514922D02*
X544513Y509207D01*
X541655Y522822D02*
X541655Y525362D01*
X541655Y522822D02*
X541657Y522722D01*
X541663Y522623D01*
X541673Y522523D01*
X541686Y522425D01*
X541704Y522326D01*
X541725Y522229D01*
X541750Y522133D01*
X541779Y522037D01*
X541812Y521943D01*
X541848Y521850D01*
X541888Y521759D01*
X541932Y521669D01*
X541979Y521581D01*
X542029Y521495D01*
X542083Y521411D01*
X542140Y521329D01*
X542200Y521250D01*
X542264Y521172D01*
X542330Y521098D01*
X542399Y521026D01*
X542471Y520957D01*
X542545Y520891D01*
X542623Y520827D01*
X542702Y520767D01*
X542784Y520710D01*
X542868Y520656D01*
X542954Y520606D01*
X543042Y520559D01*
X543132Y520515D01*
X543223Y520475D01*
X543316Y520439D01*
X543410Y520406D01*
X543506Y520377D01*
X543602Y520352D01*
X543699Y520331D01*
X543798Y520313D01*
X543896Y520300D01*
X543996Y520290D01*
X544095Y520284D01*
X544195Y520282D01*
X550545Y520282D01*
X550645Y520284D01*
X550744Y520290D01*
X550844Y520300D01*
X550942Y520313D01*
X551041Y520331D01*
X551138Y520352D01*
X551234Y520377D01*
X551330Y520406D01*
X551424Y520439D01*
X551517Y520475D01*
X551608Y520515D01*
X551698Y520559D01*
X551786Y520606D01*
X551872Y520656D01*
X551956Y520710D01*
X552038Y520767D01*
X552117Y520827D01*
X552195Y520891D01*
X552269Y520957D01*
X552341Y521026D01*
X552410Y521098D01*
X552476Y521172D01*
X552540Y521250D01*
X552600Y521329D01*
X552657Y521411D01*
X552711Y521495D01*
X552761Y521581D01*
X552808Y521669D01*
X552852Y521759D01*
X552892Y521850D01*
X552928Y521943D01*
X552961Y522037D01*
X552990Y522133D01*
X553015Y522229D01*
X553036Y522326D01*
X553054Y522425D01*
X553067Y522523D01*
X553077Y522623D01*
X553083Y522722D01*
X553085Y522822D01*
X553085Y525362D01*
X541655Y529844D02*
X541655Y533019D01*
X541657Y533130D01*
X541663Y533240D01*
X541672Y533351D01*
X541686Y533461D01*
X541703Y533570D01*
X541724Y533679D01*
X541749Y533787D01*
X541778Y533894D01*
X541810Y534000D01*
X541846Y534105D01*
X541886Y534208D01*
X541929Y534310D01*
X541976Y534411D01*
X542027Y534510D01*
X542080Y534607D01*
X542137Y534701D01*
X542198Y534794D01*
X542261Y534885D01*
X542328Y534974D01*
X542398Y535060D01*
X542471Y535143D01*
X542546Y535225D01*
X542624Y535303D01*
X542706Y535378D01*
X542789Y535451D01*
X542875Y535521D01*
X542964Y535588D01*
X543055Y535651D01*
X543148Y535712D01*
X543243Y535769D01*
X543339Y535822D01*
X543438Y535873D01*
X543539Y535920D01*
X543641Y535963D01*
X543744Y536003D01*
X543849Y536039D01*
X543955Y536071D01*
X544062Y536100D01*
X544170Y536125D01*
X544279Y536146D01*
X544388Y536163D01*
X544498Y536177D01*
X544609Y536186D01*
X544719Y536192D01*
X544830Y536194D01*
X544941Y536192D01*
X545051Y536186D01*
X545162Y536177D01*
X545272Y536163D01*
X545381Y536146D01*
X545490Y536125D01*
X545598Y536100D01*
X545705Y536071D01*
X545811Y536039D01*
X545916Y536003D01*
X546019Y535963D01*
X546121Y535920D01*
X546222Y535873D01*
X546321Y535822D01*
X546418Y535769D01*
X546512Y535712D01*
X546605Y535651D01*
X546696Y535588D01*
X546785Y535521D01*
X546871Y535451D01*
X546954Y535378D01*
X547036Y535303D01*
X547114Y535225D01*
X547189Y535143D01*
X547262Y535060D01*
X547332Y534974D01*
X547399Y534885D01*
X547462Y534794D01*
X547523Y534701D01*
X547580Y534607D01*
X547633Y534510D01*
X547684Y534411D01*
X547731Y534310D01*
X547774Y534208D01*
X547814Y534105D01*
X547850Y534000D01*
X547882Y533894D01*
X547911Y533787D01*
X547936Y533679D01*
X547957Y533570D01*
X547974Y533461D01*
X547988Y533351D01*
X547997Y533240D01*
X548003Y533130D01*
X548005Y533019D01*
X553085Y533654D02*
X553085Y529844D01*
X553085Y533654D02*
X553083Y533754D01*
X553077Y533853D01*
X553067Y533953D01*
X553054Y534051D01*
X553036Y534150D01*
X553015Y534247D01*
X552990Y534343D01*
X552961Y534439D01*
X552928Y534533D01*
X552892Y534626D01*
X552852Y534717D01*
X552808Y534807D01*
X552761Y534895D01*
X552711Y534981D01*
X552657Y535065D01*
X552600Y535147D01*
X552540Y535226D01*
X552476Y535304D01*
X552410Y535378D01*
X552341Y535450D01*
X552269Y535519D01*
X552195Y535585D01*
X552117Y535649D01*
X552038Y535709D01*
X551956Y535766D01*
X551872Y535820D01*
X551786Y535870D01*
X551698Y535917D01*
X551608Y535961D01*
X551517Y536001D01*
X551424Y536037D01*
X551330Y536070D01*
X551234Y536099D01*
X551138Y536124D01*
X551041Y536145D01*
X550942Y536163D01*
X550844Y536176D01*
X550744Y536186D01*
X550645Y536192D01*
X550545Y536194D01*
X550445Y536192D01*
X550346Y536186D01*
X550246Y536176D01*
X550148Y536163D01*
X550049Y536145D01*
X549952Y536124D01*
X549856Y536099D01*
X549760Y536070D01*
X549666Y536037D01*
X549573Y536001D01*
X549482Y535961D01*
X549392Y535917D01*
X549304Y535870D01*
X549218Y535820D01*
X549134Y535766D01*
X549052Y535709D01*
X548973Y535649D01*
X548895Y535585D01*
X548821Y535519D01*
X548749Y535450D01*
X548680Y535378D01*
X548614Y535304D01*
X548550Y535226D01*
X548490Y535147D01*
X548433Y535065D01*
X548379Y534981D01*
X548329Y534895D01*
X548282Y534807D01*
X548238Y534717D01*
X548198Y534626D01*
X548162Y534533D01*
X548129Y534439D01*
X548100Y534343D01*
X548075Y534247D01*
X548054Y534150D01*
X548036Y534051D01*
X548023Y533953D01*
X548013Y533853D01*
X548007Y533754D01*
X548005Y533654D01*
X548005Y531114D01*
X551815Y541274D02*
X553085Y541274D01*
X553085Y547624D01*
X541655Y544449D01*
X544830Y552704D02*
X544941Y552706D01*
X545051Y552712D01*
X545162Y552721D01*
X545272Y552735D01*
X545381Y552752D01*
X545490Y552773D01*
X545598Y552798D01*
X545705Y552827D01*
X545811Y552859D01*
X545916Y552895D01*
X546019Y552935D01*
X546121Y552978D01*
X546222Y553025D01*
X546321Y553076D01*
X546418Y553129D01*
X546512Y553186D01*
X546605Y553247D01*
X546696Y553310D01*
X546785Y553377D01*
X546871Y553447D01*
X546954Y553520D01*
X547036Y553595D01*
X547114Y553673D01*
X547189Y553755D01*
X547262Y553838D01*
X547332Y553924D01*
X547399Y554013D01*
X547462Y554104D01*
X547523Y554197D01*
X547580Y554292D01*
X547633Y554388D01*
X547684Y554487D01*
X547731Y554588D01*
X547774Y554690D01*
X547814Y554793D01*
X547850Y554898D01*
X547882Y555004D01*
X547911Y555111D01*
X547936Y555219D01*
X547957Y555328D01*
X547974Y555437D01*
X547988Y555547D01*
X547997Y555658D01*
X548003Y555768D01*
X548005Y555879D01*
X548003Y555990D01*
X547997Y556100D01*
X547988Y556211D01*
X547974Y556321D01*
X547957Y556430D01*
X547936Y556539D01*
X547911Y556647D01*
X547882Y556754D01*
X547850Y556860D01*
X547814Y556965D01*
X547774Y557068D01*
X547731Y557170D01*
X547684Y557271D01*
X547633Y557370D01*
X547580Y557466D01*
X547523Y557561D01*
X547462Y557654D01*
X547399Y557745D01*
X547332Y557834D01*
X547262Y557920D01*
X547189Y558003D01*
X547114Y558085D01*
X547036Y558163D01*
X546954Y558238D01*
X546871Y558311D01*
X546785Y558381D01*
X546696Y558448D01*
X546605Y558511D01*
X546512Y558572D01*
X546418Y558629D01*
X546321Y558682D01*
X546222Y558733D01*
X546121Y558780D01*
X546019Y558823D01*
X545916Y558863D01*
X545811Y558899D01*
X545705Y558931D01*
X545598Y558960D01*
X545490Y558985D01*
X545381Y559006D01*
X545272Y559023D01*
X545162Y559037D01*
X545051Y559046D01*
X544941Y559052D01*
X544830Y559054D01*
X544719Y559052D01*
X544609Y559046D01*
X544498Y559037D01*
X544388Y559023D01*
X544279Y559006D01*
X544170Y558985D01*
X544062Y558960D01*
X543955Y558931D01*
X543849Y558899D01*
X543744Y558863D01*
X543641Y558823D01*
X543539Y558780D01*
X543438Y558733D01*
X543339Y558682D01*
X543243Y558629D01*
X543148Y558572D01*
X543055Y558511D01*
X542964Y558448D01*
X542875Y558381D01*
X542789Y558311D01*
X542706Y558238D01*
X542624Y558163D01*
X542546Y558085D01*
X542471Y558003D01*
X542398Y557920D01*
X542328Y557834D01*
X542261Y557745D01*
X542198Y557654D01*
X542137Y557561D01*
X542080Y557467D01*
X542027Y557370D01*
X541976Y557271D01*
X541929Y557170D01*
X541886Y557068D01*
X541846Y556965D01*
X541810Y556860D01*
X541778Y556754D01*
X541749Y556647D01*
X541724Y556539D01*
X541703Y556430D01*
X541686Y556321D01*
X541672Y556211D01*
X541663Y556100D01*
X541657Y555990D01*
X541655Y555879D01*
X541657Y555768D01*
X541663Y555658D01*
X541672Y555547D01*
X541686Y555437D01*
X541703Y555328D01*
X541724Y555219D01*
X541749Y555111D01*
X541778Y555004D01*
X541810Y554898D01*
X541846Y554793D01*
X541886Y554690D01*
X541929Y554588D01*
X541976Y554487D01*
X542027Y554388D01*
X542080Y554292D01*
X542137Y554197D01*
X542198Y554104D01*
X542261Y554013D01*
X542328Y553924D01*
X542398Y553838D01*
X542471Y553755D01*
X542546Y553673D01*
X542624Y553595D01*
X542706Y553520D01*
X542789Y553447D01*
X542875Y553377D01*
X542964Y553310D01*
X543055Y553247D01*
X543148Y553186D01*
X543243Y553129D01*
X543339Y553076D01*
X543438Y553025D01*
X543539Y552978D01*
X543641Y552935D01*
X543744Y552895D01*
X543849Y552859D01*
X543955Y552827D01*
X544062Y552798D01*
X544170Y552773D01*
X544279Y552752D01*
X544388Y552735D01*
X544498Y552721D01*
X544609Y552712D01*
X544719Y552706D01*
X544830Y552704D01*
X550545Y553339D02*
X550645Y553341D01*
X550744Y553347D01*
X550844Y553357D01*
X550942Y553370D01*
X551041Y553388D01*
X551138Y553409D01*
X551234Y553434D01*
X551330Y553463D01*
X551424Y553496D01*
X551517Y553532D01*
X551608Y553572D01*
X551698Y553616D01*
X551786Y553663D01*
X551872Y553713D01*
X551956Y553767D01*
X552038Y553824D01*
X552117Y553884D01*
X552195Y553948D01*
X552269Y554014D01*
X552341Y554083D01*
X552410Y554155D01*
X552476Y554229D01*
X552540Y554307D01*
X552600Y554386D01*
X552657Y554468D01*
X552711Y554552D01*
X552761Y554638D01*
X552808Y554726D01*
X552852Y554816D01*
X552892Y554907D01*
X552928Y555000D01*
X552961Y555094D01*
X552990Y555190D01*
X553015Y555286D01*
X553036Y555383D01*
X553054Y555482D01*
X553067Y555580D01*
X553077Y555680D01*
X553083Y555779D01*
X553085Y555879D01*
X553083Y555979D01*
X553077Y556078D01*
X553067Y556178D01*
X553054Y556276D01*
X553036Y556375D01*
X553015Y556472D01*
X552990Y556568D01*
X552961Y556664D01*
X552928Y556758D01*
X552892Y556851D01*
X552852Y556942D01*
X552808Y557032D01*
X552761Y557120D01*
X552711Y557206D01*
X552657Y557290D01*
X552600Y557372D01*
X552540Y557451D01*
X552476Y557529D01*
X552410Y557603D01*
X552341Y557675D01*
X552269Y557744D01*
X552195Y557810D01*
X552117Y557874D01*
X552038Y557934D01*
X551956Y557991D01*
X551872Y558045D01*
X551786Y558095D01*
X551698Y558142D01*
X551608Y558186D01*
X551517Y558226D01*
X551424Y558262D01*
X551330Y558295D01*
X551234Y558324D01*
X551138Y558349D01*
X551041Y558370D01*
X550942Y558388D01*
X550844Y558401D01*
X550744Y558411D01*
X550645Y558417D01*
X550545Y558419D01*
X550445Y558417D01*
X550346Y558411D01*
X550246Y558401D01*
X550148Y558388D01*
X550049Y558370D01*
X549952Y558349D01*
X549856Y558324D01*
X549760Y558295D01*
X549666Y558262D01*
X549573Y558226D01*
X549482Y558186D01*
X549392Y558142D01*
X549304Y558095D01*
X549218Y558045D01*
X549134Y557991D01*
X549052Y557934D01*
X548973Y557874D01*
X548895Y557810D01*
X548821Y557744D01*
X548749Y557675D01*
X548680Y557603D01*
X548614Y557529D01*
X548550Y557451D01*
X548490Y557372D01*
X548433Y557290D01*
X548379Y557206D01*
X548329Y557120D01*
X548282Y557032D01*
X548238Y556942D01*
X548198Y556851D01*
X548162Y556758D01*
X548129Y556664D01*
X548100Y556568D01*
X548075Y556472D01*
X548054Y556375D01*
X548036Y556276D01*
X548023Y556178D01*
X548013Y556078D01*
X548007Y555979D01*
X548005Y555879D01*
X548007Y555779D01*
X548013Y555680D01*
X548023Y555580D01*
X548036Y555482D01*
X548054Y555383D01*
X548075Y555286D01*
X548100Y555190D01*
X548129Y555094D01*
X548162Y555000D01*
X548198Y554907D01*
X548238Y554816D01*
X548282Y554726D01*
X548329Y554638D01*
X548379Y554552D01*
X548433Y554468D01*
X548490Y554386D01*
X548550Y554307D01*
X548614Y554229D01*
X548680Y554155D01*
X548749Y554083D01*
X548821Y554014D01*
X548895Y553948D01*
X548973Y553884D01*
X549052Y553824D01*
X549134Y553767D01*
X549218Y553713D01*
X549304Y553663D01*
X549392Y553616D01*
X549482Y553572D01*
X549573Y553532D01*
X549666Y553496D01*
X549760Y553463D01*
X549856Y553434D01*
X549952Y553409D01*
X550049Y553388D01*
X550148Y553370D01*
X550246Y553357D01*
X550346Y553347D01*
X550445Y553341D01*
X550545Y553339D01*
X553085Y564515D02*
X541655Y564515D01*
X553085Y564515D02*
X553085Y567690D01*
X553083Y567801D01*
X553077Y567911D01*
X553068Y568022D01*
X553054Y568132D01*
X553037Y568241D01*
X553016Y568350D01*
X552991Y568458D01*
X552962Y568565D01*
X552930Y568671D01*
X552894Y568776D01*
X552854Y568879D01*
X552811Y568981D01*
X552764Y569082D01*
X552713Y569181D01*
X552660Y569278D01*
X552603Y569372D01*
X552542Y569465D01*
X552479Y569556D01*
X552412Y569645D01*
X552342Y569731D01*
X552269Y569814D01*
X552194Y569896D01*
X552116Y569974D01*
X552034Y570049D01*
X551951Y570122D01*
X551865Y570192D01*
X551776Y570259D01*
X551685Y570322D01*
X551592Y570383D01*
X551498Y570440D01*
X551401Y570493D01*
X551302Y570544D01*
X551201Y570591D01*
X551099Y570634D01*
X550996Y570674D01*
X550891Y570710D01*
X550785Y570742D01*
X550678Y570771D01*
X550570Y570796D01*
X550461Y570817D01*
X550352Y570834D01*
X550242Y570848D01*
X550131Y570857D01*
X550021Y570863D01*
X549910Y570865D01*
X544830Y570865D01*
X544719Y570863D01*
X544609Y570857D01*
X544498Y570848D01*
X544388Y570834D01*
X544279Y570817D01*
X544170Y570796D01*
X544062Y570771D01*
X543955Y570742D01*
X543849Y570710D01*
X543744Y570674D01*
X543641Y570634D01*
X543539Y570591D01*
X543438Y570544D01*
X543339Y570493D01*
X543243Y570440D01*
X543148Y570383D01*
X543055Y570322D01*
X542964Y570259D01*
X542875Y570192D01*
X542789Y570122D01*
X542706Y570049D01*
X542624Y569974D01*
X542546Y569896D01*
X542471Y569814D01*
X542398Y569731D01*
X542328Y569645D01*
X542261Y569556D01*
X542198Y569465D01*
X542137Y569372D01*
X542080Y569278D01*
X542027Y569181D01*
X541976Y569082D01*
X541929Y568981D01*
X541886Y568879D01*
X541846Y568776D01*
X541810Y568671D01*
X541778Y568565D01*
X541749Y568458D01*
X541724Y568350D01*
X541703Y568241D01*
X541686Y568132D01*
X541672Y568022D01*
X541663Y567911D01*
X541657Y567801D01*
X541655Y567690D01*
X541655Y564515D01*
D10*
X790448Y501650D02*
X790570Y501652D01*
X790692Y501658D01*
X790814Y501668D01*
X790935Y501681D01*
X791056Y501699D01*
X791176Y501720D01*
X791296Y501746D01*
X791414Y501775D01*
X791532Y501807D01*
X791649Y501844D01*
X791764Y501884D01*
X791878Y501928D01*
X791990Y501976D01*
X792101Y502027D01*
X792210Y502082D01*
X792318Y502140D01*
X792423Y502202D01*
X792526Y502267D01*
X792628Y502335D01*
X792727Y502407D01*
X792823Y502481D01*
X792918Y502559D01*
X793009Y502640D01*
X793099Y502723D01*
X793185Y502809D01*
X793268Y502899D01*
X793349Y502990D01*
X793427Y503085D01*
X793501Y503181D01*
X793573Y503280D01*
X793641Y503382D01*
X793706Y503485D01*
X793768Y503590D01*
X793826Y503698D01*
X793881Y503807D01*
X793932Y503918D01*
X793980Y504030D01*
X794024Y504144D01*
X794064Y504259D01*
X794101Y504376D01*
X794133Y504494D01*
X794162Y504612D01*
X794188Y504732D01*
X794209Y504852D01*
X794227Y504973D01*
X794240Y505094D01*
X794250Y505216D01*
X794256Y505338D01*
X794258Y505460D01*
X755142Y586740D02*
X755144Y586862D01*
X755150Y586984D01*
X755160Y587106D01*
X755173Y587227D01*
X755191Y587348D01*
X755212Y587468D01*
X755238Y587588D01*
X755267Y587706D01*
X755299Y587824D01*
X755336Y587941D01*
X755376Y588056D01*
X755420Y588170D01*
X755468Y588282D01*
X755519Y588393D01*
X755574Y588502D01*
X755632Y588610D01*
X755694Y588715D01*
X755759Y588818D01*
X755827Y588920D01*
X755899Y589019D01*
X755973Y589115D01*
X756051Y589210D01*
X756132Y589301D01*
X756215Y589391D01*
X756301Y589477D01*
X756391Y589560D01*
X756482Y589641D01*
X756577Y589719D01*
X756673Y589793D01*
X756772Y589865D01*
X756874Y589933D01*
X756977Y589998D01*
X757082Y590060D01*
X757190Y590118D01*
X757299Y590173D01*
X757410Y590224D01*
X757522Y590272D01*
X757636Y590316D01*
X757751Y590356D01*
X757868Y590393D01*
X757986Y590425D01*
X758104Y590454D01*
X758224Y590480D01*
X758344Y590501D01*
X758465Y590519D01*
X758586Y590532D01*
X758708Y590542D01*
X758830Y590548D01*
X758952Y590550D01*
X755142Y505460D02*
X755144Y505338D01*
X755150Y505216D01*
X755160Y505094D01*
X755173Y504973D01*
X755191Y504852D01*
X755212Y504732D01*
X755238Y504612D01*
X755267Y504494D01*
X755299Y504376D01*
X755336Y504259D01*
X755376Y504144D01*
X755420Y504030D01*
X755468Y503918D01*
X755519Y503807D01*
X755574Y503698D01*
X755632Y503590D01*
X755694Y503485D01*
X755759Y503382D01*
X755827Y503280D01*
X755899Y503181D01*
X755973Y503085D01*
X756051Y502990D01*
X756132Y502899D01*
X756215Y502809D01*
X756301Y502723D01*
X756391Y502640D01*
X756482Y502559D01*
X756577Y502481D01*
X756673Y502407D01*
X756772Y502335D01*
X756874Y502267D01*
X756977Y502202D01*
X757082Y502140D01*
X757190Y502082D01*
X757299Y502027D01*
X757410Y501976D01*
X757522Y501928D01*
X757636Y501884D01*
X757751Y501844D01*
X757868Y501807D01*
X757986Y501775D01*
X758104Y501746D01*
X758224Y501720D01*
X758344Y501699D01*
X758465Y501681D01*
X758586Y501668D01*
X758708Y501658D01*
X758830Y501652D01*
X758952Y501650D01*
X794258Y586740D02*
X794256Y586862D01*
X794250Y586984D01*
X794240Y587106D01*
X794227Y587227D01*
X794209Y587348D01*
X794188Y587468D01*
X794162Y587588D01*
X794133Y587706D01*
X794101Y587824D01*
X794064Y587941D01*
X794024Y588056D01*
X793980Y588170D01*
X793932Y588282D01*
X793881Y588393D01*
X793826Y588502D01*
X793768Y588610D01*
X793706Y588715D01*
X793641Y588818D01*
X793573Y588920D01*
X793501Y589019D01*
X793427Y589115D01*
X793349Y589210D01*
X793268Y589301D01*
X793185Y589391D01*
X793099Y589477D01*
X793009Y589560D01*
X792918Y589641D01*
X792823Y589719D01*
X792727Y589793D01*
X792628Y589865D01*
X792526Y589933D01*
X792423Y589998D01*
X792318Y590060D01*
X792210Y590118D01*
X792101Y590173D01*
X791990Y590224D01*
X791878Y590272D01*
X791764Y590316D01*
X791649Y590356D01*
X791532Y590393D01*
X791414Y590425D01*
X791296Y590454D01*
X791176Y590480D01*
X791056Y590501D01*
X790935Y590519D01*
X790814Y590532D01*
X790692Y590542D01*
X790570Y590548D01*
X790448Y590550D01*
X790448Y501650D02*
X758952Y501650D01*
X758952Y590550D02*
X769620Y590550D01*
X779780Y590550D01*
X790448Y590550D01*
X779780Y590550D02*
X779778Y590409D01*
X779772Y590268D01*
X779762Y590127D01*
X779749Y589986D01*
X779731Y589846D01*
X779709Y589707D01*
X779684Y589568D01*
X779655Y589429D01*
X779622Y589292D01*
X779585Y589156D01*
X779544Y589021D01*
X779500Y588886D01*
X779452Y588754D01*
X779400Y588622D01*
X779345Y588492D01*
X779286Y588364D01*
X779223Y588237D01*
X779157Y588113D01*
X779088Y587990D01*
X779015Y587869D01*
X778939Y587750D01*
X778859Y587633D01*
X778776Y587519D01*
X778691Y587406D01*
X778602Y587297D01*
X778510Y587189D01*
X778415Y587085D01*
X778317Y586983D01*
X778216Y586884D01*
X778113Y586787D01*
X778007Y586694D01*
X777899Y586604D01*
X777788Y586516D01*
X777675Y586432D01*
X777559Y586351D01*
X777441Y586273D01*
X777321Y586198D01*
X777199Y586127D01*
X777075Y586059D01*
X776949Y585995D01*
X776822Y585934D01*
X776693Y585877D01*
X776562Y585824D01*
X776430Y585774D01*
X776297Y585727D01*
X776162Y585685D01*
X776026Y585646D01*
X775889Y585611D01*
X775752Y585580D01*
X775613Y585553D01*
X775474Y585529D01*
X775334Y585510D01*
X775194Y585494D01*
X775053Y585482D01*
X774912Y585474D01*
X774771Y585470D01*
X774629Y585470D01*
X774488Y585474D01*
X774347Y585482D01*
X774206Y585494D01*
X774066Y585510D01*
X773926Y585529D01*
X773787Y585553D01*
X773648Y585580D01*
X773511Y585611D01*
X773374Y585646D01*
X773238Y585685D01*
X773103Y585727D01*
X772970Y585774D01*
X772838Y585824D01*
X772707Y585877D01*
X772578Y585934D01*
X772451Y585995D01*
X772325Y586059D01*
X772201Y586127D01*
X772079Y586198D01*
X771959Y586273D01*
X771841Y586351D01*
X771725Y586432D01*
X771612Y586516D01*
X771501Y586604D01*
X771393Y586694D01*
X771287Y586787D01*
X771184Y586884D01*
X771083Y586983D01*
X770985Y587085D01*
X770890Y587189D01*
X770798Y587297D01*
X770709Y587406D01*
X770624Y587519D01*
X770541Y587633D01*
X770461Y587750D01*
X770385Y587869D01*
X770312Y587990D01*
X770243Y588113D01*
X770177Y588237D01*
X770114Y588364D01*
X770055Y588492D01*
X770000Y588622D01*
X769948Y588754D01*
X769900Y588886D01*
X769856Y589021D01*
X769815Y589156D01*
X769778Y589292D01*
X769745Y589429D01*
X769716Y589568D01*
X769691Y589707D01*
X769669Y589846D01*
X769651Y589986D01*
X769638Y590127D01*
X769628Y590268D01*
X769622Y590409D01*
X769620Y590550D01*
D11*
X790702Y590550D02*
X790702Y501650D01*
D12*
X791845Y594995D02*
X791845Y606425D01*
X793115Y594995D02*
X790575Y594995D01*
X790575Y606425D02*
X793115Y606425D01*
X783373Y594995D02*
X780833Y594995D01*
X783373Y594995D02*
X783473Y594997D01*
X783572Y595003D01*
X783672Y595013D01*
X783770Y595026D01*
X783869Y595044D01*
X783966Y595065D01*
X784062Y595090D01*
X784158Y595119D01*
X784252Y595152D01*
X784345Y595188D01*
X784436Y595228D01*
X784526Y595272D01*
X784614Y595319D01*
X784700Y595369D01*
X784784Y595423D01*
X784866Y595480D01*
X784945Y595540D01*
X785023Y595604D01*
X785097Y595670D01*
X785169Y595739D01*
X785238Y595811D01*
X785304Y595885D01*
X785368Y595963D01*
X785428Y596042D01*
X785485Y596124D01*
X785539Y596208D01*
X785589Y596294D01*
X785636Y596382D01*
X785680Y596472D01*
X785720Y596563D01*
X785756Y596656D01*
X785789Y596750D01*
X785818Y596846D01*
X785843Y596942D01*
X785864Y597039D01*
X785882Y597138D01*
X785895Y597236D01*
X785905Y597336D01*
X785911Y597435D01*
X785913Y597535D01*
X785913Y603885D01*
X785911Y603985D01*
X785905Y604084D01*
X785895Y604184D01*
X785882Y604282D01*
X785864Y604381D01*
X785843Y604478D01*
X785818Y604574D01*
X785789Y604670D01*
X785756Y604764D01*
X785720Y604857D01*
X785680Y604948D01*
X785636Y605038D01*
X785589Y605126D01*
X785539Y605212D01*
X785485Y605296D01*
X785428Y605378D01*
X785368Y605457D01*
X785304Y605535D01*
X785238Y605609D01*
X785169Y605681D01*
X785097Y605750D01*
X785023Y605816D01*
X784945Y605880D01*
X784866Y605940D01*
X784784Y605997D01*
X784700Y606051D01*
X784614Y606101D01*
X784526Y606148D01*
X784436Y606192D01*
X784345Y606232D01*
X784252Y606268D01*
X784158Y606301D01*
X784062Y606330D01*
X783966Y606355D01*
X783869Y606376D01*
X783770Y606394D01*
X783672Y606407D01*
X783572Y606417D01*
X783473Y606423D01*
X783373Y606425D01*
X780833Y606425D01*
X776351Y603885D02*
X773176Y606425D01*
X773176Y594995D01*
X776351Y594995D02*
X770001Y594995D01*
X764921Y603885D02*
X761746Y606425D01*
X761746Y594995D01*
X764921Y594995D02*
X758571Y594995D01*
X780415Y503809D02*
X781685Y503809D01*
X781685Y510159D01*
X770255Y506984D01*
X772795Y515239D02*
X781685Y517779D01*
X772795Y515239D02*
X772795Y521589D01*
X775335Y519684D02*
X770255Y519684D01*
X770255Y526034D02*
X781685Y529844D01*
X770255Y533654D01*
X773113Y532702D02*
X773113Y526987D01*
X770255Y540602D02*
X770255Y543142D01*
X770255Y540602D02*
X770257Y540502D01*
X770263Y540403D01*
X770273Y540303D01*
X770286Y540205D01*
X770304Y540106D01*
X770325Y540009D01*
X770350Y539913D01*
X770379Y539817D01*
X770412Y539723D01*
X770448Y539630D01*
X770488Y539539D01*
X770532Y539449D01*
X770579Y539361D01*
X770629Y539275D01*
X770683Y539191D01*
X770740Y539109D01*
X770800Y539030D01*
X770864Y538952D01*
X770930Y538878D01*
X770999Y538806D01*
X771071Y538737D01*
X771145Y538671D01*
X771223Y538607D01*
X771302Y538547D01*
X771384Y538490D01*
X771468Y538436D01*
X771554Y538386D01*
X771642Y538339D01*
X771732Y538295D01*
X771823Y538255D01*
X771916Y538219D01*
X772010Y538186D01*
X772106Y538157D01*
X772202Y538132D01*
X772299Y538111D01*
X772398Y538093D01*
X772496Y538080D01*
X772596Y538070D01*
X772695Y538064D01*
X772795Y538062D01*
X779145Y538062D01*
X779245Y538064D01*
X779344Y538070D01*
X779444Y538080D01*
X779542Y538093D01*
X779641Y538111D01*
X779738Y538132D01*
X779834Y538157D01*
X779930Y538186D01*
X780024Y538219D01*
X780117Y538255D01*
X780208Y538295D01*
X780298Y538339D01*
X780386Y538386D01*
X780472Y538436D01*
X780556Y538490D01*
X780638Y538547D01*
X780717Y538607D01*
X780795Y538671D01*
X780869Y538737D01*
X780941Y538806D01*
X781010Y538878D01*
X781076Y538952D01*
X781140Y539030D01*
X781200Y539109D01*
X781257Y539191D01*
X781311Y539275D01*
X781361Y539361D01*
X781408Y539449D01*
X781452Y539539D01*
X781492Y539630D01*
X781528Y539723D01*
X781561Y539817D01*
X781590Y539913D01*
X781615Y540009D01*
X781636Y540106D01*
X781654Y540205D01*
X781667Y540303D01*
X781677Y540403D01*
X781683Y540502D01*
X781685Y540602D01*
X781685Y543142D01*
X781685Y547624D02*
X780415Y547624D01*
X781685Y547624D02*
X781685Y553974D01*
X770255Y550799D01*
X772795Y559054D02*
X781685Y561594D01*
X772795Y559054D02*
X772795Y565404D01*
X775335Y563499D02*
X770255Y563499D01*
X770255Y570865D02*
X781685Y570865D01*
X781685Y574040D01*
X781683Y574151D01*
X781677Y574261D01*
X781668Y574372D01*
X781654Y574482D01*
X781637Y574591D01*
X781616Y574700D01*
X781591Y574808D01*
X781562Y574915D01*
X781530Y575021D01*
X781494Y575126D01*
X781454Y575229D01*
X781411Y575331D01*
X781364Y575432D01*
X781313Y575531D01*
X781260Y575628D01*
X781203Y575722D01*
X781142Y575815D01*
X781079Y575906D01*
X781012Y575995D01*
X780942Y576081D01*
X780869Y576164D01*
X780794Y576246D01*
X780716Y576324D01*
X780634Y576399D01*
X780551Y576472D01*
X780465Y576542D01*
X780376Y576609D01*
X780285Y576672D01*
X780192Y576733D01*
X780098Y576790D01*
X780001Y576843D01*
X779902Y576894D01*
X779801Y576941D01*
X779699Y576984D01*
X779596Y577024D01*
X779491Y577060D01*
X779385Y577092D01*
X779278Y577121D01*
X779170Y577146D01*
X779061Y577167D01*
X778952Y577184D01*
X778842Y577198D01*
X778731Y577207D01*
X778621Y577213D01*
X778510Y577215D01*
X773430Y577215D01*
X773319Y577213D01*
X773209Y577207D01*
X773098Y577198D01*
X772988Y577184D01*
X772879Y577167D01*
X772770Y577146D01*
X772662Y577121D01*
X772555Y577092D01*
X772449Y577060D01*
X772344Y577024D01*
X772241Y576984D01*
X772139Y576941D01*
X772038Y576894D01*
X771939Y576843D01*
X771843Y576790D01*
X771748Y576733D01*
X771655Y576672D01*
X771564Y576609D01*
X771475Y576542D01*
X771389Y576472D01*
X771306Y576399D01*
X771224Y576324D01*
X771146Y576246D01*
X771071Y576164D01*
X770998Y576081D01*
X770928Y575995D01*
X770861Y575906D01*
X770798Y575815D01*
X770737Y575722D01*
X770680Y575628D01*
X770627Y575531D01*
X770576Y575432D01*
X770529Y575331D01*
X770486Y575229D01*
X770446Y575126D01*
X770410Y575021D01*
X770378Y574915D01*
X770349Y574808D01*
X770324Y574700D01*
X770303Y574591D01*
X770286Y574482D01*
X770272Y574372D01*
X770263Y574261D01*
X770257Y574151D01*
X770255Y574040D01*
X770255Y570865D01*
D10*
X565658Y365760D02*
X565656Y365638D01*
X565650Y365516D01*
X565640Y365394D01*
X565627Y365273D01*
X565609Y365152D01*
X565588Y365032D01*
X565562Y364912D01*
X565533Y364794D01*
X565501Y364676D01*
X565464Y364559D01*
X565424Y364444D01*
X565380Y364330D01*
X565332Y364218D01*
X565281Y364107D01*
X565226Y363998D01*
X565168Y363890D01*
X565106Y363785D01*
X565041Y363682D01*
X564973Y363580D01*
X564901Y363481D01*
X564827Y363385D01*
X564749Y363290D01*
X564668Y363199D01*
X564585Y363109D01*
X564499Y363023D01*
X564409Y362940D01*
X564318Y362859D01*
X564223Y362781D01*
X564127Y362707D01*
X564028Y362635D01*
X563926Y362567D01*
X563823Y362502D01*
X563718Y362440D01*
X563610Y362382D01*
X563501Y362327D01*
X563390Y362276D01*
X563278Y362228D01*
X563164Y362184D01*
X563049Y362144D01*
X562932Y362107D01*
X562814Y362075D01*
X562696Y362046D01*
X562576Y362020D01*
X562456Y361999D01*
X562335Y361981D01*
X562214Y361968D01*
X562092Y361958D01*
X561970Y361952D01*
X561848Y361950D01*
X526542Y447040D02*
X526544Y447162D01*
X526550Y447284D01*
X526560Y447406D01*
X526573Y447527D01*
X526591Y447648D01*
X526612Y447768D01*
X526638Y447888D01*
X526667Y448006D01*
X526699Y448124D01*
X526736Y448241D01*
X526776Y448356D01*
X526820Y448470D01*
X526868Y448582D01*
X526919Y448693D01*
X526974Y448802D01*
X527032Y448910D01*
X527094Y449015D01*
X527159Y449118D01*
X527227Y449220D01*
X527299Y449319D01*
X527373Y449415D01*
X527451Y449510D01*
X527532Y449601D01*
X527615Y449691D01*
X527701Y449777D01*
X527791Y449860D01*
X527882Y449941D01*
X527977Y450019D01*
X528073Y450093D01*
X528172Y450165D01*
X528274Y450233D01*
X528377Y450298D01*
X528482Y450360D01*
X528590Y450418D01*
X528699Y450473D01*
X528810Y450524D01*
X528922Y450572D01*
X529036Y450616D01*
X529151Y450656D01*
X529268Y450693D01*
X529386Y450725D01*
X529504Y450754D01*
X529624Y450780D01*
X529744Y450801D01*
X529865Y450819D01*
X529986Y450832D01*
X530108Y450842D01*
X530230Y450848D01*
X530352Y450850D01*
X526542Y365760D02*
X526544Y365638D01*
X526550Y365516D01*
X526560Y365394D01*
X526573Y365273D01*
X526591Y365152D01*
X526612Y365032D01*
X526638Y364912D01*
X526667Y364794D01*
X526699Y364676D01*
X526736Y364559D01*
X526776Y364444D01*
X526820Y364330D01*
X526868Y364218D01*
X526919Y364107D01*
X526974Y363998D01*
X527032Y363890D01*
X527094Y363785D01*
X527159Y363682D01*
X527227Y363580D01*
X527299Y363481D01*
X527373Y363385D01*
X527451Y363290D01*
X527532Y363199D01*
X527615Y363109D01*
X527701Y363023D01*
X527791Y362940D01*
X527882Y362859D01*
X527977Y362781D01*
X528073Y362707D01*
X528172Y362635D01*
X528274Y362567D01*
X528377Y362502D01*
X528482Y362440D01*
X528590Y362382D01*
X528699Y362327D01*
X528810Y362276D01*
X528922Y362228D01*
X529036Y362184D01*
X529151Y362144D01*
X529268Y362107D01*
X529386Y362075D01*
X529504Y362046D01*
X529624Y362020D01*
X529744Y361999D01*
X529865Y361981D01*
X529986Y361968D01*
X530108Y361958D01*
X530230Y361952D01*
X530352Y361950D01*
X565658Y447040D02*
X565656Y447162D01*
X565650Y447284D01*
X565640Y447406D01*
X565627Y447527D01*
X565609Y447648D01*
X565588Y447768D01*
X565562Y447888D01*
X565533Y448006D01*
X565501Y448124D01*
X565464Y448241D01*
X565424Y448356D01*
X565380Y448470D01*
X565332Y448582D01*
X565281Y448693D01*
X565226Y448802D01*
X565168Y448910D01*
X565106Y449015D01*
X565041Y449118D01*
X564973Y449220D01*
X564901Y449319D01*
X564827Y449415D01*
X564749Y449510D01*
X564668Y449601D01*
X564585Y449691D01*
X564499Y449777D01*
X564409Y449860D01*
X564318Y449941D01*
X564223Y450019D01*
X564127Y450093D01*
X564028Y450165D01*
X563926Y450233D01*
X563823Y450298D01*
X563718Y450360D01*
X563610Y450418D01*
X563501Y450473D01*
X563390Y450524D01*
X563278Y450572D01*
X563164Y450616D01*
X563049Y450656D01*
X562932Y450693D01*
X562814Y450725D01*
X562696Y450754D01*
X562576Y450780D01*
X562456Y450801D01*
X562335Y450819D01*
X562214Y450832D01*
X562092Y450842D01*
X561970Y450848D01*
X561848Y450850D01*
X561848Y361950D02*
X530352Y361950D01*
X530352Y450850D02*
X541020Y450850D01*
X551180Y450850D01*
X561848Y450850D01*
X551180Y450850D02*
X551178Y450709D01*
X551172Y450568D01*
X551162Y450427D01*
X551149Y450286D01*
X551131Y450146D01*
X551109Y450007D01*
X551084Y449868D01*
X551055Y449729D01*
X551022Y449592D01*
X550985Y449456D01*
X550944Y449321D01*
X550900Y449186D01*
X550852Y449054D01*
X550800Y448922D01*
X550745Y448792D01*
X550686Y448664D01*
X550623Y448537D01*
X550557Y448413D01*
X550488Y448290D01*
X550415Y448169D01*
X550339Y448050D01*
X550259Y447933D01*
X550176Y447819D01*
X550091Y447706D01*
X550002Y447597D01*
X549910Y447489D01*
X549815Y447385D01*
X549717Y447283D01*
X549616Y447184D01*
X549513Y447087D01*
X549407Y446994D01*
X549299Y446904D01*
X549188Y446816D01*
X549075Y446732D01*
X548959Y446651D01*
X548841Y446573D01*
X548721Y446498D01*
X548599Y446427D01*
X548475Y446359D01*
X548349Y446295D01*
X548222Y446234D01*
X548093Y446177D01*
X547962Y446124D01*
X547830Y446074D01*
X547697Y446027D01*
X547562Y445985D01*
X547426Y445946D01*
X547289Y445911D01*
X547152Y445880D01*
X547013Y445853D01*
X546874Y445829D01*
X546734Y445810D01*
X546594Y445794D01*
X546453Y445782D01*
X546312Y445774D01*
X546171Y445770D01*
X546029Y445770D01*
X545888Y445774D01*
X545747Y445782D01*
X545606Y445794D01*
X545466Y445810D01*
X545326Y445829D01*
X545187Y445853D01*
X545048Y445880D01*
X544911Y445911D01*
X544774Y445946D01*
X544638Y445985D01*
X544503Y446027D01*
X544370Y446074D01*
X544238Y446124D01*
X544107Y446177D01*
X543978Y446234D01*
X543851Y446295D01*
X543725Y446359D01*
X543601Y446427D01*
X543479Y446498D01*
X543359Y446573D01*
X543241Y446651D01*
X543125Y446732D01*
X543012Y446816D01*
X542901Y446904D01*
X542793Y446994D01*
X542687Y447087D01*
X542584Y447184D01*
X542483Y447283D01*
X542385Y447385D01*
X542290Y447489D01*
X542198Y447597D01*
X542109Y447706D01*
X542024Y447819D01*
X541941Y447933D01*
X541861Y448050D01*
X541785Y448169D01*
X541712Y448290D01*
X541643Y448413D01*
X541577Y448537D01*
X541514Y448664D01*
X541455Y448792D01*
X541400Y448922D01*
X541348Y449054D01*
X541300Y449186D01*
X541256Y449321D01*
X541215Y449456D01*
X541178Y449592D01*
X541145Y449729D01*
X541116Y449868D01*
X541091Y450007D01*
X541069Y450146D01*
X541051Y450286D01*
X541038Y450427D01*
X541028Y450568D01*
X541022Y450709D01*
X541020Y450850D01*
D11*
X562102Y450850D02*
X562102Y361950D01*
D12*
X563245Y455295D02*
X563245Y466725D01*
X564515Y455295D02*
X561975Y455295D01*
X561975Y466725D02*
X564515Y466725D01*
X554773Y455295D02*
X552233Y455295D01*
X554773Y455295D02*
X554873Y455297D01*
X554972Y455303D01*
X555072Y455313D01*
X555170Y455326D01*
X555269Y455344D01*
X555366Y455365D01*
X555462Y455390D01*
X555558Y455419D01*
X555652Y455452D01*
X555745Y455488D01*
X555836Y455528D01*
X555926Y455572D01*
X556014Y455619D01*
X556100Y455669D01*
X556184Y455723D01*
X556266Y455780D01*
X556345Y455840D01*
X556423Y455904D01*
X556497Y455970D01*
X556569Y456039D01*
X556638Y456111D01*
X556704Y456185D01*
X556768Y456263D01*
X556828Y456342D01*
X556885Y456424D01*
X556939Y456508D01*
X556989Y456594D01*
X557036Y456682D01*
X557080Y456772D01*
X557120Y456863D01*
X557156Y456956D01*
X557189Y457050D01*
X557218Y457146D01*
X557243Y457242D01*
X557264Y457339D01*
X557282Y457438D01*
X557295Y457536D01*
X557305Y457636D01*
X557311Y457735D01*
X557313Y457835D01*
X557313Y464185D01*
X557311Y464285D01*
X557305Y464384D01*
X557295Y464484D01*
X557282Y464582D01*
X557264Y464681D01*
X557243Y464778D01*
X557218Y464874D01*
X557189Y464970D01*
X557156Y465064D01*
X557120Y465157D01*
X557080Y465248D01*
X557036Y465338D01*
X556989Y465426D01*
X556939Y465512D01*
X556885Y465596D01*
X556828Y465678D01*
X556768Y465757D01*
X556704Y465835D01*
X556638Y465909D01*
X556569Y465981D01*
X556497Y466050D01*
X556423Y466116D01*
X556345Y466180D01*
X556266Y466240D01*
X556184Y466297D01*
X556100Y466351D01*
X556014Y466401D01*
X555926Y466448D01*
X555836Y466492D01*
X555745Y466532D01*
X555652Y466568D01*
X555558Y466601D01*
X555462Y466630D01*
X555366Y466655D01*
X555269Y466676D01*
X555170Y466694D01*
X555072Y466707D01*
X554972Y466717D01*
X554873Y466723D01*
X554773Y466725D01*
X552233Y466725D01*
X547751Y464185D02*
X544576Y466725D01*
X544576Y455295D01*
X547751Y455295D02*
X541401Y455295D01*
X529971Y463868D02*
X529973Y463972D01*
X529979Y464077D01*
X529988Y464181D01*
X530001Y464284D01*
X530019Y464387D01*
X530039Y464489D01*
X530064Y464591D01*
X530092Y464691D01*
X530124Y464791D01*
X530160Y464889D01*
X530199Y464986D01*
X530241Y465081D01*
X530287Y465175D01*
X530337Y465267D01*
X530389Y465357D01*
X530445Y465445D01*
X530505Y465531D01*
X530567Y465615D01*
X530632Y465696D01*
X530700Y465775D01*
X530772Y465852D01*
X530845Y465925D01*
X530922Y465997D01*
X531001Y466065D01*
X531082Y466130D01*
X531166Y466192D01*
X531252Y466252D01*
X531340Y466308D01*
X531430Y466360D01*
X531522Y466410D01*
X531616Y466456D01*
X531711Y466498D01*
X531808Y466537D01*
X531906Y466573D01*
X532006Y466605D01*
X532106Y466633D01*
X532208Y466658D01*
X532310Y466678D01*
X532413Y466696D01*
X532516Y466709D01*
X532620Y466718D01*
X532725Y466724D01*
X532829Y466726D01*
X532829Y466725D02*
X532947Y466723D01*
X533066Y466717D01*
X533184Y466708D01*
X533301Y466695D01*
X533418Y466677D01*
X533535Y466657D01*
X533651Y466632D01*
X533766Y466604D01*
X533879Y466571D01*
X533992Y466536D01*
X534104Y466496D01*
X534214Y466454D01*
X534323Y466407D01*
X534431Y466357D01*
X534536Y466304D01*
X534640Y466247D01*
X534742Y466187D01*
X534842Y466124D01*
X534940Y466057D01*
X535036Y465988D01*
X535129Y465915D01*
X535220Y465839D01*
X535309Y465761D01*
X535395Y465679D01*
X535478Y465595D01*
X535559Y465509D01*
X535636Y465419D01*
X535711Y465328D01*
X535783Y465234D01*
X535852Y465137D01*
X535917Y465039D01*
X535980Y464938D01*
X536039Y464835D01*
X536095Y464731D01*
X536147Y464625D01*
X536196Y464517D01*
X536241Y464408D01*
X536283Y464297D01*
X536321Y464185D01*
X530923Y461646D02*
X530847Y461721D01*
X530772Y461800D01*
X530701Y461881D01*
X530632Y461965D01*
X530567Y462051D01*
X530505Y462139D01*
X530445Y462229D01*
X530389Y462321D01*
X530336Y462416D01*
X530287Y462512D01*
X530241Y462610D01*
X530198Y462709D01*
X530159Y462810D01*
X530124Y462912D01*
X530092Y463015D01*
X530064Y463119D01*
X530039Y463224D01*
X530018Y463331D01*
X530001Y463437D01*
X529988Y463544D01*
X529979Y463652D01*
X529973Y463760D01*
X529971Y463868D01*
X530924Y461645D02*
X536321Y455295D01*
X529971Y455295D01*
X551815Y364109D02*
X553085Y364109D01*
X553085Y370459D01*
X541655Y367284D01*
X544195Y375539D02*
X553085Y378079D01*
X544195Y375539D02*
X544195Y381889D01*
X546735Y379984D02*
X541655Y379984D01*
X541655Y386334D02*
X553085Y390144D01*
X541655Y393954D01*
X544513Y393002D02*
X544513Y387287D01*
X541655Y400902D02*
X541655Y403442D01*
X541655Y400902D02*
X541657Y400802D01*
X541663Y400703D01*
X541673Y400603D01*
X541686Y400505D01*
X541704Y400406D01*
X541725Y400309D01*
X541750Y400213D01*
X541779Y400117D01*
X541812Y400023D01*
X541848Y399930D01*
X541888Y399839D01*
X541932Y399749D01*
X541979Y399661D01*
X542029Y399575D01*
X542083Y399491D01*
X542140Y399409D01*
X542200Y399330D01*
X542264Y399252D01*
X542330Y399178D01*
X542399Y399106D01*
X542471Y399037D01*
X542545Y398971D01*
X542623Y398907D01*
X542702Y398847D01*
X542784Y398790D01*
X542868Y398736D01*
X542954Y398686D01*
X543042Y398639D01*
X543132Y398595D01*
X543223Y398555D01*
X543316Y398519D01*
X543410Y398486D01*
X543506Y398457D01*
X543602Y398432D01*
X543699Y398411D01*
X543798Y398393D01*
X543896Y398380D01*
X543996Y398370D01*
X544095Y398364D01*
X544195Y398362D01*
X550545Y398362D01*
X550645Y398364D01*
X550744Y398370D01*
X550844Y398380D01*
X550942Y398393D01*
X551041Y398411D01*
X551138Y398432D01*
X551234Y398457D01*
X551330Y398486D01*
X551424Y398519D01*
X551517Y398555D01*
X551608Y398595D01*
X551698Y398639D01*
X551786Y398686D01*
X551872Y398736D01*
X551956Y398790D01*
X552038Y398847D01*
X552117Y398907D01*
X552195Y398971D01*
X552269Y399037D01*
X552341Y399106D01*
X552410Y399178D01*
X552476Y399252D01*
X552540Y399330D01*
X552600Y399409D01*
X552657Y399491D01*
X552711Y399575D01*
X552761Y399661D01*
X552808Y399749D01*
X552852Y399839D01*
X552892Y399930D01*
X552928Y400023D01*
X552961Y400117D01*
X552990Y400213D01*
X553015Y400309D01*
X553036Y400406D01*
X553054Y400505D01*
X553067Y400603D01*
X553077Y400703D01*
X553083Y400802D01*
X553085Y400902D01*
X553085Y403442D01*
X553086Y411417D02*
X553084Y411521D01*
X553078Y411626D01*
X553069Y411730D01*
X553056Y411833D01*
X553038Y411936D01*
X553018Y412038D01*
X552993Y412140D01*
X552965Y412240D01*
X552933Y412340D01*
X552897Y412438D01*
X552858Y412535D01*
X552816Y412630D01*
X552770Y412724D01*
X552720Y412816D01*
X552668Y412906D01*
X552612Y412994D01*
X552552Y413080D01*
X552490Y413164D01*
X552425Y413245D01*
X552357Y413324D01*
X552285Y413401D01*
X552212Y413474D01*
X552135Y413546D01*
X552056Y413614D01*
X551975Y413679D01*
X551891Y413741D01*
X551805Y413801D01*
X551717Y413857D01*
X551627Y413909D01*
X551535Y413959D01*
X551441Y414005D01*
X551346Y414047D01*
X551249Y414086D01*
X551151Y414122D01*
X551051Y414154D01*
X550951Y414182D01*
X550849Y414207D01*
X550747Y414227D01*
X550644Y414245D01*
X550541Y414258D01*
X550437Y414267D01*
X550332Y414273D01*
X550228Y414275D01*
X553085Y411417D02*
X553083Y411299D01*
X553077Y411180D01*
X553068Y411062D01*
X553055Y410945D01*
X553037Y410828D01*
X553017Y410711D01*
X552992Y410595D01*
X552964Y410480D01*
X552931Y410367D01*
X552896Y410254D01*
X552856Y410142D01*
X552814Y410032D01*
X552767Y409923D01*
X552717Y409815D01*
X552664Y409710D01*
X552607Y409606D01*
X552547Y409504D01*
X552484Y409404D01*
X552417Y409306D01*
X552348Y409210D01*
X552275Y409117D01*
X552199Y409026D01*
X552121Y408937D01*
X552039Y408851D01*
X551955Y408768D01*
X551869Y408687D01*
X551779Y408610D01*
X551688Y408535D01*
X551594Y408463D01*
X551497Y408394D01*
X551399Y408329D01*
X551298Y408266D01*
X551195Y408207D01*
X551091Y408151D01*
X550985Y408099D01*
X550877Y408050D01*
X550768Y408005D01*
X550657Y407963D01*
X550545Y407925D01*
X548006Y413322D02*
X548081Y413398D01*
X548160Y413473D01*
X548241Y413544D01*
X548325Y413613D01*
X548411Y413678D01*
X548499Y413740D01*
X548589Y413800D01*
X548681Y413856D01*
X548776Y413909D01*
X548872Y413958D01*
X548970Y414004D01*
X549069Y414047D01*
X549170Y414086D01*
X549272Y414121D01*
X549375Y414153D01*
X549479Y414181D01*
X549584Y414206D01*
X549691Y414227D01*
X549797Y414244D01*
X549904Y414257D01*
X550012Y414266D01*
X550120Y414272D01*
X550228Y414274D01*
X548005Y413322D02*
X541655Y407924D01*
X541655Y414274D01*
X550545Y419354D02*
X553085Y422529D01*
X541655Y422529D01*
X541655Y419354D02*
X541655Y425704D01*
X541655Y431165D02*
X553085Y431165D01*
X553085Y434340D01*
X553083Y434451D01*
X553077Y434561D01*
X553068Y434672D01*
X553054Y434782D01*
X553037Y434891D01*
X553016Y435000D01*
X552991Y435108D01*
X552962Y435215D01*
X552930Y435321D01*
X552894Y435426D01*
X552854Y435529D01*
X552811Y435631D01*
X552764Y435732D01*
X552713Y435831D01*
X552660Y435928D01*
X552603Y436022D01*
X552542Y436115D01*
X552479Y436206D01*
X552412Y436295D01*
X552342Y436381D01*
X552269Y436464D01*
X552194Y436546D01*
X552116Y436624D01*
X552034Y436699D01*
X551951Y436772D01*
X551865Y436842D01*
X551776Y436909D01*
X551685Y436972D01*
X551592Y437033D01*
X551498Y437090D01*
X551401Y437143D01*
X551302Y437194D01*
X551201Y437241D01*
X551099Y437284D01*
X550996Y437324D01*
X550891Y437360D01*
X550785Y437392D01*
X550678Y437421D01*
X550570Y437446D01*
X550461Y437467D01*
X550352Y437484D01*
X550242Y437498D01*
X550131Y437507D01*
X550021Y437513D01*
X549910Y437515D01*
X544830Y437515D01*
X544719Y437513D01*
X544609Y437507D01*
X544498Y437498D01*
X544388Y437484D01*
X544279Y437467D01*
X544170Y437446D01*
X544062Y437421D01*
X543955Y437392D01*
X543849Y437360D01*
X543744Y437324D01*
X543641Y437284D01*
X543539Y437241D01*
X543438Y437194D01*
X543339Y437143D01*
X543243Y437090D01*
X543148Y437033D01*
X543055Y436972D01*
X542964Y436909D01*
X542875Y436842D01*
X542789Y436772D01*
X542706Y436699D01*
X542624Y436624D01*
X542546Y436546D01*
X542471Y436464D01*
X542398Y436381D01*
X542328Y436295D01*
X542261Y436206D01*
X542198Y436115D01*
X542137Y436022D01*
X542080Y435928D01*
X542027Y435831D01*
X541976Y435732D01*
X541929Y435631D01*
X541886Y435529D01*
X541846Y435426D01*
X541810Y435321D01*
X541778Y435215D01*
X541749Y435108D01*
X541724Y435000D01*
X541703Y434891D01*
X541686Y434782D01*
X541672Y434672D01*
X541663Y434561D01*
X541657Y434451D01*
X541655Y434340D01*
X541655Y431165D01*
D10*
X526542Y619760D02*
X526542Y701040D01*
X565658Y619760D02*
X565656Y619638D01*
X565650Y619516D01*
X565640Y619394D01*
X565627Y619273D01*
X565609Y619152D01*
X565588Y619032D01*
X565562Y618912D01*
X565533Y618794D01*
X565501Y618676D01*
X565464Y618559D01*
X565424Y618444D01*
X565380Y618330D01*
X565332Y618218D01*
X565281Y618107D01*
X565226Y617998D01*
X565168Y617890D01*
X565106Y617785D01*
X565041Y617682D01*
X564973Y617580D01*
X564901Y617481D01*
X564827Y617385D01*
X564749Y617290D01*
X564668Y617199D01*
X564585Y617109D01*
X564499Y617023D01*
X564409Y616940D01*
X564318Y616859D01*
X564223Y616781D01*
X564127Y616707D01*
X564028Y616635D01*
X563926Y616567D01*
X563823Y616502D01*
X563718Y616440D01*
X563610Y616382D01*
X563501Y616327D01*
X563390Y616276D01*
X563278Y616228D01*
X563164Y616184D01*
X563049Y616144D01*
X562932Y616107D01*
X562814Y616075D01*
X562696Y616046D01*
X562576Y616020D01*
X562456Y615999D01*
X562335Y615981D01*
X562214Y615968D01*
X562092Y615958D01*
X561970Y615952D01*
X561848Y615950D01*
X526542Y701040D02*
X526544Y701162D01*
X526550Y701284D01*
X526560Y701406D01*
X526573Y701527D01*
X526591Y701648D01*
X526612Y701768D01*
X526638Y701888D01*
X526667Y702006D01*
X526699Y702124D01*
X526736Y702241D01*
X526776Y702356D01*
X526820Y702470D01*
X526868Y702582D01*
X526919Y702693D01*
X526974Y702802D01*
X527032Y702910D01*
X527094Y703015D01*
X527159Y703118D01*
X527227Y703220D01*
X527299Y703319D01*
X527373Y703415D01*
X527451Y703510D01*
X527532Y703601D01*
X527615Y703691D01*
X527701Y703777D01*
X527791Y703860D01*
X527882Y703941D01*
X527977Y704019D01*
X528073Y704093D01*
X528172Y704165D01*
X528274Y704233D01*
X528377Y704298D01*
X528482Y704360D01*
X528590Y704418D01*
X528699Y704473D01*
X528810Y704524D01*
X528922Y704572D01*
X529036Y704616D01*
X529151Y704656D01*
X529268Y704693D01*
X529386Y704725D01*
X529504Y704754D01*
X529624Y704780D01*
X529744Y704801D01*
X529865Y704819D01*
X529986Y704832D01*
X530108Y704842D01*
X530230Y704848D01*
X530352Y704850D01*
X526542Y619760D02*
X526544Y619638D01*
X526550Y619516D01*
X526560Y619394D01*
X526573Y619273D01*
X526591Y619152D01*
X526612Y619032D01*
X526638Y618912D01*
X526667Y618794D01*
X526699Y618676D01*
X526736Y618559D01*
X526776Y618444D01*
X526820Y618330D01*
X526868Y618218D01*
X526919Y618107D01*
X526974Y617998D01*
X527032Y617890D01*
X527094Y617785D01*
X527159Y617682D01*
X527227Y617580D01*
X527299Y617481D01*
X527373Y617385D01*
X527451Y617290D01*
X527532Y617199D01*
X527615Y617109D01*
X527701Y617023D01*
X527791Y616940D01*
X527882Y616859D01*
X527977Y616781D01*
X528073Y616707D01*
X528172Y616635D01*
X528274Y616567D01*
X528377Y616502D01*
X528482Y616440D01*
X528590Y616382D01*
X528699Y616327D01*
X528810Y616276D01*
X528922Y616228D01*
X529036Y616184D01*
X529151Y616144D01*
X529268Y616107D01*
X529386Y616075D01*
X529504Y616046D01*
X529624Y616020D01*
X529744Y615999D01*
X529865Y615981D01*
X529986Y615968D01*
X530108Y615958D01*
X530230Y615952D01*
X530352Y615950D01*
X565658Y701040D02*
X565656Y701162D01*
X565650Y701284D01*
X565640Y701406D01*
X565627Y701527D01*
X565609Y701648D01*
X565588Y701768D01*
X565562Y701888D01*
X565533Y702006D01*
X565501Y702124D01*
X565464Y702241D01*
X565424Y702356D01*
X565380Y702470D01*
X565332Y702582D01*
X565281Y702693D01*
X565226Y702802D01*
X565168Y702910D01*
X565106Y703015D01*
X565041Y703118D01*
X564973Y703220D01*
X564901Y703319D01*
X564827Y703415D01*
X564749Y703510D01*
X564668Y703601D01*
X564585Y703691D01*
X564499Y703777D01*
X564409Y703860D01*
X564318Y703941D01*
X564223Y704019D01*
X564127Y704093D01*
X564028Y704165D01*
X563926Y704233D01*
X563823Y704298D01*
X563718Y704360D01*
X563610Y704418D01*
X563501Y704473D01*
X563390Y704524D01*
X563278Y704572D01*
X563164Y704616D01*
X563049Y704656D01*
X562932Y704693D01*
X562814Y704725D01*
X562696Y704754D01*
X562576Y704780D01*
X562456Y704801D01*
X562335Y704819D01*
X562214Y704832D01*
X562092Y704842D01*
X561970Y704848D01*
X561848Y704850D01*
X565658Y701040D02*
X565658Y619760D01*
X561848Y615950D02*
X530352Y615950D01*
X530352Y704850D02*
X541020Y704850D01*
X551180Y704850D01*
X561848Y704850D01*
X551180Y704850D02*
X551178Y704709D01*
X551172Y704568D01*
X551162Y704427D01*
X551149Y704286D01*
X551131Y704146D01*
X551109Y704007D01*
X551084Y703868D01*
X551055Y703729D01*
X551022Y703592D01*
X550985Y703456D01*
X550944Y703321D01*
X550900Y703186D01*
X550852Y703054D01*
X550800Y702922D01*
X550745Y702792D01*
X550686Y702664D01*
X550623Y702537D01*
X550557Y702413D01*
X550488Y702290D01*
X550415Y702169D01*
X550339Y702050D01*
X550259Y701933D01*
X550176Y701819D01*
X550091Y701706D01*
X550002Y701597D01*
X549910Y701489D01*
X549815Y701385D01*
X549717Y701283D01*
X549616Y701184D01*
X549513Y701087D01*
X549407Y700994D01*
X549299Y700904D01*
X549188Y700816D01*
X549075Y700732D01*
X548959Y700651D01*
X548841Y700573D01*
X548721Y700498D01*
X548599Y700427D01*
X548475Y700359D01*
X548349Y700295D01*
X548222Y700234D01*
X548093Y700177D01*
X547962Y700124D01*
X547830Y700074D01*
X547697Y700027D01*
X547562Y699985D01*
X547426Y699946D01*
X547289Y699911D01*
X547152Y699880D01*
X547013Y699853D01*
X546874Y699829D01*
X546734Y699810D01*
X546594Y699794D01*
X546453Y699782D01*
X546312Y699774D01*
X546171Y699770D01*
X546029Y699770D01*
X545888Y699774D01*
X545747Y699782D01*
X545606Y699794D01*
X545466Y699810D01*
X545326Y699829D01*
X545187Y699853D01*
X545048Y699880D01*
X544911Y699911D01*
X544774Y699946D01*
X544638Y699985D01*
X544503Y700027D01*
X544370Y700074D01*
X544238Y700124D01*
X544107Y700177D01*
X543978Y700234D01*
X543851Y700295D01*
X543725Y700359D01*
X543601Y700427D01*
X543479Y700498D01*
X543359Y700573D01*
X543241Y700651D01*
X543125Y700732D01*
X543012Y700816D01*
X542901Y700904D01*
X542793Y700994D01*
X542687Y701087D01*
X542584Y701184D01*
X542483Y701283D01*
X542385Y701385D01*
X542290Y701489D01*
X542198Y701597D01*
X542109Y701706D01*
X542024Y701819D01*
X541941Y701933D01*
X541861Y702050D01*
X541785Y702169D01*
X541712Y702290D01*
X541643Y702413D01*
X541577Y702537D01*
X541514Y702664D01*
X541455Y702792D01*
X541400Y702922D01*
X541348Y703054D01*
X541300Y703186D01*
X541256Y703321D01*
X541215Y703456D01*
X541178Y703592D01*
X541145Y703729D01*
X541116Y703868D01*
X541091Y704007D01*
X541069Y704146D01*
X541051Y704286D01*
X541038Y704427D01*
X541028Y704568D01*
X541022Y704709D01*
X541020Y704850D01*
D11*
X562102Y704850D02*
X562102Y615950D01*
D12*
X561975Y708025D02*
X561975Y719455D01*
X563245Y708025D02*
X560705Y708025D01*
X560705Y719455D02*
X563245Y719455D01*
X553503Y708025D02*
X550963Y708025D01*
X553503Y708025D02*
X553603Y708027D01*
X553702Y708033D01*
X553802Y708043D01*
X553900Y708056D01*
X553999Y708074D01*
X554096Y708095D01*
X554192Y708120D01*
X554288Y708149D01*
X554382Y708182D01*
X554475Y708218D01*
X554566Y708258D01*
X554656Y708302D01*
X554744Y708349D01*
X554830Y708399D01*
X554914Y708453D01*
X554996Y708510D01*
X555075Y708570D01*
X555153Y708634D01*
X555227Y708700D01*
X555299Y708769D01*
X555368Y708841D01*
X555434Y708915D01*
X555498Y708993D01*
X555558Y709072D01*
X555615Y709154D01*
X555669Y709238D01*
X555719Y709324D01*
X555766Y709412D01*
X555810Y709502D01*
X555850Y709593D01*
X555886Y709686D01*
X555919Y709780D01*
X555948Y709876D01*
X555973Y709972D01*
X555994Y710069D01*
X556012Y710168D01*
X556025Y710266D01*
X556035Y710366D01*
X556041Y710465D01*
X556043Y710565D01*
X556043Y716915D01*
X556041Y717015D01*
X556035Y717114D01*
X556025Y717214D01*
X556012Y717312D01*
X555994Y717411D01*
X555973Y717508D01*
X555948Y717604D01*
X555919Y717700D01*
X555886Y717794D01*
X555850Y717887D01*
X555810Y717978D01*
X555766Y718068D01*
X555719Y718156D01*
X555669Y718242D01*
X555615Y718326D01*
X555558Y718408D01*
X555498Y718487D01*
X555434Y718565D01*
X555368Y718639D01*
X555299Y718711D01*
X555227Y718780D01*
X555153Y718846D01*
X555075Y718910D01*
X554996Y718970D01*
X554914Y719027D01*
X554830Y719081D01*
X554744Y719131D01*
X554656Y719178D01*
X554566Y719222D01*
X554475Y719262D01*
X554382Y719298D01*
X554288Y719331D01*
X554192Y719360D01*
X554096Y719385D01*
X553999Y719406D01*
X553900Y719424D01*
X553802Y719437D01*
X553702Y719447D01*
X553603Y719453D01*
X553503Y719455D01*
X550963Y719455D01*
X546481Y708025D02*
X543306Y708025D01*
X543195Y708027D01*
X543085Y708033D01*
X542974Y708042D01*
X542864Y708056D01*
X542755Y708073D01*
X542646Y708094D01*
X542538Y708119D01*
X542431Y708148D01*
X542325Y708180D01*
X542220Y708216D01*
X542117Y708256D01*
X542015Y708299D01*
X541914Y708346D01*
X541815Y708397D01*
X541719Y708450D01*
X541624Y708507D01*
X541531Y708568D01*
X541440Y708631D01*
X541351Y708698D01*
X541265Y708768D01*
X541182Y708841D01*
X541100Y708916D01*
X541022Y708994D01*
X540947Y709076D01*
X540874Y709159D01*
X540804Y709245D01*
X540737Y709334D01*
X540674Y709425D01*
X540613Y709518D01*
X540556Y709613D01*
X540503Y709709D01*
X540452Y709808D01*
X540405Y709909D01*
X540362Y710011D01*
X540322Y710114D01*
X540286Y710219D01*
X540254Y710325D01*
X540225Y710432D01*
X540200Y710540D01*
X540179Y710649D01*
X540162Y710758D01*
X540148Y710868D01*
X540139Y710979D01*
X540133Y711089D01*
X540131Y711200D01*
X540133Y711311D01*
X540139Y711421D01*
X540148Y711532D01*
X540162Y711642D01*
X540179Y711751D01*
X540200Y711860D01*
X540225Y711968D01*
X540254Y712075D01*
X540286Y712181D01*
X540322Y712286D01*
X540362Y712389D01*
X540405Y712491D01*
X540452Y712592D01*
X540503Y712691D01*
X540556Y712788D01*
X540613Y712882D01*
X540674Y712975D01*
X540737Y713066D01*
X540804Y713155D01*
X540874Y713241D01*
X540947Y713324D01*
X541022Y713406D01*
X541100Y713484D01*
X541182Y713559D01*
X541265Y713632D01*
X541351Y713702D01*
X541440Y713769D01*
X541531Y713832D01*
X541624Y713893D01*
X541719Y713950D01*
X541815Y714003D01*
X541914Y714054D01*
X542015Y714101D01*
X542117Y714144D01*
X542220Y714184D01*
X542325Y714220D01*
X542431Y714252D01*
X542538Y714281D01*
X542646Y714306D01*
X542755Y714327D01*
X542864Y714344D01*
X542974Y714358D01*
X543085Y714367D01*
X543195Y714373D01*
X543306Y714375D01*
X542671Y719455D02*
X546481Y719455D01*
X542671Y719455D02*
X542571Y719453D01*
X542472Y719447D01*
X542372Y719437D01*
X542274Y719424D01*
X542175Y719406D01*
X542078Y719385D01*
X541982Y719360D01*
X541886Y719331D01*
X541792Y719298D01*
X541699Y719262D01*
X541608Y719222D01*
X541518Y719178D01*
X541430Y719131D01*
X541344Y719081D01*
X541260Y719027D01*
X541178Y718970D01*
X541099Y718910D01*
X541021Y718846D01*
X540947Y718780D01*
X540875Y718711D01*
X540806Y718639D01*
X540740Y718565D01*
X540676Y718487D01*
X540616Y718408D01*
X540559Y718326D01*
X540505Y718242D01*
X540455Y718156D01*
X540408Y718068D01*
X540364Y717978D01*
X540324Y717887D01*
X540288Y717794D01*
X540255Y717700D01*
X540226Y717604D01*
X540201Y717508D01*
X540180Y717411D01*
X540162Y717312D01*
X540149Y717214D01*
X540139Y717114D01*
X540133Y717015D01*
X540131Y716915D01*
X540133Y716815D01*
X540139Y716716D01*
X540149Y716616D01*
X540162Y716518D01*
X540180Y716419D01*
X540201Y716322D01*
X540226Y716226D01*
X540255Y716130D01*
X540288Y716036D01*
X540324Y715943D01*
X540364Y715852D01*
X540408Y715762D01*
X540455Y715674D01*
X540505Y715588D01*
X540559Y715504D01*
X540616Y715422D01*
X540676Y715343D01*
X540740Y715265D01*
X540806Y715191D01*
X540875Y715119D01*
X540947Y715050D01*
X541021Y714984D01*
X541099Y714920D01*
X541178Y714860D01*
X541260Y714803D01*
X541344Y714749D01*
X541430Y714699D01*
X541518Y714652D01*
X541608Y714608D01*
X541699Y714568D01*
X541792Y714532D01*
X541886Y714499D01*
X541982Y714470D01*
X542078Y714445D01*
X542175Y714424D01*
X542274Y714406D01*
X542372Y714393D01*
X542472Y714383D01*
X542571Y714377D01*
X542671Y714375D01*
X545211Y714375D01*
X549275Y610870D02*
X550545Y610870D01*
X550545Y617220D01*
X539115Y614045D01*
X541655Y622300D02*
X550545Y624840D01*
X541655Y622300D02*
X541655Y628650D01*
X544195Y626745D02*
X539115Y626745D01*
X539115Y633095D02*
X550545Y636905D01*
X539115Y640715D01*
X541973Y639763D02*
X541973Y634048D01*
X539115Y645566D02*
X550545Y645566D01*
X539115Y645566D02*
X539115Y650646D01*
X539115Y658495D02*
X539117Y658595D01*
X539123Y658694D01*
X539133Y658794D01*
X539146Y658892D01*
X539164Y658991D01*
X539185Y659088D01*
X539210Y659184D01*
X539239Y659280D01*
X539272Y659374D01*
X539308Y659467D01*
X539348Y659558D01*
X539392Y659648D01*
X539439Y659736D01*
X539489Y659822D01*
X539543Y659906D01*
X539600Y659988D01*
X539660Y660067D01*
X539724Y660145D01*
X539790Y660219D01*
X539859Y660291D01*
X539931Y660360D01*
X540005Y660426D01*
X540083Y660490D01*
X540162Y660550D01*
X540244Y660607D01*
X540328Y660661D01*
X540414Y660711D01*
X540502Y660758D01*
X540592Y660802D01*
X540683Y660842D01*
X540776Y660878D01*
X540870Y660911D01*
X540966Y660940D01*
X541062Y660965D01*
X541159Y660986D01*
X541258Y661004D01*
X541356Y661017D01*
X541456Y661027D01*
X541555Y661033D01*
X541655Y661035D01*
X539115Y658495D02*
X539117Y658354D01*
X539122Y658213D01*
X539132Y658072D01*
X539145Y657931D01*
X539161Y657791D01*
X539182Y657651D01*
X539206Y657512D01*
X539234Y657373D01*
X539265Y657236D01*
X539300Y657099D01*
X539338Y656963D01*
X539380Y656828D01*
X539426Y656695D01*
X539475Y656562D01*
X539528Y656431D01*
X539584Y656302D01*
X539643Y656173D01*
X539706Y656047D01*
X539772Y655922D01*
X539841Y655799D01*
X539914Y655678D01*
X539990Y655559D01*
X540069Y655441D01*
X540150Y655326D01*
X540235Y655214D01*
X540323Y655103D01*
X540414Y654995D01*
X540507Y654889D01*
X540604Y654786D01*
X540703Y654685D01*
X548005Y655003D02*
X548105Y655005D01*
X548204Y655011D01*
X548304Y655021D01*
X548402Y655034D01*
X548501Y655052D01*
X548598Y655073D01*
X548694Y655098D01*
X548790Y655127D01*
X548884Y655160D01*
X548977Y655196D01*
X549068Y655236D01*
X549158Y655280D01*
X549246Y655327D01*
X549332Y655377D01*
X549416Y655431D01*
X549498Y655488D01*
X549577Y655548D01*
X549655Y655612D01*
X549729Y655678D01*
X549801Y655747D01*
X549870Y655819D01*
X549936Y655893D01*
X550000Y655971D01*
X550060Y656050D01*
X550117Y656132D01*
X550171Y656216D01*
X550221Y656302D01*
X550268Y656390D01*
X550312Y656480D01*
X550352Y656571D01*
X550388Y656664D01*
X550421Y656758D01*
X550450Y656854D01*
X550475Y656950D01*
X550496Y657047D01*
X550514Y657146D01*
X550527Y657244D01*
X550537Y657344D01*
X550543Y657443D01*
X550545Y657543D01*
X550546Y657543D02*
X550544Y657676D01*
X550539Y657809D01*
X550529Y657942D01*
X550516Y658075D01*
X550499Y658207D01*
X550479Y658339D01*
X550455Y658470D01*
X550427Y658600D01*
X550396Y658730D01*
X550361Y658858D01*
X550322Y658986D01*
X550280Y659112D01*
X550234Y659237D01*
X550185Y659361D01*
X550133Y659484D01*
X550077Y659605D01*
X550017Y659724D01*
X549955Y659842D01*
X549889Y659957D01*
X549820Y660071D01*
X549747Y660183D01*
X549672Y660293D01*
X549593Y660401D01*
X545782Y656272D02*
X545834Y656188D01*
X545889Y656105D01*
X545948Y656025D01*
X546009Y655947D01*
X546073Y655872D01*
X546141Y655799D01*
X546211Y655728D01*
X546283Y655661D01*
X546358Y655596D01*
X546436Y655534D01*
X546516Y655475D01*
X546598Y655419D01*
X546682Y655367D01*
X546768Y655318D01*
X546856Y655272D01*
X546946Y655229D01*
X547037Y655190D01*
X547130Y655155D01*
X547224Y655123D01*
X547319Y655095D01*
X547415Y655070D01*
X547512Y655050D01*
X547610Y655032D01*
X547708Y655019D01*
X547807Y655010D01*
X547906Y655004D01*
X548005Y655002D01*
X543878Y659765D02*
X543826Y659849D01*
X543771Y659932D01*
X543712Y660012D01*
X543651Y660090D01*
X543587Y660165D01*
X543519Y660238D01*
X543449Y660309D01*
X543377Y660376D01*
X543302Y660441D01*
X543224Y660503D01*
X543144Y660562D01*
X543062Y660618D01*
X542978Y660670D01*
X542892Y660719D01*
X542804Y660765D01*
X542714Y660808D01*
X542623Y660847D01*
X542530Y660882D01*
X542436Y660914D01*
X542341Y660942D01*
X542245Y660967D01*
X542148Y660987D01*
X542050Y661005D01*
X541952Y661018D01*
X541853Y661027D01*
X541754Y661033D01*
X541655Y661035D01*
X543878Y659765D02*
X545783Y656273D01*
X544830Y665734D02*
X545055Y665737D01*
X545280Y665745D01*
X545504Y665758D01*
X545728Y665777D01*
X545952Y665801D01*
X546175Y665830D01*
X546397Y665865D01*
X546618Y665905D01*
X546838Y665951D01*
X547057Y666001D01*
X547275Y666057D01*
X547492Y666118D01*
X547707Y666184D01*
X547920Y666255D01*
X548131Y666332D01*
X548341Y666413D01*
X548549Y666499D01*
X548754Y666590D01*
X548957Y666686D01*
X548958Y666686D02*
X549046Y666718D01*
X549133Y666754D01*
X549219Y666793D01*
X549303Y666836D01*
X549385Y666882D01*
X549465Y666931D01*
X549543Y666983D01*
X549619Y667039D01*
X549693Y667097D01*
X549764Y667159D01*
X549833Y667223D01*
X549899Y667290D01*
X549962Y667359D01*
X550023Y667431D01*
X550081Y667505D01*
X550135Y667582D01*
X550187Y667660D01*
X550235Y667741D01*
X550280Y667823D01*
X550322Y667908D01*
X550360Y667994D01*
X550395Y668081D01*
X550427Y668169D01*
X550454Y668259D01*
X550479Y668350D01*
X550499Y668442D01*
X550516Y668534D01*
X550529Y668628D01*
X550538Y668721D01*
X550544Y668815D01*
X550546Y668909D01*
X550544Y669003D01*
X550538Y669097D01*
X550529Y669190D01*
X550516Y669284D01*
X550499Y669376D01*
X550479Y669468D01*
X550454Y669559D01*
X550427Y669649D01*
X550395Y669737D01*
X550360Y669824D01*
X550322Y669910D01*
X550280Y669995D01*
X550235Y670077D01*
X550187Y670158D01*
X550135Y670236D01*
X550081Y670313D01*
X550023Y670387D01*
X549962Y670459D01*
X549899Y670528D01*
X549833Y670595D01*
X549764Y670659D01*
X549693Y670721D01*
X549619Y670779D01*
X549543Y670835D01*
X549465Y670887D01*
X549385Y670936D01*
X549303Y670982D01*
X549219Y671025D01*
X549133Y671064D01*
X549046Y671100D01*
X548958Y671132D01*
X548957Y671132D02*
X548754Y671228D01*
X548549Y671319D01*
X548341Y671405D01*
X548131Y671486D01*
X547920Y671563D01*
X547707Y671634D01*
X547492Y671700D01*
X547275Y671761D01*
X547057Y671817D01*
X546838Y671867D01*
X546618Y671913D01*
X546397Y671953D01*
X546175Y671988D01*
X545952Y672017D01*
X545728Y672041D01*
X545504Y672060D01*
X545280Y672073D01*
X545055Y672081D01*
X544830Y672084D01*
X544830Y665734D02*
X544605Y665737D01*
X544380Y665745D01*
X544156Y665758D01*
X543932Y665777D01*
X543708Y665801D01*
X543485Y665830D01*
X543263Y665865D01*
X543042Y665905D01*
X542822Y665951D01*
X542603Y666001D01*
X542385Y666057D01*
X542168Y666118D01*
X541953Y666184D01*
X541740Y666255D01*
X541529Y666332D01*
X541319Y666413D01*
X541111Y666499D01*
X540906Y666590D01*
X540703Y666686D01*
X540615Y666718D01*
X540528Y666754D01*
X540442Y666793D01*
X540358Y666836D01*
X540276Y666882D01*
X540196Y666931D01*
X540118Y666983D01*
X540042Y667039D01*
X539968Y667097D01*
X539897Y667159D01*
X539828Y667223D01*
X539762Y667290D01*
X539699Y667359D01*
X539638Y667431D01*
X539580Y667505D01*
X539526Y667582D01*
X539474Y667660D01*
X539426Y667741D01*
X539381Y667823D01*
X539339Y667908D01*
X539301Y667994D01*
X539266Y668081D01*
X539234Y668169D01*
X539207Y668259D01*
X539182Y668350D01*
X539162Y668442D01*
X539145Y668534D01*
X539132Y668628D01*
X539123Y668721D01*
X539117Y668815D01*
X539115Y668909D01*
X540703Y671132D02*
X540906Y671228D01*
X541111Y671319D01*
X541319Y671405D01*
X541529Y671486D01*
X541740Y671563D01*
X541953Y671634D01*
X542168Y671700D01*
X542385Y671761D01*
X542603Y671817D01*
X542822Y671867D01*
X543042Y671913D01*
X543263Y671953D01*
X543485Y671988D01*
X543708Y672017D01*
X543932Y672041D01*
X544156Y672060D01*
X544380Y672073D01*
X544605Y672081D01*
X544830Y672084D01*
X540703Y671132D02*
X540615Y671100D01*
X540528Y671064D01*
X540442Y671025D01*
X540358Y670982D01*
X540276Y670936D01*
X540196Y670887D01*
X540118Y670835D01*
X540042Y670779D01*
X539968Y670721D01*
X539897Y670659D01*
X539828Y670595D01*
X539762Y670528D01*
X539699Y670459D01*
X539638Y670387D01*
X539580Y670313D01*
X539526Y670236D01*
X539474Y670158D01*
X539426Y670077D01*
X539381Y669995D01*
X539339Y669910D01*
X539301Y669824D01*
X539266Y669737D01*
X539234Y669649D01*
X539207Y669559D01*
X539182Y669468D01*
X539162Y669376D01*
X539145Y669284D01*
X539132Y669190D01*
X539123Y669097D01*
X539117Y669003D01*
X539115Y668909D01*
X541655Y666369D02*
X548005Y671449D01*
X542290Y677164D02*
X542401Y677166D01*
X542511Y677172D01*
X542622Y677181D01*
X542732Y677195D01*
X542841Y677212D01*
X542950Y677233D01*
X543058Y677258D01*
X543165Y677287D01*
X543271Y677319D01*
X543376Y677355D01*
X543479Y677395D01*
X543581Y677438D01*
X543682Y677485D01*
X543781Y677536D01*
X543878Y677589D01*
X543972Y677646D01*
X544065Y677707D01*
X544156Y677770D01*
X544245Y677837D01*
X544331Y677907D01*
X544414Y677980D01*
X544496Y678055D01*
X544574Y678133D01*
X544649Y678215D01*
X544722Y678298D01*
X544792Y678384D01*
X544859Y678473D01*
X544922Y678564D01*
X544983Y678657D01*
X545040Y678752D01*
X545093Y678848D01*
X545144Y678947D01*
X545191Y679048D01*
X545234Y679150D01*
X545274Y679253D01*
X545310Y679358D01*
X545342Y679464D01*
X545371Y679571D01*
X545396Y679679D01*
X545417Y679788D01*
X545434Y679897D01*
X545448Y680007D01*
X545457Y680118D01*
X545463Y680228D01*
X545465Y680339D01*
X545463Y680450D01*
X545457Y680560D01*
X545448Y680671D01*
X545434Y680781D01*
X545417Y680890D01*
X545396Y680999D01*
X545371Y681107D01*
X545342Y681214D01*
X545310Y681320D01*
X545274Y681425D01*
X545234Y681528D01*
X545191Y681630D01*
X545144Y681731D01*
X545093Y681830D01*
X545040Y681926D01*
X544983Y682021D01*
X544922Y682114D01*
X544859Y682205D01*
X544792Y682294D01*
X544722Y682380D01*
X544649Y682463D01*
X544574Y682545D01*
X544496Y682623D01*
X544414Y682698D01*
X544331Y682771D01*
X544245Y682841D01*
X544156Y682908D01*
X544065Y682971D01*
X543972Y683032D01*
X543878Y683089D01*
X543781Y683142D01*
X543682Y683193D01*
X543581Y683240D01*
X543479Y683283D01*
X543376Y683323D01*
X543271Y683359D01*
X543165Y683391D01*
X543058Y683420D01*
X542950Y683445D01*
X542841Y683466D01*
X542732Y683483D01*
X542622Y683497D01*
X542511Y683506D01*
X542401Y683512D01*
X542290Y683514D01*
X542179Y683512D01*
X542069Y683506D01*
X541958Y683497D01*
X541848Y683483D01*
X541739Y683466D01*
X541630Y683445D01*
X541522Y683420D01*
X541415Y683391D01*
X541309Y683359D01*
X541204Y683323D01*
X541101Y683283D01*
X540999Y683240D01*
X540898Y683193D01*
X540799Y683142D01*
X540703Y683089D01*
X540608Y683032D01*
X540515Y682971D01*
X540424Y682908D01*
X540335Y682841D01*
X540249Y682771D01*
X540166Y682698D01*
X540084Y682623D01*
X540006Y682545D01*
X539931Y682463D01*
X539858Y682380D01*
X539788Y682294D01*
X539721Y682205D01*
X539658Y682114D01*
X539597Y682021D01*
X539540Y681927D01*
X539487Y681830D01*
X539436Y681731D01*
X539389Y681630D01*
X539346Y681528D01*
X539306Y681425D01*
X539270Y681320D01*
X539238Y681214D01*
X539209Y681107D01*
X539184Y680999D01*
X539163Y680890D01*
X539146Y680781D01*
X539132Y680671D01*
X539123Y680560D01*
X539117Y680450D01*
X539115Y680339D01*
X539117Y680228D01*
X539123Y680118D01*
X539132Y680007D01*
X539146Y679897D01*
X539163Y679788D01*
X539184Y679679D01*
X539209Y679571D01*
X539238Y679464D01*
X539270Y679358D01*
X539306Y679253D01*
X539346Y679150D01*
X539389Y679048D01*
X539436Y678947D01*
X539487Y678848D01*
X539540Y678752D01*
X539597Y678657D01*
X539658Y678564D01*
X539721Y678473D01*
X539788Y678384D01*
X539858Y678298D01*
X539931Y678215D01*
X540006Y678133D01*
X540084Y678055D01*
X540166Y677980D01*
X540249Y677907D01*
X540335Y677837D01*
X540424Y677770D01*
X540515Y677707D01*
X540608Y677646D01*
X540703Y677589D01*
X540799Y677536D01*
X540898Y677485D01*
X540999Y677438D01*
X541101Y677395D01*
X541204Y677355D01*
X541309Y677319D01*
X541415Y677287D01*
X541522Y677258D01*
X541630Y677233D01*
X541739Y677212D01*
X541848Y677195D01*
X541958Y677181D01*
X542069Y677172D01*
X542179Y677166D01*
X542290Y677164D01*
X548005Y677799D02*
X548105Y677801D01*
X548204Y677807D01*
X548304Y677817D01*
X548402Y677830D01*
X548501Y677848D01*
X548598Y677869D01*
X548694Y677894D01*
X548790Y677923D01*
X548884Y677956D01*
X548977Y677992D01*
X549068Y678032D01*
X549158Y678076D01*
X549246Y678123D01*
X549332Y678173D01*
X549416Y678227D01*
X549498Y678284D01*
X549577Y678344D01*
X549655Y678408D01*
X549729Y678474D01*
X549801Y678543D01*
X549870Y678615D01*
X549936Y678689D01*
X550000Y678767D01*
X550060Y678846D01*
X550117Y678928D01*
X550171Y679012D01*
X550221Y679098D01*
X550268Y679186D01*
X550312Y679276D01*
X550352Y679367D01*
X550388Y679460D01*
X550421Y679554D01*
X550450Y679650D01*
X550475Y679746D01*
X550496Y679843D01*
X550514Y679942D01*
X550527Y680040D01*
X550537Y680140D01*
X550543Y680239D01*
X550545Y680339D01*
X550543Y680439D01*
X550537Y680538D01*
X550527Y680638D01*
X550514Y680736D01*
X550496Y680835D01*
X550475Y680932D01*
X550450Y681028D01*
X550421Y681124D01*
X550388Y681218D01*
X550352Y681311D01*
X550312Y681402D01*
X550268Y681492D01*
X550221Y681580D01*
X550171Y681666D01*
X550117Y681750D01*
X550060Y681832D01*
X550000Y681911D01*
X549936Y681989D01*
X549870Y682063D01*
X549801Y682135D01*
X549729Y682204D01*
X549655Y682270D01*
X549577Y682334D01*
X549498Y682394D01*
X549416Y682451D01*
X549332Y682505D01*
X549246Y682555D01*
X549158Y682602D01*
X549068Y682646D01*
X548977Y682686D01*
X548884Y682722D01*
X548790Y682755D01*
X548694Y682784D01*
X548598Y682809D01*
X548501Y682830D01*
X548402Y682848D01*
X548304Y682861D01*
X548204Y682871D01*
X548105Y682877D01*
X548005Y682879D01*
X547905Y682877D01*
X547806Y682871D01*
X547706Y682861D01*
X547608Y682848D01*
X547509Y682830D01*
X547412Y682809D01*
X547316Y682784D01*
X547220Y682755D01*
X547126Y682722D01*
X547033Y682686D01*
X546942Y682646D01*
X546852Y682602D01*
X546764Y682555D01*
X546678Y682505D01*
X546594Y682451D01*
X546512Y682394D01*
X546433Y682334D01*
X546355Y682270D01*
X546281Y682204D01*
X546209Y682135D01*
X546140Y682063D01*
X546074Y681989D01*
X546010Y681911D01*
X545950Y681832D01*
X545893Y681750D01*
X545839Y681666D01*
X545789Y681580D01*
X545742Y681492D01*
X545698Y681402D01*
X545658Y681311D01*
X545622Y681218D01*
X545589Y681124D01*
X545560Y681028D01*
X545535Y680932D01*
X545514Y680835D01*
X545496Y680736D01*
X545483Y680638D01*
X545473Y680538D01*
X545467Y680439D01*
X545465Y680339D01*
X545467Y680239D01*
X545473Y680140D01*
X545483Y680040D01*
X545496Y679942D01*
X545514Y679843D01*
X545535Y679746D01*
X545560Y679650D01*
X545589Y679554D01*
X545622Y679460D01*
X545658Y679367D01*
X545698Y679276D01*
X545742Y679186D01*
X545789Y679098D01*
X545839Y679012D01*
X545893Y678928D01*
X545950Y678846D01*
X546010Y678767D01*
X546074Y678689D01*
X546140Y678615D01*
X546209Y678543D01*
X546281Y678474D01*
X546355Y678408D01*
X546433Y678344D01*
X546512Y678284D01*
X546594Y678227D01*
X546678Y678173D01*
X546764Y678123D01*
X546852Y678076D01*
X546942Y678032D01*
X547033Y677992D01*
X547126Y677956D01*
X547220Y677923D01*
X547316Y677894D01*
X547412Y677869D01*
X547509Y677848D01*
X547608Y677830D01*
X547706Y677817D01*
X547806Y677807D01*
X547905Y677801D01*
X548005Y677799D01*
X550545Y688975D02*
X539115Y688975D01*
X550545Y688975D02*
X550545Y692150D01*
X550543Y692261D01*
X550537Y692371D01*
X550528Y692482D01*
X550514Y692592D01*
X550497Y692701D01*
X550476Y692810D01*
X550451Y692918D01*
X550422Y693025D01*
X550390Y693131D01*
X550354Y693236D01*
X550314Y693339D01*
X550271Y693441D01*
X550224Y693542D01*
X550173Y693641D01*
X550120Y693738D01*
X550063Y693832D01*
X550002Y693925D01*
X549939Y694016D01*
X549872Y694105D01*
X549802Y694191D01*
X549729Y694274D01*
X549654Y694356D01*
X549576Y694434D01*
X549494Y694509D01*
X549411Y694582D01*
X549325Y694652D01*
X549236Y694719D01*
X549145Y694782D01*
X549052Y694843D01*
X548958Y694900D01*
X548861Y694953D01*
X548762Y695004D01*
X548661Y695051D01*
X548559Y695094D01*
X548456Y695134D01*
X548351Y695170D01*
X548245Y695202D01*
X548138Y695231D01*
X548030Y695256D01*
X547921Y695277D01*
X547812Y695294D01*
X547702Y695308D01*
X547591Y695317D01*
X547481Y695323D01*
X547370Y695325D01*
X542290Y695325D01*
X542179Y695323D01*
X542069Y695317D01*
X541958Y695308D01*
X541848Y695294D01*
X541739Y695277D01*
X541630Y695256D01*
X541522Y695231D01*
X541415Y695202D01*
X541309Y695170D01*
X541204Y695134D01*
X541101Y695094D01*
X540999Y695051D01*
X540898Y695004D01*
X540799Y694953D01*
X540703Y694900D01*
X540608Y694843D01*
X540515Y694782D01*
X540424Y694719D01*
X540335Y694652D01*
X540249Y694582D01*
X540166Y694509D01*
X540084Y694434D01*
X540006Y694356D01*
X539931Y694274D01*
X539858Y694191D01*
X539788Y694105D01*
X539721Y694016D01*
X539658Y693925D01*
X539597Y693832D01*
X539540Y693738D01*
X539487Y693641D01*
X539436Y693542D01*
X539389Y693441D01*
X539346Y693339D01*
X539306Y693236D01*
X539270Y693131D01*
X539238Y693025D01*
X539209Y692918D01*
X539184Y692810D01*
X539163Y692701D01*
X539146Y692592D01*
X539132Y692482D01*
X539123Y692371D01*
X539117Y692261D01*
X539115Y692150D01*
X539115Y688975D01*
D10*
X640842Y701040D02*
X640842Y619760D01*
X676148Y615950D02*
X676270Y615952D01*
X676392Y615958D01*
X676514Y615968D01*
X676635Y615981D01*
X676756Y615999D01*
X676876Y616020D01*
X676996Y616046D01*
X677114Y616075D01*
X677232Y616107D01*
X677349Y616144D01*
X677464Y616184D01*
X677578Y616228D01*
X677690Y616276D01*
X677801Y616327D01*
X677910Y616382D01*
X678018Y616440D01*
X678123Y616502D01*
X678226Y616567D01*
X678328Y616635D01*
X678427Y616707D01*
X678523Y616781D01*
X678618Y616859D01*
X678709Y616940D01*
X678799Y617023D01*
X678885Y617109D01*
X678968Y617199D01*
X679049Y617290D01*
X679127Y617385D01*
X679201Y617481D01*
X679273Y617580D01*
X679341Y617682D01*
X679406Y617785D01*
X679468Y617890D01*
X679526Y617998D01*
X679581Y618107D01*
X679632Y618218D01*
X679680Y618330D01*
X679724Y618444D01*
X679764Y618559D01*
X679801Y618676D01*
X679833Y618794D01*
X679862Y618912D01*
X679888Y619032D01*
X679909Y619152D01*
X679927Y619273D01*
X679940Y619394D01*
X679950Y619516D01*
X679956Y619638D01*
X679958Y619760D01*
X640842Y701040D02*
X640844Y701162D01*
X640850Y701284D01*
X640860Y701406D01*
X640873Y701527D01*
X640891Y701648D01*
X640912Y701768D01*
X640938Y701888D01*
X640967Y702006D01*
X640999Y702124D01*
X641036Y702241D01*
X641076Y702356D01*
X641120Y702470D01*
X641168Y702582D01*
X641219Y702693D01*
X641274Y702802D01*
X641332Y702910D01*
X641394Y703015D01*
X641459Y703118D01*
X641527Y703220D01*
X641599Y703319D01*
X641673Y703415D01*
X641751Y703510D01*
X641832Y703601D01*
X641915Y703691D01*
X642001Y703777D01*
X642091Y703860D01*
X642182Y703941D01*
X642277Y704019D01*
X642373Y704093D01*
X642472Y704165D01*
X642574Y704233D01*
X642677Y704298D01*
X642782Y704360D01*
X642890Y704418D01*
X642999Y704473D01*
X643110Y704524D01*
X643222Y704572D01*
X643336Y704616D01*
X643451Y704656D01*
X643568Y704693D01*
X643686Y704725D01*
X643804Y704754D01*
X643924Y704780D01*
X644044Y704801D01*
X644165Y704819D01*
X644286Y704832D01*
X644408Y704842D01*
X644530Y704848D01*
X644652Y704850D01*
X640842Y619760D02*
X640844Y619638D01*
X640850Y619516D01*
X640860Y619394D01*
X640873Y619273D01*
X640891Y619152D01*
X640912Y619032D01*
X640938Y618912D01*
X640967Y618794D01*
X640999Y618676D01*
X641036Y618559D01*
X641076Y618444D01*
X641120Y618330D01*
X641168Y618218D01*
X641219Y618107D01*
X641274Y617998D01*
X641332Y617890D01*
X641394Y617785D01*
X641459Y617682D01*
X641527Y617580D01*
X641599Y617481D01*
X641673Y617385D01*
X641751Y617290D01*
X641832Y617199D01*
X641915Y617109D01*
X642001Y617023D01*
X642091Y616940D01*
X642182Y616859D01*
X642277Y616781D01*
X642373Y616707D01*
X642472Y616635D01*
X642574Y616567D01*
X642677Y616502D01*
X642782Y616440D01*
X642890Y616382D01*
X642999Y616327D01*
X643110Y616276D01*
X643222Y616228D01*
X643336Y616184D01*
X643451Y616144D01*
X643568Y616107D01*
X643686Y616075D01*
X643804Y616046D01*
X643924Y616020D01*
X644044Y615999D01*
X644165Y615981D01*
X644286Y615968D01*
X644408Y615958D01*
X644530Y615952D01*
X644652Y615950D01*
X679958Y701040D02*
X679956Y701162D01*
X679950Y701284D01*
X679940Y701406D01*
X679927Y701527D01*
X679909Y701648D01*
X679888Y701768D01*
X679862Y701888D01*
X679833Y702006D01*
X679801Y702124D01*
X679764Y702241D01*
X679724Y702356D01*
X679680Y702470D01*
X679632Y702582D01*
X679581Y702693D01*
X679526Y702802D01*
X679468Y702910D01*
X679406Y703015D01*
X679341Y703118D01*
X679273Y703220D01*
X679201Y703319D01*
X679127Y703415D01*
X679049Y703510D01*
X678968Y703601D01*
X678885Y703691D01*
X678799Y703777D01*
X678709Y703860D01*
X678618Y703941D01*
X678523Y704019D01*
X678427Y704093D01*
X678328Y704165D01*
X678226Y704233D01*
X678123Y704298D01*
X678018Y704360D01*
X677910Y704418D01*
X677801Y704473D01*
X677690Y704524D01*
X677578Y704572D01*
X677464Y704616D01*
X677349Y704656D01*
X677232Y704693D01*
X677114Y704725D01*
X676996Y704754D01*
X676876Y704780D01*
X676756Y704801D01*
X676635Y704819D01*
X676514Y704832D01*
X676392Y704842D01*
X676270Y704848D01*
X676148Y704850D01*
X679958Y701040D02*
X679958Y619760D01*
X676148Y615950D02*
X644652Y615950D01*
X644652Y704850D02*
X655320Y704850D01*
X665480Y704850D01*
X676148Y704850D01*
X665480Y704850D02*
X665478Y704709D01*
X665472Y704568D01*
X665462Y704427D01*
X665449Y704286D01*
X665431Y704146D01*
X665409Y704007D01*
X665384Y703868D01*
X665355Y703729D01*
X665322Y703592D01*
X665285Y703456D01*
X665244Y703321D01*
X665200Y703186D01*
X665152Y703054D01*
X665100Y702922D01*
X665045Y702792D01*
X664986Y702664D01*
X664923Y702537D01*
X664857Y702413D01*
X664788Y702290D01*
X664715Y702169D01*
X664639Y702050D01*
X664559Y701933D01*
X664476Y701819D01*
X664391Y701706D01*
X664302Y701597D01*
X664210Y701489D01*
X664115Y701385D01*
X664017Y701283D01*
X663916Y701184D01*
X663813Y701087D01*
X663707Y700994D01*
X663599Y700904D01*
X663488Y700816D01*
X663375Y700732D01*
X663259Y700651D01*
X663141Y700573D01*
X663021Y700498D01*
X662899Y700427D01*
X662775Y700359D01*
X662649Y700295D01*
X662522Y700234D01*
X662393Y700177D01*
X662262Y700124D01*
X662130Y700074D01*
X661997Y700027D01*
X661862Y699985D01*
X661726Y699946D01*
X661589Y699911D01*
X661452Y699880D01*
X661313Y699853D01*
X661174Y699829D01*
X661034Y699810D01*
X660894Y699794D01*
X660753Y699782D01*
X660612Y699774D01*
X660471Y699770D01*
X660329Y699770D01*
X660188Y699774D01*
X660047Y699782D01*
X659906Y699794D01*
X659766Y699810D01*
X659626Y699829D01*
X659487Y699853D01*
X659348Y699880D01*
X659211Y699911D01*
X659074Y699946D01*
X658938Y699985D01*
X658803Y700027D01*
X658670Y700074D01*
X658538Y700124D01*
X658407Y700177D01*
X658278Y700234D01*
X658151Y700295D01*
X658025Y700359D01*
X657901Y700427D01*
X657779Y700498D01*
X657659Y700573D01*
X657541Y700651D01*
X657425Y700732D01*
X657312Y700816D01*
X657201Y700904D01*
X657093Y700994D01*
X656987Y701087D01*
X656884Y701184D01*
X656783Y701283D01*
X656685Y701385D01*
X656590Y701489D01*
X656498Y701597D01*
X656409Y701706D01*
X656324Y701819D01*
X656241Y701933D01*
X656161Y702050D01*
X656085Y702169D01*
X656012Y702290D01*
X655943Y702413D01*
X655877Y702537D01*
X655814Y702664D01*
X655755Y702792D01*
X655700Y702922D01*
X655648Y703054D01*
X655600Y703186D01*
X655556Y703321D01*
X655515Y703456D01*
X655478Y703592D01*
X655445Y703729D01*
X655416Y703868D01*
X655391Y704007D01*
X655369Y704146D01*
X655351Y704286D01*
X655338Y704427D01*
X655328Y704568D01*
X655322Y704709D01*
X655320Y704850D01*
D11*
X676402Y704850D02*
X676402Y615950D01*
D12*
X676275Y708025D02*
X676275Y719455D01*
X677545Y708025D02*
X675005Y708025D01*
X675005Y719455D02*
X677545Y719455D01*
X667803Y708025D02*
X665263Y708025D01*
X667803Y708025D02*
X667903Y708027D01*
X668002Y708033D01*
X668102Y708043D01*
X668200Y708056D01*
X668299Y708074D01*
X668396Y708095D01*
X668492Y708120D01*
X668588Y708149D01*
X668682Y708182D01*
X668775Y708218D01*
X668866Y708258D01*
X668956Y708302D01*
X669044Y708349D01*
X669130Y708399D01*
X669214Y708453D01*
X669296Y708510D01*
X669375Y708570D01*
X669453Y708634D01*
X669527Y708700D01*
X669599Y708769D01*
X669668Y708841D01*
X669734Y708915D01*
X669798Y708993D01*
X669858Y709072D01*
X669915Y709154D01*
X669969Y709238D01*
X670019Y709324D01*
X670066Y709412D01*
X670110Y709502D01*
X670150Y709593D01*
X670186Y709686D01*
X670219Y709780D01*
X670248Y709876D01*
X670273Y709972D01*
X670294Y710069D01*
X670312Y710168D01*
X670325Y710266D01*
X670335Y710366D01*
X670341Y710465D01*
X670343Y710565D01*
X670343Y716915D01*
X670341Y717015D01*
X670335Y717114D01*
X670325Y717214D01*
X670312Y717312D01*
X670294Y717411D01*
X670273Y717508D01*
X670248Y717604D01*
X670219Y717700D01*
X670186Y717794D01*
X670150Y717887D01*
X670110Y717978D01*
X670066Y718068D01*
X670019Y718156D01*
X669969Y718242D01*
X669915Y718326D01*
X669858Y718408D01*
X669798Y718487D01*
X669734Y718565D01*
X669668Y718639D01*
X669599Y718711D01*
X669527Y718780D01*
X669453Y718846D01*
X669375Y718910D01*
X669296Y718970D01*
X669214Y719027D01*
X669130Y719081D01*
X669044Y719131D01*
X668956Y719178D01*
X668866Y719222D01*
X668775Y719262D01*
X668682Y719298D01*
X668588Y719331D01*
X668492Y719360D01*
X668396Y719385D01*
X668299Y719406D01*
X668200Y719424D01*
X668102Y719437D01*
X668002Y719447D01*
X667903Y719453D01*
X667803Y719455D01*
X665263Y719455D01*
X660781Y716915D02*
X657606Y719455D01*
X657606Y708025D01*
X660781Y708025D02*
X654431Y708025D01*
X663575Y620776D02*
X664845Y620776D01*
X664845Y627126D01*
X653415Y623951D01*
X655955Y632206D02*
X664845Y634746D01*
X655955Y632206D02*
X655955Y638556D01*
X658495Y636651D02*
X653415Y636651D01*
X653415Y643001D02*
X664845Y646811D01*
X653415Y650621D01*
X656273Y649669D02*
X656273Y643954D01*
X653415Y658495D02*
X653417Y658595D01*
X653423Y658694D01*
X653433Y658794D01*
X653446Y658892D01*
X653464Y658991D01*
X653485Y659088D01*
X653510Y659184D01*
X653539Y659280D01*
X653572Y659374D01*
X653608Y659467D01*
X653648Y659558D01*
X653692Y659648D01*
X653739Y659736D01*
X653789Y659822D01*
X653843Y659906D01*
X653900Y659988D01*
X653960Y660067D01*
X654024Y660145D01*
X654090Y660219D01*
X654159Y660291D01*
X654231Y660360D01*
X654305Y660426D01*
X654383Y660490D01*
X654462Y660550D01*
X654544Y660607D01*
X654628Y660661D01*
X654714Y660711D01*
X654802Y660758D01*
X654892Y660802D01*
X654983Y660842D01*
X655076Y660878D01*
X655170Y660911D01*
X655266Y660940D01*
X655362Y660965D01*
X655459Y660986D01*
X655558Y661004D01*
X655656Y661017D01*
X655756Y661027D01*
X655855Y661033D01*
X655955Y661035D01*
X653415Y658495D02*
X653417Y658354D01*
X653422Y658213D01*
X653432Y658072D01*
X653445Y657931D01*
X653461Y657791D01*
X653482Y657651D01*
X653506Y657512D01*
X653534Y657373D01*
X653565Y657236D01*
X653600Y657099D01*
X653638Y656963D01*
X653680Y656828D01*
X653726Y656695D01*
X653775Y656562D01*
X653828Y656431D01*
X653884Y656302D01*
X653943Y656173D01*
X654006Y656047D01*
X654072Y655922D01*
X654141Y655799D01*
X654214Y655678D01*
X654290Y655559D01*
X654369Y655441D01*
X654450Y655326D01*
X654535Y655214D01*
X654623Y655103D01*
X654714Y654995D01*
X654807Y654889D01*
X654904Y654786D01*
X655003Y654685D01*
X662305Y655003D02*
X662405Y655005D01*
X662504Y655011D01*
X662604Y655021D01*
X662702Y655034D01*
X662801Y655052D01*
X662898Y655073D01*
X662994Y655098D01*
X663090Y655127D01*
X663184Y655160D01*
X663277Y655196D01*
X663368Y655236D01*
X663458Y655280D01*
X663546Y655327D01*
X663632Y655377D01*
X663716Y655431D01*
X663798Y655488D01*
X663877Y655548D01*
X663955Y655612D01*
X664029Y655678D01*
X664101Y655747D01*
X664170Y655819D01*
X664236Y655893D01*
X664300Y655971D01*
X664360Y656050D01*
X664417Y656132D01*
X664471Y656216D01*
X664521Y656302D01*
X664568Y656390D01*
X664612Y656480D01*
X664652Y656571D01*
X664688Y656664D01*
X664721Y656758D01*
X664750Y656854D01*
X664775Y656950D01*
X664796Y657047D01*
X664814Y657146D01*
X664827Y657244D01*
X664837Y657344D01*
X664843Y657443D01*
X664845Y657543D01*
X664846Y657543D02*
X664844Y657676D01*
X664839Y657809D01*
X664829Y657942D01*
X664816Y658075D01*
X664799Y658207D01*
X664779Y658339D01*
X664755Y658470D01*
X664727Y658600D01*
X664696Y658730D01*
X664661Y658858D01*
X664622Y658986D01*
X664580Y659112D01*
X664534Y659237D01*
X664485Y659361D01*
X664433Y659484D01*
X664377Y659605D01*
X664317Y659724D01*
X664255Y659842D01*
X664189Y659957D01*
X664120Y660071D01*
X664047Y660183D01*
X663972Y660293D01*
X663893Y660401D01*
X660082Y656272D02*
X660134Y656188D01*
X660189Y656105D01*
X660248Y656025D01*
X660309Y655947D01*
X660373Y655872D01*
X660441Y655799D01*
X660511Y655728D01*
X660583Y655661D01*
X660658Y655596D01*
X660736Y655534D01*
X660816Y655475D01*
X660898Y655419D01*
X660982Y655367D01*
X661068Y655318D01*
X661156Y655272D01*
X661246Y655229D01*
X661337Y655190D01*
X661430Y655155D01*
X661524Y655123D01*
X661619Y655095D01*
X661715Y655070D01*
X661812Y655050D01*
X661910Y655032D01*
X662008Y655019D01*
X662107Y655010D01*
X662206Y655004D01*
X662305Y655002D01*
X658178Y659765D02*
X658126Y659849D01*
X658071Y659932D01*
X658012Y660012D01*
X657951Y660090D01*
X657887Y660165D01*
X657819Y660238D01*
X657749Y660309D01*
X657677Y660376D01*
X657602Y660441D01*
X657524Y660503D01*
X657444Y660562D01*
X657362Y660618D01*
X657278Y660670D01*
X657192Y660719D01*
X657104Y660765D01*
X657014Y660808D01*
X656923Y660847D01*
X656830Y660882D01*
X656736Y660914D01*
X656641Y660942D01*
X656545Y660967D01*
X656448Y660987D01*
X656350Y661005D01*
X656252Y661018D01*
X656153Y661027D01*
X656054Y661033D01*
X655955Y661035D01*
X658178Y659765D02*
X660083Y656273D01*
X659130Y665734D02*
X659355Y665737D01*
X659580Y665745D01*
X659804Y665758D01*
X660028Y665777D01*
X660252Y665801D01*
X660475Y665830D01*
X660697Y665865D01*
X660918Y665905D01*
X661138Y665951D01*
X661357Y666001D01*
X661575Y666057D01*
X661792Y666118D01*
X662007Y666184D01*
X662220Y666255D01*
X662431Y666332D01*
X662641Y666413D01*
X662849Y666499D01*
X663054Y666590D01*
X663257Y666686D01*
X663258Y666686D02*
X663346Y666718D01*
X663433Y666754D01*
X663519Y666793D01*
X663603Y666836D01*
X663685Y666882D01*
X663765Y666931D01*
X663843Y666983D01*
X663919Y667039D01*
X663993Y667097D01*
X664064Y667159D01*
X664133Y667223D01*
X664199Y667290D01*
X664262Y667359D01*
X664323Y667431D01*
X664381Y667505D01*
X664435Y667582D01*
X664487Y667660D01*
X664535Y667741D01*
X664580Y667823D01*
X664622Y667908D01*
X664660Y667994D01*
X664695Y668081D01*
X664727Y668169D01*
X664754Y668259D01*
X664779Y668350D01*
X664799Y668442D01*
X664816Y668534D01*
X664829Y668628D01*
X664838Y668721D01*
X664844Y668815D01*
X664846Y668909D01*
X664844Y669003D01*
X664838Y669097D01*
X664829Y669190D01*
X664816Y669284D01*
X664799Y669376D01*
X664779Y669468D01*
X664754Y669559D01*
X664727Y669649D01*
X664695Y669737D01*
X664660Y669824D01*
X664622Y669910D01*
X664580Y669995D01*
X664535Y670077D01*
X664487Y670158D01*
X664435Y670236D01*
X664381Y670313D01*
X664323Y670387D01*
X664262Y670459D01*
X664199Y670528D01*
X664133Y670595D01*
X664064Y670659D01*
X663993Y670721D01*
X663919Y670779D01*
X663843Y670835D01*
X663765Y670887D01*
X663685Y670936D01*
X663603Y670982D01*
X663519Y671025D01*
X663433Y671064D01*
X663346Y671100D01*
X663258Y671132D01*
X663257Y671132D02*
X663054Y671228D01*
X662849Y671319D01*
X662641Y671405D01*
X662431Y671486D01*
X662220Y671563D01*
X662007Y671634D01*
X661792Y671700D01*
X661575Y671761D01*
X661357Y671817D01*
X661138Y671867D01*
X660918Y671913D01*
X660697Y671953D01*
X660475Y671988D01*
X660252Y672017D01*
X660028Y672041D01*
X659804Y672060D01*
X659580Y672073D01*
X659355Y672081D01*
X659130Y672084D01*
X659130Y665734D02*
X658905Y665737D01*
X658680Y665745D01*
X658456Y665758D01*
X658232Y665777D01*
X658008Y665801D01*
X657785Y665830D01*
X657563Y665865D01*
X657342Y665905D01*
X657122Y665951D01*
X656903Y666001D01*
X656685Y666057D01*
X656468Y666118D01*
X656253Y666184D01*
X656040Y666255D01*
X655829Y666332D01*
X655619Y666413D01*
X655411Y666499D01*
X655206Y666590D01*
X655003Y666686D01*
X654915Y666718D01*
X654828Y666754D01*
X654742Y666793D01*
X654658Y666836D01*
X654576Y666882D01*
X654496Y666931D01*
X654418Y666983D01*
X654342Y667039D01*
X654268Y667097D01*
X654197Y667159D01*
X654128Y667223D01*
X654062Y667290D01*
X653999Y667359D01*
X653938Y667431D01*
X653880Y667505D01*
X653826Y667582D01*
X653774Y667660D01*
X653726Y667741D01*
X653681Y667823D01*
X653639Y667908D01*
X653601Y667994D01*
X653566Y668081D01*
X653534Y668169D01*
X653507Y668259D01*
X653482Y668350D01*
X653462Y668442D01*
X653445Y668534D01*
X653432Y668628D01*
X653423Y668721D01*
X653417Y668815D01*
X653415Y668909D01*
X655003Y671132D02*
X655206Y671228D01*
X655411Y671319D01*
X655619Y671405D01*
X655829Y671486D01*
X656040Y671563D01*
X656253Y671634D01*
X656468Y671700D01*
X656685Y671761D01*
X656903Y671817D01*
X657122Y671867D01*
X657342Y671913D01*
X657563Y671953D01*
X657785Y671988D01*
X658008Y672017D01*
X658232Y672041D01*
X658456Y672060D01*
X658680Y672073D01*
X658905Y672081D01*
X659130Y672084D01*
X655003Y671132D02*
X654915Y671100D01*
X654828Y671064D01*
X654742Y671025D01*
X654658Y670982D01*
X654576Y670936D01*
X654496Y670887D01*
X654418Y670835D01*
X654342Y670779D01*
X654268Y670721D01*
X654197Y670659D01*
X654128Y670595D01*
X654062Y670528D01*
X653999Y670459D01*
X653938Y670387D01*
X653880Y670313D01*
X653826Y670236D01*
X653774Y670158D01*
X653726Y670077D01*
X653681Y669995D01*
X653639Y669910D01*
X653601Y669824D01*
X653566Y669737D01*
X653534Y669649D01*
X653507Y669559D01*
X653482Y669468D01*
X653462Y669376D01*
X653445Y669284D01*
X653432Y669190D01*
X653423Y669097D01*
X653417Y669003D01*
X653415Y668909D01*
X655955Y666369D02*
X662305Y671449D01*
X659130Y677164D02*
X659355Y677167D01*
X659580Y677175D01*
X659804Y677188D01*
X660028Y677207D01*
X660252Y677231D01*
X660475Y677260D01*
X660697Y677295D01*
X660918Y677335D01*
X661138Y677381D01*
X661357Y677431D01*
X661575Y677487D01*
X661792Y677548D01*
X662007Y677614D01*
X662220Y677685D01*
X662431Y677762D01*
X662641Y677843D01*
X662849Y677929D01*
X663054Y678020D01*
X663257Y678116D01*
X663258Y678116D02*
X663346Y678148D01*
X663433Y678184D01*
X663519Y678223D01*
X663603Y678266D01*
X663685Y678312D01*
X663765Y678361D01*
X663843Y678413D01*
X663919Y678469D01*
X663993Y678527D01*
X664064Y678589D01*
X664133Y678653D01*
X664199Y678720D01*
X664262Y678789D01*
X664323Y678861D01*
X664381Y678935D01*
X664435Y679012D01*
X664487Y679090D01*
X664535Y679171D01*
X664580Y679253D01*
X664622Y679338D01*
X664660Y679424D01*
X664695Y679511D01*
X664727Y679599D01*
X664754Y679689D01*
X664779Y679780D01*
X664799Y679872D01*
X664816Y679964D01*
X664829Y680058D01*
X664838Y680151D01*
X664844Y680245D01*
X664846Y680339D01*
X664844Y680433D01*
X664838Y680527D01*
X664829Y680620D01*
X664816Y680714D01*
X664799Y680806D01*
X664779Y680898D01*
X664754Y680989D01*
X664727Y681079D01*
X664695Y681167D01*
X664660Y681254D01*
X664622Y681340D01*
X664580Y681425D01*
X664535Y681507D01*
X664487Y681588D01*
X664435Y681666D01*
X664381Y681743D01*
X664323Y681817D01*
X664262Y681889D01*
X664199Y681958D01*
X664133Y682025D01*
X664064Y682089D01*
X663993Y682151D01*
X663919Y682209D01*
X663843Y682265D01*
X663765Y682317D01*
X663685Y682366D01*
X663603Y682412D01*
X663519Y682455D01*
X663433Y682494D01*
X663346Y682530D01*
X663258Y682562D01*
X663257Y682562D02*
X663054Y682658D01*
X662849Y682749D01*
X662641Y682835D01*
X662431Y682916D01*
X662220Y682993D01*
X662007Y683064D01*
X661792Y683130D01*
X661575Y683191D01*
X661357Y683247D01*
X661138Y683297D01*
X660918Y683343D01*
X660697Y683383D01*
X660475Y683418D01*
X660252Y683447D01*
X660028Y683471D01*
X659804Y683490D01*
X659580Y683503D01*
X659355Y683511D01*
X659130Y683514D01*
X659130Y677164D02*
X658905Y677167D01*
X658680Y677175D01*
X658456Y677188D01*
X658232Y677207D01*
X658008Y677231D01*
X657785Y677260D01*
X657563Y677295D01*
X657342Y677335D01*
X657122Y677381D01*
X656903Y677431D01*
X656685Y677487D01*
X656468Y677548D01*
X656253Y677614D01*
X656040Y677685D01*
X655829Y677762D01*
X655619Y677843D01*
X655411Y677929D01*
X655206Y678020D01*
X655003Y678116D01*
X654915Y678148D01*
X654828Y678184D01*
X654742Y678223D01*
X654658Y678266D01*
X654576Y678312D01*
X654496Y678361D01*
X654418Y678413D01*
X654342Y678469D01*
X654268Y678527D01*
X654197Y678589D01*
X654128Y678653D01*
X654062Y678720D01*
X653999Y678789D01*
X653938Y678861D01*
X653880Y678935D01*
X653826Y679012D01*
X653774Y679090D01*
X653726Y679171D01*
X653681Y679253D01*
X653639Y679338D01*
X653601Y679424D01*
X653566Y679511D01*
X653534Y679599D01*
X653507Y679689D01*
X653482Y679780D01*
X653462Y679872D01*
X653445Y679964D01*
X653432Y680058D01*
X653423Y680151D01*
X653417Y680245D01*
X653415Y680339D01*
X655003Y682562D02*
X655206Y682658D01*
X655411Y682749D01*
X655619Y682835D01*
X655829Y682916D01*
X656040Y682993D01*
X656253Y683064D01*
X656468Y683130D01*
X656685Y683191D01*
X656903Y683247D01*
X657122Y683297D01*
X657342Y683343D01*
X657563Y683383D01*
X657785Y683418D01*
X658008Y683447D01*
X658232Y683471D01*
X658456Y683490D01*
X658680Y683503D01*
X658905Y683511D01*
X659130Y683514D01*
X655003Y682562D02*
X654915Y682530D01*
X654828Y682494D01*
X654742Y682455D01*
X654658Y682412D01*
X654576Y682366D01*
X654496Y682317D01*
X654418Y682265D01*
X654342Y682209D01*
X654268Y682151D01*
X654197Y682089D01*
X654128Y682025D01*
X654062Y681958D01*
X653999Y681889D01*
X653938Y681817D01*
X653880Y681743D01*
X653826Y681666D01*
X653774Y681588D01*
X653726Y681507D01*
X653681Y681425D01*
X653639Y681340D01*
X653601Y681254D01*
X653566Y681167D01*
X653534Y681079D01*
X653507Y680989D01*
X653482Y680898D01*
X653462Y680806D01*
X653445Y680714D01*
X653432Y680620D01*
X653423Y680527D01*
X653417Y680433D01*
X653415Y680339D01*
X655955Y677799D02*
X662305Y682879D01*
X664845Y688975D02*
X653415Y688975D01*
X664845Y688975D02*
X664845Y692150D01*
X664843Y692261D01*
X664837Y692371D01*
X664828Y692482D01*
X664814Y692592D01*
X664797Y692701D01*
X664776Y692810D01*
X664751Y692918D01*
X664722Y693025D01*
X664690Y693131D01*
X664654Y693236D01*
X664614Y693339D01*
X664571Y693441D01*
X664524Y693542D01*
X664473Y693641D01*
X664420Y693738D01*
X664363Y693832D01*
X664302Y693925D01*
X664239Y694016D01*
X664172Y694105D01*
X664102Y694191D01*
X664029Y694274D01*
X663954Y694356D01*
X663876Y694434D01*
X663794Y694509D01*
X663711Y694582D01*
X663625Y694652D01*
X663536Y694719D01*
X663445Y694782D01*
X663352Y694843D01*
X663258Y694900D01*
X663161Y694953D01*
X663062Y695004D01*
X662961Y695051D01*
X662859Y695094D01*
X662756Y695134D01*
X662651Y695170D01*
X662545Y695202D01*
X662438Y695231D01*
X662330Y695256D01*
X662221Y695277D01*
X662112Y695294D01*
X662002Y695308D01*
X661891Y695317D01*
X661781Y695323D01*
X661670Y695325D01*
X656590Y695325D01*
X656479Y695323D01*
X656369Y695317D01*
X656258Y695308D01*
X656148Y695294D01*
X656039Y695277D01*
X655930Y695256D01*
X655822Y695231D01*
X655715Y695202D01*
X655609Y695170D01*
X655504Y695134D01*
X655401Y695094D01*
X655299Y695051D01*
X655198Y695004D01*
X655099Y694953D01*
X655003Y694900D01*
X654908Y694843D01*
X654815Y694782D01*
X654724Y694719D01*
X654635Y694652D01*
X654549Y694582D01*
X654466Y694509D01*
X654384Y694434D01*
X654306Y694356D01*
X654231Y694274D01*
X654158Y694191D01*
X654088Y694105D01*
X654021Y694016D01*
X653958Y693925D01*
X653897Y693832D01*
X653840Y693738D01*
X653787Y693641D01*
X653736Y693542D01*
X653689Y693441D01*
X653646Y693339D01*
X653606Y693236D01*
X653570Y693131D01*
X653538Y693025D01*
X653509Y692918D01*
X653484Y692810D01*
X653463Y692701D01*
X653446Y692592D01*
X653432Y692482D01*
X653423Y692371D01*
X653417Y692261D01*
X653415Y692150D01*
X653415Y688975D01*
D10*
X640842Y586740D02*
X640842Y505460D01*
X676148Y501650D02*
X676270Y501652D01*
X676392Y501658D01*
X676514Y501668D01*
X676635Y501681D01*
X676756Y501699D01*
X676876Y501720D01*
X676996Y501746D01*
X677114Y501775D01*
X677232Y501807D01*
X677349Y501844D01*
X677464Y501884D01*
X677578Y501928D01*
X677690Y501976D01*
X677801Y502027D01*
X677910Y502082D01*
X678018Y502140D01*
X678123Y502202D01*
X678226Y502267D01*
X678328Y502335D01*
X678427Y502407D01*
X678523Y502481D01*
X678618Y502559D01*
X678709Y502640D01*
X678799Y502723D01*
X678885Y502809D01*
X678968Y502899D01*
X679049Y502990D01*
X679127Y503085D01*
X679201Y503181D01*
X679273Y503280D01*
X679341Y503382D01*
X679406Y503485D01*
X679468Y503590D01*
X679526Y503698D01*
X679581Y503807D01*
X679632Y503918D01*
X679680Y504030D01*
X679724Y504144D01*
X679764Y504259D01*
X679801Y504376D01*
X679833Y504494D01*
X679862Y504612D01*
X679888Y504732D01*
X679909Y504852D01*
X679927Y504973D01*
X679940Y505094D01*
X679950Y505216D01*
X679956Y505338D01*
X679958Y505460D01*
X640842Y586740D02*
X640844Y586862D01*
X640850Y586984D01*
X640860Y587106D01*
X640873Y587227D01*
X640891Y587348D01*
X640912Y587468D01*
X640938Y587588D01*
X640967Y587706D01*
X640999Y587824D01*
X641036Y587941D01*
X641076Y588056D01*
X641120Y588170D01*
X641168Y588282D01*
X641219Y588393D01*
X641274Y588502D01*
X641332Y588610D01*
X641394Y588715D01*
X641459Y588818D01*
X641527Y588920D01*
X641599Y589019D01*
X641673Y589115D01*
X641751Y589210D01*
X641832Y589301D01*
X641915Y589391D01*
X642001Y589477D01*
X642091Y589560D01*
X642182Y589641D01*
X642277Y589719D01*
X642373Y589793D01*
X642472Y589865D01*
X642574Y589933D01*
X642677Y589998D01*
X642782Y590060D01*
X642890Y590118D01*
X642999Y590173D01*
X643110Y590224D01*
X643222Y590272D01*
X643336Y590316D01*
X643451Y590356D01*
X643568Y590393D01*
X643686Y590425D01*
X643804Y590454D01*
X643924Y590480D01*
X644044Y590501D01*
X644165Y590519D01*
X644286Y590532D01*
X644408Y590542D01*
X644530Y590548D01*
X644652Y590550D01*
X640842Y505460D02*
X640844Y505338D01*
X640850Y505216D01*
X640860Y505094D01*
X640873Y504973D01*
X640891Y504852D01*
X640912Y504732D01*
X640938Y504612D01*
X640967Y504494D01*
X640999Y504376D01*
X641036Y504259D01*
X641076Y504144D01*
X641120Y504030D01*
X641168Y503918D01*
X641219Y503807D01*
X641274Y503698D01*
X641332Y503590D01*
X641394Y503485D01*
X641459Y503382D01*
X641527Y503280D01*
X641599Y503181D01*
X641673Y503085D01*
X641751Y502990D01*
X641832Y502899D01*
X641915Y502809D01*
X642001Y502723D01*
X642091Y502640D01*
X642182Y502559D01*
X642277Y502481D01*
X642373Y502407D01*
X642472Y502335D01*
X642574Y502267D01*
X642677Y502202D01*
X642782Y502140D01*
X642890Y502082D01*
X642999Y502027D01*
X643110Y501976D01*
X643222Y501928D01*
X643336Y501884D01*
X643451Y501844D01*
X643568Y501807D01*
X643686Y501775D01*
X643804Y501746D01*
X643924Y501720D01*
X644044Y501699D01*
X644165Y501681D01*
X644286Y501668D01*
X644408Y501658D01*
X644530Y501652D01*
X644652Y501650D01*
X679958Y586740D02*
X679956Y586862D01*
X679950Y586984D01*
X679940Y587106D01*
X679927Y587227D01*
X679909Y587348D01*
X679888Y587468D01*
X679862Y587588D01*
X679833Y587706D01*
X679801Y587824D01*
X679764Y587941D01*
X679724Y588056D01*
X679680Y588170D01*
X679632Y588282D01*
X679581Y588393D01*
X679526Y588502D01*
X679468Y588610D01*
X679406Y588715D01*
X679341Y588818D01*
X679273Y588920D01*
X679201Y589019D01*
X679127Y589115D01*
X679049Y589210D01*
X678968Y589301D01*
X678885Y589391D01*
X678799Y589477D01*
X678709Y589560D01*
X678618Y589641D01*
X678523Y589719D01*
X678427Y589793D01*
X678328Y589865D01*
X678226Y589933D01*
X678123Y589998D01*
X678018Y590060D01*
X677910Y590118D01*
X677801Y590173D01*
X677690Y590224D01*
X677578Y590272D01*
X677464Y590316D01*
X677349Y590356D01*
X677232Y590393D01*
X677114Y590425D01*
X676996Y590454D01*
X676876Y590480D01*
X676756Y590501D01*
X676635Y590519D01*
X676514Y590532D01*
X676392Y590542D01*
X676270Y590548D01*
X676148Y590550D01*
X679958Y586740D02*
X679958Y505460D01*
X676148Y501650D02*
X644652Y501650D01*
X644652Y590550D02*
X655320Y590550D01*
X665480Y590550D01*
X676148Y590550D01*
X665480Y590550D02*
X665478Y590409D01*
X665472Y590268D01*
X665462Y590127D01*
X665449Y589986D01*
X665431Y589846D01*
X665409Y589707D01*
X665384Y589568D01*
X665355Y589429D01*
X665322Y589292D01*
X665285Y589156D01*
X665244Y589021D01*
X665200Y588886D01*
X665152Y588754D01*
X665100Y588622D01*
X665045Y588492D01*
X664986Y588364D01*
X664923Y588237D01*
X664857Y588113D01*
X664788Y587990D01*
X664715Y587869D01*
X664639Y587750D01*
X664559Y587633D01*
X664476Y587519D01*
X664391Y587406D01*
X664302Y587297D01*
X664210Y587189D01*
X664115Y587085D01*
X664017Y586983D01*
X663916Y586884D01*
X663813Y586787D01*
X663707Y586694D01*
X663599Y586604D01*
X663488Y586516D01*
X663375Y586432D01*
X663259Y586351D01*
X663141Y586273D01*
X663021Y586198D01*
X662899Y586127D01*
X662775Y586059D01*
X662649Y585995D01*
X662522Y585934D01*
X662393Y585877D01*
X662262Y585824D01*
X662130Y585774D01*
X661997Y585727D01*
X661862Y585685D01*
X661726Y585646D01*
X661589Y585611D01*
X661452Y585580D01*
X661313Y585553D01*
X661174Y585529D01*
X661034Y585510D01*
X660894Y585494D01*
X660753Y585482D01*
X660612Y585474D01*
X660471Y585470D01*
X660329Y585470D01*
X660188Y585474D01*
X660047Y585482D01*
X659906Y585494D01*
X659766Y585510D01*
X659626Y585529D01*
X659487Y585553D01*
X659348Y585580D01*
X659211Y585611D01*
X659074Y585646D01*
X658938Y585685D01*
X658803Y585727D01*
X658670Y585774D01*
X658538Y585824D01*
X658407Y585877D01*
X658278Y585934D01*
X658151Y585995D01*
X658025Y586059D01*
X657901Y586127D01*
X657779Y586198D01*
X657659Y586273D01*
X657541Y586351D01*
X657425Y586432D01*
X657312Y586516D01*
X657201Y586604D01*
X657093Y586694D01*
X656987Y586787D01*
X656884Y586884D01*
X656783Y586983D01*
X656685Y587085D01*
X656590Y587189D01*
X656498Y587297D01*
X656409Y587406D01*
X656324Y587519D01*
X656241Y587633D01*
X656161Y587750D01*
X656085Y587869D01*
X656012Y587990D01*
X655943Y588113D01*
X655877Y588237D01*
X655814Y588364D01*
X655755Y588492D01*
X655700Y588622D01*
X655648Y588754D01*
X655600Y588886D01*
X655556Y589021D01*
X655515Y589156D01*
X655478Y589292D01*
X655445Y589429D01*
X655416Y589568D01*
X655391Y589707D01*
X655369Y589846D01*
X655351Y589986D01*
X655338Y590127D01*
X655328Y590268D01*
X655322Y590409D01*
X655320Y590550D01*
D11*
X676402Y590550D02*
X676402Y501650D01*
D12*
X676275Y593725D02*
X676275Y605155D01*
X677545Y593725D02*
X675005Y593725D01*
X675005Y605155D02*
X677545Y605155D01*
X667803Y593725D02*
X665263Y593725D01*
X667803Y593725D02*
X667903Y593727D01*
X668002Y593733D01*
X668102Y593743D01*
X668200Y593756D01*
X668299Y593774D01*
X668396Y593795D01*
X668492Y593820D01*
X668588Y593849D01*
X668682Y593882D01*
X668775Y593918D01*
X668866Y593958D01*
X668956Y594002D01*
X669044Y594049D01*
X669130Y594099D01*
X669214Y594153D01*
X669296Y594210D01*
X669375Y594270D01*
X669453Y594334D01*
X669527Y594400D01*
X669599Y594469D01*
X669668Y594541D01*
X669734Y594615D01*
X669798Y594693D01*
X669858Y594772D01*
X669915Y594854D01*
X669969Y594938D01*
X670019Y595024D01*
X670066Y595112D01*
X670110Y595202D01*
X670150Y595293D01*
X670186Y595386D01*
X670219Y595480D01*
X670248Y595576D01*
X670273Y595672D01*
X670294Y595769D01*
X670312Y595868D01*
X670325Y595966D01*
X670335Y596066D01*
X670341Y596165D01*
X670343Y596265D01*
X670343Y602615D01*
X670341Y602715D01*
X670335Y602814D01*
X670325Y602914D01*
X670312Y603012D01*
X670294Y603111D01*
X670273Y603208D01*
X670248Y603304D01*
X670219Y603400D01*
X670186Y603494D01*
X670150Y603587D01*
X670110Y603678D01*
X670066Y603768D01*
X670019Y603856D01*
X669969Y603942D01*
X669915Y604026D01*
X669858Y604108D01*
X669798Y604187D01*
X669734Y604265D01*
X669668Y604339D01*
X669599Y604411D01*
X669527Y604480D01*
X669453Y604546D01*
X669375Y604610D01*
X669296Y604670D01*
X669214Y604727D01*
X669130Y604781D01*
X669044Y604831D01*
X668956Y604878D01*
X668866Y604922D01*
X668775Y604962D01*
X668682Y604998D01*
X668588Y605031D01*
X668492Y605060D01*
X668396Y605085D01*
X668299Y605106D01*
X668200Y605124D01*
X668102Y605137D01*
X668002Y605147D01*
X667903Y605153D01*
X667803Y605155D01*
X665263Y605155D01*
X657289Y605156D02*
X657185Y605154D01*
X657080Y605148D01*
X656976Y605139D01*
X656873Y605126D01*
X656770Y605108D01*
X656668Y605088D01*
X656566Y605063D01*
X656466Y605035D01*
X656366Y605003D01*
X656268Y604967D01*
X656171Y604928D01*
X656076Y604886D01*
X655982Y604840D01*
X655890Y604790D01*
X655800Y604738D01*
X655712Y604682D01*
X655626Y604622D01*
X655542Y604560D01*
X655461Y604495D01*
X655382Y604427D01*
X655305Y604355D01*
X655232Y604282D01*
X655160Y604205D01*
X655092Y604126D01*
X655027Y604045D01*
X654965Y603961D01*
X654905Y603875D01*
X654849Y603787D01*
X654797Y603697D01*
X654747Y603605D01*
X654701Y603511D01*
X654659Y603416D01*
X654620Y603319D01*
X654584Y603221D01*
X654552Y603121D01*
X654524Y603021D01*
X654499Y602919D01*
X654479Y602817D01*
X654461Y602714D01*
X654448Y602611D01*
X654439Y602507D01*
X654433Y602402D01*
X654431Y602298D01*
X657289Y605155D02*
X657407Y605153D01*
X657526Y605147D01*
X657644Y605138D01*
X657761Y605125D01*
X657878Y605107D01*
X657995Y605087D01*
X658111Y605062D01*
X658226Y605034D01*
X658339Y605001D01*
X658452Y604966D01*
X658564Y604926D01*
X658674Y604884D01*
X658783Y604837D01*
X658891Y604787D01*
X658996Y604734D01*
X659100Y604677D01*
X659202Y604617D01*
X659302Y604554D01*
X659400Y604487D01*
X659496Y604418D01*
X659589Y604345D01*
X659680Y604269D01*
X659769Y604191D01*
X659855Y604109D01*
X659938Y604025D01*
X660019Y603939D01*
X660096Y603849D01*
X660171Y603758D01*
X660243Y603664D01*
X660312Y603567D01*
X660377Y603469D01*
X660440Y603368D01*
X660499Y603265D01*
X660555Y603161D01*
X660607Y603055D01*
X660656Y602947D01*
X660701Y602838D01*
X660743Y602727D01*
X660781Y602615D01*
X655383Y600076D02*
X655307Y600151D01*
X655232Y600230D01*
X655161Y600311D01*
X655092Y600395D01*
X655027Y600481D01*
X654965Y600569D01*
X654905Y600659D01*
X654849Y600751D01*
X654796Y600846D01*
X654747Y600942D01*
X654701Y601040D01*
X654658Y601139D01*
X654619Y601240D01*
X654584Y601342D01*
X654552Y601445D01*
X654524Y601549D01*
X654499Y601654D01*
X654478Y601761D01*
X654461Y601867D01*
X654448Y601974D01*
X654439Y602082D01*
X654433Y602190D01*
X654431Y602298D01*
X655384Y600075D02*
X660781Y593725D01*
X654431Y593725D01*
X663575Y506476D02*
X664845Y506476D01*
X664845Y512826D01*
X653415Y509651D01*
X655955Y517906D02*
X664845Y520446D01*
X655955Y517906D02*
X655955Y524256D01*
X658495Y522351D02*
X653415Y522351D01*
X653415Y528701D02*
X664845Y532511D01*
X653415Y536321D01*
X656273Y535369D02*
X656273Y529654D01*
X653415Y544195D02*
X653417Y544295D01*
X653423Y544394D01*
X653433Y544494D01*
X653446Y544592D01*
X653464Y544691D01*
X653485Y544788D01*
X653510Y544884D01*
X653539Y544980D01*
X653572Y545074D01*
X653608Y545167D01*
X653648Y545258D01*
X653692Y545348D01*
X653739Y545436D01*
X653789Y545522D01*
X653843Y545606D01*
X653900Y545688D01*
X653960Y545767D01*
X654024Y545845D01*
X654090Y545919D01*
X654159Y545991D01*
X654231Y546060D01*
X654305Y546126D01*
X654383Y546190D01*
X654462Y546250D01*
X654544Y546307D01*
X654628Y546361D01*
X654714Y546411D01*
X654802Y546458D01*
X654892Y546502D01*
X654983Y546542D01*
X655076Y546578D01*
X655170Y546611D01*
X655266Y546640D01*
X655362Y546665D01*
X655459Y546686D01*
X655558Y546704D01*
X655656Y546717D01*
X655756Y546727D01*
X655855Y546733D01*
X655955Y546735D01*
X653415Y544195D02*
X653417Y544054D01*
X653422Y543913D01*
X653432Y543772D01*
X653445Y543631D01*
X653461Y543491D01*
X653482Y543351D01*
X653506Y543212D01*
X653534Y543073D01*
X653565Y542936D01*
X653600Y542799D01*
X653638Y542663D01*
X653680Y542528D01*
X653726Y542395D01*
X653775Y542262D01*
X653828Y542131D01*
X653884Y542002D01*
X653943Y541873D01*
X654006Y541747D01*
X654072Y541622D01*
X654141Y541499D01*
X654214Y541378D01*
X654290Y541259D01*
X654369Y541141D01*
X654450Y541026D01*
X654535Y540914D01*
X654623Y540803D01*
X654714Y540695D01*
X654807Y540589D01*
X654904Y540486D01*
X655003Y540385D01*
X662305Y540703D02*
X662405Y540705D01*
X662504Y540711D01*
X662604Y540721D01*
X662702Y540734D01*
X662801Y540752D01*
X662898Y540773D01*
X662994Y540798D01*
X663090Y540827D01*
X663184Y540860D01*
X663277Y540896D01*
X663368Y540936D01*
X663458Y540980D01*
X663546Y541027D01*
X663632Y541077D01*
X663716Y541131D01*
X663798Y541188D01*
X663877Y541248D01*
X663955Y541312D01*
X664029Y541378D01*
X664101Y541447D01*
X664170Y541519D01*
X664236Y541593D01*
X664300Y541671D01*
X664360Y541750D01*
X664417Y541832D01*
X664471Y541916D01*
X664521Y542002D01*
X664568Y542090D01*
X664612Y542180D01*
X664652Y542271D01*
X664688Y542364D01*
X664721Y542458D01*
X664750Y542554D01*
X664775Y542650D01*
X664796Y542747D01*
X664814Y542846D01*
X664827Y542944D01*
X664837Y543044D01*
X664843Y543143D01*
X664845Y543243D01*
X664846Y543243D02*
X664844Y543376D01*
X664839Y543509D01*
X664829Y543642D01*
X664816Y543775D01*
X664799Y543907D01*
X664779Y544039D01*
X664755Y544170D01*
X664727Y544300D01*
X664696Y544430D01*
X664661Y544558D01*
X664622Y544686D01*
X664580Y544812D01*
X664534Y544937D01*
X664485Y545061D01*
X664433Y545184D01*
X664377Y545305D01*
X664317Y545424D01*
X664255Y545542D01*
X664189Y545657D01*
X664120Y545771D01*
X664047Y545883D01*
X663972Y545993D01*
X663893Y546101D01*
X660082Y541972D02*
X660134Y541888D01*
X660189Y541805D01*
X660248Y541725D01*
X660309Y541647D01*
X660373Y541572D01*
X660441Y541499D01*
X660511Y541428D01*
X660583Y541361D01*
X660658Y541296D01*
X660736Y541234D01*
X660816Y541175D01*
X660898Y541119D01*
X660982Y541067D01*
X661068Y541018D01*
X661156Y540972D01*
X661246Y540929D01*
X661337Y540890D01*
X661430Y540855D01*
X661524Y540823D01*
X661619Y540795D01*
X661715Y540770D01*
X661812Y540750D01*
X661910Y540732D01*
X662008Y540719D01*
X662107Y540710D01*
X662206Y540704D01*
X662305Y540702D01*
X658178Y545465D02*
X658126Y545549D01*
X658071Y545632D01*
X658012Y545712D01*
X657951Y545790D01*
X657887Y545865D01*
X657819Y545938D01*
X657749Y546009D01*
X657677Y546076D01*
X657602Y546141D01*
X657524Y546203D01*
X657444Y546262D01*
X657362Y546318D01*
X657278Y546370D01*
X657192Y546419D01*
X657104Y546465D01*
X657014Y546508D01*
X656923Y546547D01*
X656830Y546582D01*
X656736Y546614D01*
X656641Y546642D01*
X656545Y546667D01*
X656448Y546687D01*
X656350Y546705D01*
X656252Y546718D01*
X656153Y546727D01*
X656054Y546733D01*
X655955Y546735D01*
X658178Y545465D02*
X660083Y541973D01*
X659130Y551434D02*
X659355Y551437D01*
X659580Y551445D01*
X659804Y551458D01*
X660028Y551477D01*
X660252Y551501D01*
X660475Y551530D01*
X660697Y551565D01*
X660918Y551605D01*
X661138Y551651D01*
X661357Y551701D01*
X661575Y551757D01*
X661792Y551818D01*
X662007Y551884D01*
X662220Y551955D01*
X662431Y552032D01*
X662641Y552113D01*
X662849Y552199D01*
X663054Y552290D01*
X663257Y552386D01*
X663258Y552386D02*
X663346Y552418D01*
X663433Y552454D01*
X663519Y552493D01*
X663603Y552536D01*
X663685Y552582D01*
X663765Y552631D01*
X663843Y552683D01*
X663919Y552739D01*
X663993Y552797D01*
X664064Y552859D01*
X664133Y552923D01*
X664199Y552990D01*
X664262Y553059D01*
X664323Y553131D01*
X664381Y553205D01*
X664435Y553282D01*
X664487Y553360D01*
X664535Y553441D01*
X664580Y553523D01*
X664622Y553608D01*
X664660Y553694D01*
X664695Y553781D01*
X664727Y553869D01*
X664754Y553959D01*
X664779Y554050D01*
X664799Y554142D01*
X664816Y554234D01*
X664829Y554328D01*
X664838Y554421D01*
X664844Y554515D01*
X664846Y554609D01*
X664844Y554703D01*
X664838Y554797D01*
X664829Y554890D01*
X664816Y554984D01*
X664799Y555076D01*
X664779Y555168D01*
X664754Y555259D01*
X664727Y555349D01*
X664695Y555437D01*
X664660Y555524D01*
X664622Y555610D01*
X664580Y555695D01*
X664535Y555777D01*
X664487Y555858D01*
X664435Y555936D01*
X664381Y556013D01*
X664323Y556087D01*
X664262Y556159D01*
X664199Y556228D01*
X664133Y556295D01*
X664064Y556359D01*
X663993Y556421D01*
X663919Y556479D01*
X663843Y556535D01*
X663765Y556587D01*
X663685Y556636D01*
X663603Y556682D01*
X663519Y556725D01*
X663433Y556764D01*
X663346Y556800D01*
X663258Y556832D01*
X663257Y556832D02*
X663054Y556928D01*
X662849Y557019D01*
X662641Y557105D01*
X662431Y557186D01*
X662220Y557263D01*
X662007Y557334D01*
X661792Y557400D01*
X661575Y557461D01*
X661357Y557517D01*
X661138Y557567D01*
X660918Y557613D01*
X660697Y557653D01*
X660475Y557688D01*
X660252Y557717D01*
X660028Y557741D01*
X659804Y557760D01*
X659580Y557773D01*
X659355Y557781D01*
X659130Y557784D01*
X659130Y551434D02*
X658905Y551437D01*
X658680Y551445D01*
X658456Y551458D01*
X658232Y551477D01*
X658008Y551501D01*
X657785Y551530D01*
X657563Y551565D01*
X657342Y551605D01*
X657122Y551651D01*
X656903Y551701D01*
X656685Y551757D01*
X656468Y551818D01*
X656253Y551884D01*
X656040Y551955D01*
X655829Y552032D01*
X655619Y552113D01*
X655411Y552199D01*
X655206Y552290D01*
X655003Y552386D01*
X654915Y552418D01*
X654828Y552454D01*
X654742Y552493D01*
X654658Y552536D01*
X654576Y552582D01*
X654496Y552631D01*
X654418Y552683D01*
X654342Y552739D01*
X654268Y552797D01*
X654197Y552859D01*
X654128Y552923D01*
X654062Y552990D01*
X653999Y553059D01*
X653938Y553131D01*
X653880Y553205D01*
X653826Y553282D01*
X653774Y553360D01*
X653726Y553441D01*
X653681Y553523D01*
X653639Y553608D01*
X653601Y553694D01*
X653566Y553781D01*
X653534Y553869D01*
X653507Y553959D01*
X653482Y554050D01*
X653462Y554142D01*
X653445Y554234D01*
X653432Y554328D01*
X653423Y554421D01*
X653417Y554515D01*
X653415Y554609D01*
X655003Y556832D02*
X655206Y556928D01*
X655411Y557019D01*
X655619Y557105D01*
X655829Y557186D01*
X656040Y557263D01*
X656253Y557334D01*
X656468Y557400D01*
X656685Y557461D01*
X656903Y557517D01*
X657122Y557567D01*
X657342Y557613D01*
X657563Y557653D01*
X657785Y557688D01*
X658008Y557717D01*
X658232Y557741D01*
X658456Y557760D01*
X658680Y557773D01*
X658905Y557781D01*
X659130Y557784D01*
X655003Y556832D02*
X654915Y556800D01*
X654828Y556764D01*
X654742Y556725D01*
X654658Y556682D01*
X654576Y556636D01*
X654496Y556587D01*
X654418Y556535D01*
X654342Y556479D01*
X654268Y556421D01*
X654197Y556359D01*
X654128Y556295D01*
X654062Y556228D01*
X653999Y556159D01*
X653938Y556087D01*
X653880Y556013D01*
X653826Y555936D01*
X653774Y555858D01*
X653726Y555777D01*
X653681Y555695D01*
X653639Y555610D01*
X653601Y555524D01*
X653566Y555437D01*
X653534Y555349D01*
X653507Y555259D01*
X653482Y555168D01*
X653462Y555076D01*
X653445Y554984D01*
X653432Y554890D01*
X653423Y554797D01*
X653417Y554703D01*
X653415Y554609D01*
X655955Y552069D02*
X662305Y557149D01*
X659130Y562864D02*
X659355Y562867D01*
X659580Y562875D01*
X659804Y562888D01*
X660028Y562907D01*
X660252Y562931D01*
X660475Y562960D01*
X660697Y562995D01*
X660918Y563035D01*
X661138Y563081D01*
X661357Y563131D01*
X661575Y563187D01*
X661792Y563248D01*
X662007Y563314D01*
X662220Y563385D01*
X662431Y563462D01*
X662641Y563543D01*
X662849Y563629D01*
X663054Y563720D01*
X663257Y563816D01*
X663258Y563816D02*
X663346Y563848D01*
X663433Y563884D01*
X663519Y563923D01*
X663603Y563966D01*
X663685Y564012D01*
X663765Y564061D01*
X663843Y564113D01*
X663919Y564169D01*
X663993Y564227D01*
X664064Y564289D01*
X664133Y564353D01*
X664199Y564420D01*
X664262Y564489D01*
X664323Y564561D01*
X664381Y564635D01*
X664435Y564712D01*
X664487Y564790D01*
X664535Y564871D01*
X664580Y564953D01*
X664622Y565038D01*
X664660Y565124D01*
X664695Y565211D01*
X664727Y565299D01*
X664754Y565389D01*
X664779Y565480D01*
X664799Y565572D01*
X664816Y565664D01*
X664829Y565758D01*
X664838Y565851D01*
X664844Y565945D01*
X664846Y566039D01*
X664844Y566133D01*
X664838Y566227D01*
X664829Y566320D01*
X664816Y566414D01*
X664799Y566506D01*
X664779Y566598D01*
X664754Y566689D01*
X664727Y566779D01*
X664695Y566867D01*
X664660Y566954D01*
X664622Y567040D01*
X664580Y567125D01*
X664535Y567207D01*
X664487Y567288D01*
X664435Y567366D01*
X664381Y567443D01*
X664323Y567517D01*
X664262Y567589D01*
X664199Y567658D01*
X664133Y567725D01*
X664064Y567789D01*
X663993Y567851D01*
X663919Y567909D01*
X663843Y567965D01*
X663765Y568017D01*
X663685Y568066D01*
X663603Y568112D01*
X663519Y568155D01*
X663433Y568194D01*
X663346Y568230D01*
X663258Y568262D01*
X663257Y568262D02*
X663054Y568358D01*
X662849Y568449D01*
X662641Y568535D01*
X662431Y568616D01*
X662220Y568693D01*
X662007Y568764D01*
X661792Y568830D01*
X661575Y568891D01*
X661357Y568947D01*
X661138Y568997D01*
X660918Y569043D01*
X660697Y569083D01*
X660475Y569118D01*
X660252Y569147D01*
X660028Y569171D01*
X659804Y569190D01*
X659580Y569203D01*
X659355Y569211D01*
X659130Y569214D01*
X659130Y562864D02*
X658905Y562867D01*
X658680Y562875D01*
X658456Y562888D01*
X658232Y562907D01*
X658008Y562931D01*
X657785Y562960D01*
X657563Y562995D01*
X657342Y563035D01*
X657122Y563081D01*
X656903Y563131D01*
X656685Y563187D01*
X656468Y563248D01*
X656253Y563314D01*
X656040Y563385D01*
X655829Y563462D01*
X655619Y563543D01*
X655411Y563629D01*
X655206Y563720D01*
X655003Y563816D01*
X654915Y563848D01*
X654828Y563884D01*
X654742Y563923D01*
X654658Y563966D01*
X654576Y564012D01*
X654496Y564061D01*
X654418Y564113D01*
X654342Y564169D01*
X654268Y564227D01*
X654197Y564289D01*
X654128Y564353D01*
X654062Y564420D01*
X653999Y564489D01*
X653938Y564561D01*
X653880Y564635D01*
X653826Y564712D01*
X653774Y564790D01*
X653726Y564871D01*
X653681Y564953D01*
X653639Y565038D01*
X653601Y565124D01*
X653566Y565211D01*
X653534Y565299D01*
X653507Y565389D01*
X653482Y565480D01*
X653462Y565572D01*
X653445Y565664D01*
X653432Y565758D01*
X653423Y565851D01*
X653417Y565945D01*
X653415Y566039D01*
X655003Y568262D02*
X655206Y568358D01*
X655411Y568449D01*
X655619Y568535D01*
X655829Y568616D01*
X656040Y568693D01*
X656253Y568764D01*
X656468Y568830D01*
X656685Y568891D01*
X656903Y568947D01*
X657122Y568997D01*
X657342Y569043D01*
X657563Y569083D01*
X657785Y569118D01*
X658008Y569147D01*
X658232Y569171D01*
X658456Y569190D01*
X658680Y569203D01*
X658905Y569211D01*
X659130Y569214D01*
X655003Y568262D02*
X654915Y568230D01*
X654828Y568194D01*
X654742Y568155D01*
X654658Y568112D01*
X654576Y568066D01*
X654496Y568017D01*
X654418Y567965D01*
X654342Y567909D01*
X654268Y567851D01*
X654197Y567789D01*
X654128Y567725D01*
X654062Y567658D01*
X653999Y567589D01*
X653938Y567517D01*
X653880Y567443D01*
X653826Y567366D01*
X653774Y567288D01*
X653726Y567207D01*
X653681Y567125D01*
X653639Y567040D01*
X653601Y566954D01*
X653566Y566867D01*
X653534Y566779D01*
X653507Y566689D01*
X653482Y566598D01*
X653462Y566506D01*
X653445Y566414D01*
X653432Y566320D01*
X653423Y566227D01*
X653417Y566133D01*
X653415Y566039D01*
X655955Y563499D02*
X662305Y568579D01*
X664845Y574675D02*
X653415Y574675D01*
X664845Y574675D02*
X664845Y577850D01*
X664843Y577961D01*
X664837Y578071D01*
X664828Y578182D01*
X664814Y578292D01*
X664797Y578401D01*
X664776Y578510D01*
X664751Y578618D01*
X664722Y578725D01*
X664690Y578831D01*
X664654Y578936D01*
X664614Y579039D01*
X664571Y579141D01*
X664524Y579242D01*
X664473Y579341D01*
X664420Y579438D01*
X664363Y579532D01*
X664302Y579625D01*
X664239Y579716D01*
X664172Y579805D01*
X664102Y579891D01*
X664029Y579974D01*
X663954Y580056D01*
X663876Y580134D01*
X663794Y580209D01*
X663711Y580282D01*
X663625Y580352D01*
X663536Y580419D01*
X663445Y580482D01*
X663352Y580543D01*
X663258Y580600D01*
X663161Y580653D01*
X663062Y580704D01*
X662961Y580751D01*
X662859Y580794D01*
X662756Y580834D01*
X662651Y580870D01*
X662545Y580902D01*
X662438Y580931D01*
X662330Y580956D01*
X662221Y580977D01*
X662112Y580994D01*
X662002Y581008D01*
X661891Y581017D01*
X661781Y581023D01*
X661670Y581025D01*
X656590Y581025D01*
X656479Y581023D01*
X656369Y581017D01*
X656258Y581008D01*
X656148Y580994D01*
X656039Y580977D01*
X655930Y580956D01*
X655822Y580931D01*
X655715Y580902D01*
X655609Y580870D01*
X655504Y580834D01*
X655401Y580794D01*
X655299Y580751D01*
X655198Y580704D01*
X655099Y580653D01*
X655003Y580600D01*
X654908Y580543D01*
X654815Y580482D01*
X654724Y580419D01*
X654635Y580352D01*
X654549Y580282D01*
X654466Y580209D01*
X654384Y580134D01*
X654306Y580056D01*
X654231Y579974D01*
X654158Y579891D01*
X654088Y579805D01*
X654021Y579716D01*
X653958Y579625D01*
X653897Y579532D01*
X653840Y579438D01*
X653787Y579341D01*
X653736Y579242D01*
X653689Y579141D01*
X653646Y579039D01*
X653606Y578936D01*
X653570Y578831D01*
X653538Y578725D01*
X653509Y578618D01*
X653484Y578510D01*
X653463Y578401D01*
X653446Y578292D01*
X653432Y578182D01*
X653423Y578071D01*
X653417Y577961D01*
X653415Y577850D01*
X653415Y574675D01*
D10*
X399542Y645160D02*
X399542Y726440D01*
X438658Y645160D02*
X438656Y645038D01*
X438650Y644916D01*
X438640Y644794D01*
X438627Y644673D01*
X438609Y644552D01*
X438588Y644432D01*
X438562Y644312D01*
X438533Y644194D01*
X438501Y644076D01*
X438464Y643959D01*
X438424Y643844D01*
X438380Y643730D01*
X438332Y643618D01*
X438281Y643507D01*
X438226Y643398D01*
X438168Y643290D01*
X438106Y643185D01*
X438041Y643082D01*
X437973Y642980D01*
X437901Y642881D01*
X437827Y642785D01*
X437749Y642690D01*
X437668Y642599D01*
X437585Y642509D01*
X437499Y642423D01*
X437409Y642340D01*
X437318Y642259D01*
X437223Y642181D01*
X437127Y642107D01*
X437028Y642035D01*
X436926Y641967D01*
X436823Y641902D01*
X436718Y641840D01*
X436610Y641782D01*
X436501Y641727D01*
X436390Y641676D01*
X436278Y641628D01*
X436164Y641584D01*
X436049Y641544D01*
X435932Y641507D01*
X435814Y641475D01*
X435696Y641446D01*
X435576Y641420D01*
X435456Y641399D01*
X435335Y641381D01*
X435214Y641368D01*
X435092Y641358D01*
X434970Y641352D01*
X434848Y641350D01*
X399542Y726440D02*
X399544Y726562D01*
X399550Y726684D01*
X399560Y726806D01*
X399573Y726927D01*
X399591Y727048D01*
X399612Y727168D01*
X399638Y727288D01*
X399667Y727406D01*
X399699Y727524D01*
X399736Y727641D01*
X399776Y727756D01*
X399820Y727870D01*
X399868Y727982D01*
X399919Y728093D01*
X399974Y728202D01*
X400032Y728310D01*
X400094Y728415D01*
X400159Y728518D01*
X400227Y728620D01*
X400299Y728719D01*
X400373Y728815D01*
X400451Y728910D01*
X400532Y729001D01*
X400615Y729091D01*
X400701Y729177D01*
X400791Y729260D01*
X400882Y729341D01*
X400977Y729419D01*
X401073Y729493D01*
X401172Y729565D01*
X401274Y729633D01*
X401377Y729698D01*
X401482Y729760D01*
X401590Y729818D01*
X401699Y729873D01*
X401810Y729924D01*
X401922Y729972D01*
X402036Y730016D01*
X402151Y730056D01*
X402268Y730093D01*
X402386Y730125D01*
X402504Y730154D01*
X402624Y730180D01*
X402744Y730201D01*
X402865Y730219D01*
X402986Y730232D01*
X403108Y730242D01*
X403230Y730248D01*
X403352Y730250D01*
X399542Y645160D02*
X399544Y645038D01*
X399550Y644916D01*
X399560Y644794D01*
X399573Y644673D01*
X399591Y644552D01*
X399612Y644432D01*
X399638Y644312D01*
X399667Y644194D01*
X399699Y644076D01*
X399736Y643959D01*
X399776Y643844D01*
X399820Y643730D01*
X399868Y643618D01*
X399919Y643507D01*
X399974Y643398D01*
X400032Y643290D01*
X400094Y643185D01*
X400159Y643082D01*
X400227Y642980D01*
X400299Y642881D01*
X400373Y642785D01*
X400451Y642690D01*
X400532Y642599D01*
X400615Y642509D01*
X400701Y642423D01*
X400791Y642340D01*
X400882Y642259D01*
X400977Y642181D01*
X401073Y642107D01*
X401172Y642035D01*
X401274Y641967D01*
X401377Y641902D01*
X401482Y641840D01*
X401590Y641782D01*
X401699Y641727D01*
X401810Y641676D01*
X401922Y641628D01*
X402036Y641584D01*
X402151Y641544D01*
X402268Y641507D01*
X402386Y641475D01*
X402504Y641446D01*
X402624Y641420D01*
X402744Y641399D01*
X402865Y641381D01*
X402986Y641368D01*
X403108Y641358D01*
X403230Y641352D01*
X403352Y641350D01*
X438658Y726440D02*
X438656Y726562D01*
X438650Y726684D01*
X438640Y726806D01*
X438627Y726927D01*
X438609Y727048D01*
X438588Y727168D01*
X438562Y727288D01*
X438533Y727406D01*
X438501Y727524D01*
X438464Y727641D01*
X438424Y727756D01*
X438380Y727870D01*
X438332Y727982D01*
X438281Y728093D01*
X438226Y728202D01*
X438168Y728310D01*
X438106Y728415D01*
X438041Y728518D01*
X437973Y728620D01*
X437901Y728719D01*
X437827Y728815D01*
X437749Y728910D01*
X437668Y729001D01*
X437585Y729091D01*
X437499Y729177D01*
X437409Y729260D01*
X437318Y729341D01*
X437223Y729419D01*
X437127Y729493D01*
X437028Y729565D01*
X436926Y729633D01*
X436823Y729698D01*
X436718Y729760D01*
X436610Y729818D01*
X436501Y729873D01*
X436390Y729924D01*
X436278Y729972D01*
X436164Y730016D01*
X436049Y730056D01*
X435932Y730093D01*
X435814Y730125D01*
X435696Y730154D01*
X435576Y730180D01*
X435456Y730201D01*
X435335Y730219D01*
X435214Y730232D01*
X435092Y730242D01*
X434970Y730248D01*
X434848Y730250D01*
X438658Y726440D02*
X438658Y645160D01*
X434848Y641350D02*
X403352Y641350D01*
X403352Y730250D02*
X414020Y730250D01*
X424180Y730250D01*
X434848Y730250D01*
X424180Y730250D02*
X424178Y730109D01*
X424172Y729968D01*
X424162Y729827D01*
X424149Y729686D01*
X424131Y729546D01*
X424109Y729407D01*
X424084Y729268D01*
X424055Y729129D01*
X424022Y728992D01*
X423985Y728856D01*
X423944Y728721D01*
X423900Y728586D01*
X423852Y728454D01*
X423800Y728322D01*
X423745Y728192D01*
X423686Y728064D01*
X423623Y727937D01*
X423557Y727813D01*
X423488Y727690D01*
X423415Y727569D01*
X423339Y727450D01*
X423259Y727333D01*
X423176Y727219D01*
X423091Y727106D01*
X423002Y726997D01*
X422910Y726889D01*
X422815Y726785D01*
X422717Y726683D01*
X422616Y726584D01*
X422513Y726487D01*
X422407Y726394D01*
X422299Y726304D01*
X422188Y726216D01*
X422075Y726132D01*
X421959Y726051D01*
X421841Y725973D01*
X421721Y725898D01*
X421599Y725827D01*
X421475Y725759D01*
X421349Y725695D01*
X421222Y725634D01*
X421093Y725577D01*
X420962Y725524D01*
X420830Y725474D01*
X420697Y725427D01*
X420562Y725385D01*
X420426Y725346D01*
X420289Y725311D01*
X420152Y725280D01*
X420013Y725253D01*
X419874Y725229D01*
X419734Y725210D01*
X419594Y725194D01*
X419453Y725182D01*
X419312Y725174D01*
X419171Y725170D01*
X419029Y725170D01*
X418888Y725174D01*
X418747Y725182D01*
X418606Y725194D01*
X418466Y725210D01*
X418326Y725229D01*
X418187Y725253D01*
X418048Y725280D01*
X417911Y725311D01*
X417774Y725346D01*
X417638Y725385D01*
X417503Y725427D01*
X417370Y725474D01*
X417238Y725524D01*
X417107Y725577D01*
X416978Y725634D01*
X416851Y725695D01*
X416725Y725759D01*
X416601Y725827D01*
X416479Y725898D01*
X416359Y725973D01*
X416241Y726051D01*
X416125Y726132D01*
X416012Y726216D01*
X415901Y726304D01*
X415793Y726394D01*
X415687Y726487D01*
X415584Y726584D01*
X415483Y726683D01*
X415385Y726785D01*
X415290Y726889D01*
X415198Y726997D01*
X415109Y727106D01*
X415024Y727219D01*
X414941Y727333D01*
X414861Y727450D01*
X414785Y727569D01*
X414712Y727690D01*
X414643Y727813D01*
X414577Y727937D01*
X414514Y728064D01*
X414455Y728192D01*
X414400Y728322D01*
X414348Y728454D01*
X414300Y728586D01*
X414256Y728721D01*
X414215Y728856D01*
X414178Y728992D01*
X414145Y729129D01*
X414116Y729268D01*
X414091Y729407D01*
X414069Y729546D01*
X414051Y729686D01*
X414038Y729827D01*
X414028Y729968D01*
X414022Y730109D01*
X414020Y730250D01*
D11*
X435102Y730250D02*
X435102Y641350D01*
D12*
X434975Y733425D02*
X434975Y744855D01*
X436245Y733425D02*
X433705Y733425D01*
X433705Y744855D02*
X436245Y744855D01*
X426503Y733425D02*
X423963Y733425D01*
X426503Y733425D02*
X426603Y733427D01*
X426702Y733433D01*
X426802Y733443D01*
X426900Y733456D01*
X426999Y733474D01*
X427096Y733495D01*
X427192Y733520D01*
X427288Y733549D01*
X427382Y733582D01*
X427475Y733618D01*
X427566Y733658D01*
X427656Y733702D01*
X427744Y733749D01*
X427830Y733799D01*
X427914Y733853D01*
X427996Y733910D01*
X428075Y733970D01*
X428153Y734034D01*
X428227Y734100D01*
X428299Y734169D01*
X428368Y734241D01*
X428434Y734315D01*
X428498Y734393D01*
X428558Y734472D01*
X428615Y734554D01*
X428669Y734638D01*
X428719Y734724D01*
X428766Y734812D01*
X428810Y734902D01*
X428850Y734993D01*
X428886Y735086D01*
X428919Y735180D01*
X428948Y735276D01*
X428973Y735372D01*
X428994Y735469D01*
X429012Y735568D01*
X429025Y735666D01*
X429035Y735766D01*
X429041Y735865D01*
X429043Y735965D01*
X429043Y742315D01*
X429041Y742415D01*
X429035Y742514D01*
X429025Y742614D01*
X429012Y742712D01*
X428994Y742811D01*
X428973Y742908D01*
X428948Y743004D01*
X428919Y743100D01*
X428886Y743194D01*
X428850Y743287D01*
X428810Y743378D01*
X428766Y743468D01*
X428719Y743556D01*
X428669Y743642D01*
X428615Y743726D01*
X428558Y743808D01*
X428498Y743887D01*
X428434Y743965D01*
X428368Y744039D01*
X428299Y744111D01*
X428227Y744180D01*
X428153Y744246D01*
X428075Y744310D01*
X427996Y744370D01*
X427914Y744427D01*
X427830Y744481D01*
X427744Y744531D01*
X427656Y744578D01*
X427566Y744622D01*
X427475Y744662D01*
X427382Y744698D01*
X427288Y744731D01*
X427192Y744760D01*
X427096Y744785D01*
X426999Y744806D01*
X426900Y744824D01*
X426802Y744837D01*
X426702Y744847D01*
X426603Y744853D01*
X426503Y744855D01*
X423963Y744855D01*
X416941Y744855D02*
X419481Y735965D01*
X413131Y735965D01*
X415036Y738505D02*
X415036Y733425D01*
X422275Y647700D02*
X423545Y647700D01*
X423545Y654050D01*
X412115Y650875D01*
X414655Y659130D02*
X423545Y661670D01*
X414655Y659130D02*
X414655Y665480D01*
X417195Y663575D02*
X412115Y663575D01*
X412115Y670966D02*
X423545Y670966D01*
X412115Y670966D02*
X412115Y676046D01*
X412115Y683895D02*
X412117Y683995D01*
X412123Y684094D01*
X412133Y684194D01*
X412146Y684292D01*
X412164Y684391D01*
X412185Y684488D01*
X412210Y684584D01*
X412239Y684680D01*
X412272Y684774D01*
X412308Y684867D01*
X412348Y684958D01*
X412392Y685048D01*
X412439Y685136D01*
X412489Y685222D01*
X412543Y685306D01*
X412600Y685388D01*
X412660Y685467D01*
X412724Y685545D01*
X412790Y685619D01*
X412859Y685691D01*
X412931Y685760D01*
X413005Y685826D01*
X413083Y685890D01*
X413162Y685950D01*
X413244Y686007D01*
X413328Y686061D01*
X413414Y686111D01*
X413502Y686158D01*
X413592Y686202D01*
X413683Y686242D01*
X413776Y686278D01*
X413870Y686311D01*
X413966Y686340D01*
X414062Y686365D01*
X414159Y686386D01*
X414258Y686404D01*
X414356Y686417D01*
X414456Y686427D01*
X414555Y686433D01*
X414655Y686435D01*
X412115Y683895D02*
X412117Y683754D01*
X412122Y683613D01*
X412132Y683472D01*
X412145Y683331D01*
X412161Y683191D01*
X412182Y683051D01*
X412206Y682912D01*
X412234Y682773D01*
X412265Y682636D01*
X412300Y682499D01*
X412338Y682363D01*
X412380Y682228D01*
X412426Y682095D01*
X412475Y681962D01*
X412528Y681831D01*
X412584Y681702D01*
X412643Y681573D01*
X412706Y681447D01*
X412772Y681322D01*
X412841Y681199D01*
X412914Y681078D01*
X412990Y680959D01*
X413069Y680841D01*
X413150Y680726D01*
X413235Y680614D01*
X413323Y680503D01*
X413414Y680395D01*
X413507Y680289D01*
X413604Y680186D01*
X413703Y680085D01*
X421005Y680403D02*
X421105Y680405D01*
X421204Y680411D01*
X421304Y680421D01*
X421402Y680434D01*
X421501Y680452D01*
X421598Y680473D01*
X421694Y680498D01*
X421790Y680527D01*
X421884Y680560D01*
X421977Y680596D01*
X422068Y680636D01*
X422158Y680680D01*
X422246Y680727D01*
X422332Y680777D01*
X422416Y680831D01*
X422498Y680888D01*
X422577Y680948D01*
X422655Y681012D01*
X422729Y681078D01*
X422801Y681147D01*
X422870Y681219D01*
X422936Y681293D01*
X423000Y681371D01*
X423060Y681450D01*
X423117Y681532D01*
X423171Y681616D01*
X423221Y681702D01*
X423268Y681790D01*
X423312Y681880D01*
X423352Y681971D01*
X423388Y682064D01*
X423421Y682158D01*
X423450Y682254D01*
X423475Y682350D01*
X423496Y682447D01*
X423514Y682546D01*
X423527Y682644D01*
X423537Y682744D01*
X423543Y682843D01*
X423545Y682943D01*
X423546Y682943D02*
X423544Y683076D01*
X423539Y683209D01*
X423529Y683342D01*
X423516Y683475D01*
X423499Y683607D01*
X423479Y683739D01*
X423455Y683870D01*
X423427Y684000D01*
X423396Y684130D01*
X423361Y684258D01*
X423322Y684386D01*
X423280Y684512D01*
X423234Y684637D01*
X423185Y684761D01*
X423133Y684884D01*
X423077Y685005D01*
X423017Y685124D01*
X422955Y685242D01*
X422889Y685357D01*
X422820Y685471D01*
X422747Y685583D01*
X422672Y685693D01*
X422593Y685801D01*
X418782Y681672D02*
X418834Y681588D01*
X418889Y681505D01*
X418948Y681425D01*
X419009Y681347D01*
X419073Y681272D01*
X419141Y681199D01*
X419211Y681128D01*
X419283Y681061D01*
X419358Y680996D01*
X419436Y680934D01*
X419516Y680875D01*
X419598Y680819D01*
X419682Y680767D01*
X419768Y680718D01*
X419856Y680672D01*
X419946Y680629D01*
X420037Y680590D01*
X420130Y680555D01*
X420224Y680523D01*
X420319Y680495D01*
X420415Y680470D01*
X420512Y680450D01*
X420610Y680432D01*
X420708Y680419D01*
X420807Y680410D01*
X420906Y680404D01*
X421005Y680402D01*
X416878Y685165D02*
X416826Y685249D01*
X416771Y685332D01*
X416712Y685412D01*
X416651Y685490D01*
X416587Y685565D01*
X416519Y685638D01*
X416449Y685709D01*
X416377Y685776D01*
X416302Y685841D01*
X416224Y685903D01*
X416144Y685962D01*
X416062Y686018D01*
X415978Y686070D01*
X415892Y686119D01*
X415804Y686165D01*
X415714Y686208D01*
X415623Y686247D01*
X415530Y686282D01*
X415436Y686314D01*
X415341Y686342D01*
X415245Y686367D01*
X415148Y686387D01*
X415050Y686405D01*
X414952Y686418D01*
X414853Y686427D01*
X414754Y686433D01*
X414655Y686435D01*
X416878Y685165D02*
X418783Y681673D01*
X412115Y691134D02*
X412115Y694309D01*
X412117Y694420D01*
X412123Y694530D01*
X412132Y694641D01*
X412146Y694751D01*
X412163Y694860D01*
X412184Y694969D01*
X412209Y695077D01*
X412238Y695184D01*
X412270Y695290D01*
X412306Y695395D01*
X412346Y695498D01*
X412389Y695600D01*
X412436Y695701D01*
X412487Y695800D01*
X412540Y695897D01*
X412597Y695991D01*
X412658Y696084D01*
X412721Y696175D01*
X412788Y696264D01*
X412858Y696350D01*
X412931Y696433D01*
X413006Y696515D01*
X413084Y696593D01*
X413166Y696668D01*
X413249Y696741D01*
X413335Y696811D01*
X413424Y696878D01*
X413515Y696941D01*
X413608Y697002D01*
X413703Y697059D01*
X413799Y697112D01*
X413898Y697163D01*
X413999Y697210D01*
X414101Y697253D01*
X414204Y697293D01*
X414309Y697329D01*
X414415Y697361D01*
X414522Y697390D01*
X414630Y697415D01*
X414739Y697436D01*
X414848Y697453D01*
X414958Y697467D01*
X415069Y697476D01*
X415179Y697482D01*
X415290Y697484D01*
X415401Y697482D01*
X415511Y697476D01*
X415622Y697467D01*
X415732Y697453D01*
X415841Y697436D01*
X415950Y697415D01*
X416058Y697390D01*
X416165Y697361D01*
X416271Y697329D01*
X416376Y697293D01*
X416479Y697253D01*
X416581Y697210D01*
X416682Y697163D01*
X416781Y697112D01*
X416878Y697059D01*
X416972Y697002D01*
X417065Y696941D01*
X417156Y696878D01*
X417245Y696811D01*
X417331Y696741D01*
X417414Y696668D01*
X417496Y696593D01*
X417574Y696515D01*
X417649Y696433D01*
X417722Y696350D01*
X417792Y696264D01*
X417859Y696175D01*
X417922Y696084D01*
X417983Y695991D01*
X418040Y695897D01*
X418093Y695800D01*
X418144Y695701D01*
X418191Y695600D01*
X418234Y695498D01*
X418274Y695395D01*
X418310Y695290D01*
X418342Y695184D01*
X418371Y695077D01*
X418396Y694969D01*
X418417Y694860D01*
X418434Y694751D01*
X418448Y694641D01*
X418457Y694530D01*
X418463Y694420D01*
X418465Y694309D01*
X423545Y694944D02*
X423545Y691134D01*
X423545Y694944D02*
X423543Y695044D01*
X423537Y695143D01*
X423527Y695243D01*
X423514Y695341D01*
X423496Y695440D01*
X423475Y695537D01*
X423450Y695633D01*
X423421Y695729D01*
X423388Y695823D01*
X423352Y695916D01*
X423312Y696007D01*
X423268Y696097D01*
X423221Y696185D01*
X423171Y696271D01*
X423117Y696355D01*
X423060Y696437D01*
X423000Y696516D01*
X422936Y696594D01*
X422870Y696668D01*
X422801Y696740D01*
X422729Y696809D01*
X422655Y696875D01*
X422577Y696939D01*
X422498Y696999D01*
X422416Y697056D01*
X422332Y697110D01*
X422246Y697160D01*
X422158Y697207D01*
X422068Y697251D01*
X421977Y697291D01*
X421884Y697327D01*
X421790Y697360D01*
X421694Y697389D01*
X421598Y697414D01*
X421501Y697435D01*
X421402Y697453D01*
X421304Y697466D01*
X421204Y697476D01*
X421105Y697482D01*
X421005Y697484D01*
X420905Y697482D01*
X420806Y697476D01*
X420706Y697466D01*
X420608Y697453D01*
X420509Y697435D01*
X420412Y697414D01*
X420316Y697389D01*
X420220Y697360D01*
X420126Y697327D01*
X420033Y697291D01*
X419942Y697251D01*
X419852Y697207D01*
X419764Y697160D01*
X419678Y697110D01*
X419594Y697056D01*
X419512Y696999D01*
X419433Y696939D01*
X419355Y696875D01*
X419281Y696809D01*
X419209Y696740D01*
X419140Y696668D01*
X419074Y696594D01*
X419010Y696516D01*
X418950Y696437D01*
X418893Y696355D01*
X418839Y696271D01*
X418789Y696185D01*
X418742Y696097D01*
X418698Y696007D01*
X418658Y695916D01*
X418622Y695823D01*
X418589Y695729D01*
X418560Y695633D01*
X418535Y695537D01*
X418514Y695440D01*
X418496Y695341D01*
X418483Y695243D01*
X418473Y695143D01*
X418467Y695044D01*
X418465Y694944D01*
X418465Y692404D01*
X423546Y706057D02*
X423544Y706161D01*
X423538Y706266D01*
X423529Y706370D01*
X423516Y706473D01*
X423498Y706576D01*
X423478Y706678D01*
X423453Y706780D01*
X423425Y706880D01*
X423393Y706980D01*
X423357Y707078D01*
X423318Y707175D01*
X423276Y707270D01*
X423230Y707364D01*
X423180Y707456D01*
X423128Y707546D01*
X423072Y707634D01*
X423012Y707720D01*
X422950Y707804D01*
X422885Y707885D01*
X422817Y707964D01*
X422745Y708041D01*
X422672Y708114D01*
X422595Y708186D01*
X422516Y708254D01*
X422435Y708319D01*
X422351Y708381D01*
X422265Y708441D01*
X422177Y708497D01*
X422087Y708549D01*
X421995Y708599D01*
X421901Y708645D01*
X421806Y708687D01*
X421709Y708726D01*
X421611Y708762D01*
X421511Y708794D01*
X421411Y708822D01*
X421309Y708847D01*
X421207Y708867D01*
X421104Y708885D01*
X421001Y708898D01*
X420897Y708907D01*
X420792Y708913D01*
X420688Y708915D01*
X423545Y706057D02*
X423543Y705939D01*
X423537Y705820D01*
X423528Y705702D01*
X423515Y705585D01*
X423497Y705468D01*
X423477Y705351D01*
X423452Y705235D01*
X423424Y705120D01*
X423391Y705007D01*
X423356Y704894D01*
X423316Y704782D01*
X423274Y704672D01*
X423227Y704563D01*
X423177Y704455D01*
X423124Y704350D01*
X423067Y704246D01*
X423007Y704144D01*
X422944Y704044D01*
X422877Y703946D01*
X422808Y703850D01*
X422735Y703757D01*
X422659Y703666D01*
X422581Y703577D01*
X422499Y703491D01*
X422415Y703408D01*
X422329Y703327D01*
X422239Y703250D01*
X422148Y703175D01*
X422054Y703103D01*
X421957Y703034D01*
X421859Y702969D01*
X421758Y702906D01*
X421655Y702847D01*
X421551Y702791D01*
X421445Y702739D01*
X421337Y702690D01*
X421228Y702645D01*
X421117Y702603D01*
X421005Y702565D01*
X418466Y707962D02*
X418541Y708038D01*
X418620Y708113D01*
X418701Y708184D01*
X418785Y708253D01*
X418871Y708318D01*
X418959Y708380D01*
X419049Y708440D01*
X419141Y708496D01*
X419236Y708549D01*
X419332Y708598D01*
X419430Y708644D01*
X419529Y708687D01*
X419630Y708726D01*
X419732Y708761D01*
X419835Y708793D01*
X419939Y708821D01*
X420044Y708846D01*
X420151Y708867D01*
X420257Y708884D01*
X420364Y708897D01*
X420472Y708906D01*
X420580Y708912D01*
X420688Y708914D01*
X418465Y707962D02*
X412115Y702564D01*
X412115Y708914D01*
X412115Y714375D02*
X423545Y714375D01*
X423545Y717550D01*
X423543Y717661D01*
X423537Y717771D01*
X423528Y717882D01*
X423514Y717992D01*
X423497Y718101D01*
X423476Y718210D01*
X423451Y718318D01*
X423422Y718425D01*
X423390Y718531D01*
X423354Y718636D01*
X423314Y718739D01*
X423271Y718841D01*
X423224Y718942D01*
X423173Y719041D01*
X423120Y719138D01*
X423063Y719232D01*
X423002Y719325D01*
X422939Y719416D01*
X422872Y719505D01*
X422802Y719591D01*
X422729Y719674D01*
X422654Y719756D01*
X422576Y719834D01*
X422494Y719909D01*
X422411Y719982D01*
X422325Y720052D01*
X422236Y720119D01*
X422145Y720182D01*
X422052Y720243D01*
X421958Y720300D01*
X421861Y720353D01*
X421762Y720404D01*
X421661Y720451D01*
X421559Y720494D01*
X421456Y720534D01*
X421351Y720570D01*
X421245Y720602D01*
X421138Y720631D01*
X421030Y720656D01*
X420921Y720677D01*
X420812Y720694D01*
X420702Y720708D01*
X420591Y720717D01*
X420481Y720723D01*
X420370Y720725D01*
X415290Y720725D01*
X415179Y720723D01*
X415069Y720717D01*
X414958Y720708D01*
X414848Y720694D01*
X414739Y720677D01*
X414630Y720656D01*
X414522Y720631D01*
X414415Y720602D01*
X414309Y720570D01*
X414204Y720534D01*
X414101Y720494D01*
X413999Y720451D01*
X413898Y720404D01*
X413799Y720353D01*
X413703Y720300D01*
X413608Y720243D01*
X413515Y720182D01*
X413424Y720119D01*
X413335Y720052D01*
X413249Y719982D01*
X413166Y719909D01*
X413084Y719834D01*
X413006Y719756D01*
X412931Y719674D01*
X412858Y719591D01*
X412788Y719505D01*
X412721Y719416D01*
X412658Y719325D01*
X412597Y719232D01*
X412540Y719138D01*
X412487Y719041D01*
X412436Y718942D01*
X412389Y718841D01*
X412346Y718739D01*
X412306Y718636D01*
X412270Y718531D01*
X412238Y718425D01*
X412209Y718318D01*
X412184Y718210D01*
X412163Y718101D01*
X412146Y717992D01*
X412132Y717882D01*
X412123Y717771D01*
X412117Y717661D01*
X412115Y717550D01*
X412115Y714375D01*
D13*
X853300Y691400D02*
X899300Y691400D01*
X853300Y691400D02*
X853300Y629400D01*
X899300Y629400D01*
X899300Y691400D01*
X902800Y686450D02*
X920800Y686450D01*
D14*
X886608Y666242D02*
X886608Y654558D01*
X887906Y654558D02*
X885310Y654558D01*
X885310Y666242D02*
X887906Y666242D01*
X878146Y654558D02*
X875550Y654558D01*
X878146Y654558D02*
X878245Y654560D01*
X878345Y654566D01*
X878444Y654575D01*
X878542Y654588D01*
X878640Y654605D01*
X878738Y654626D01*
X878834Y654651D01*
X878929Y654679D01*
X879023Y654711D01*
X879116Y654746D01*
X879208Y654785D01*
X879298Y654828D01*
X879386Y654873D01*
X879473Y654923D01*
X879557Y654975D01*
X879640Y655031D01*
X879720Y655089D01*
X879798Y655151D01*
X879873Y655216D01*
X879946Y655284D01*
X880016Y655354D01*
X880084Y655427D01*
X880149Y655502D01*
X880211Y655580D01*
X880269Y655660D01*
X880325Y655743D01*
X880377Y655827D01*
X880427Y655914D01*
X880472Y656002D01*
X880515Y656092D01*
X880554Y656184D01*
X880589Y656277D01*
X880621Y656371D01*
X880649Y656466D01*
X880674Y656562D01*
X880695Y656660D01*
X880712Y656758D01*
X880725Y656856D01*
X880734Y656955D01*
X880740Y657055D01*
X880742Y657154D01*
X880743Y657154D02*
X880743Y663646D01*
X880742Y663646D02*
X880740Y663745D01*
X880734Y663845D01*
X880725Y663944D01*
X880712Y664042D01*
X880695Y664140D01*
X880674Y664238D01*
X880649Y664334D01*
X880621Y664429D01*
X880589Y664523D01*
X880554Y664616D01*
X880515Y664708D01*
X880472Y664798D01*
X880427Y664886D01*
X880377Y664973D01*
X880325Y665057D01*
X880269Y665140D01*
X880211Y665220D01*
X880149Y665298D01*
X880084Y665373D01*
X880016Y665446D01*
X879946Y665516D01*
X879873Y665584D01*
X879798Y665649D01*
X879720Y665711D01*
X879640Y665769D01*
X879557Y665825D01*
X879473Y665877D01*
X879386Y665927D01*
X879298Y665972D01*
X879208Y666015D01*
X879116Y666054D01*
X879023Y666089D01*
X878929Y666121D01*
X878834Y666149D01*
X878738Y666174D01*
X878640Y666195D01*
X878542Y666212D01*
X878444Y666225D01*
X878345Y666234D01*
X878245Y666240D01*
X878146Y666242D01*
X875550Y666242D01*
X871185Y654558D02*
X867290Y654558D01*
X867191Y654560D01*
X867091Y654566D01*
X866992Y654575D01*
X866894Y654588D01*
X866796Y654605D01*
X866698Y654626D01*
X866602Y654651D01*
X866507Y654679D01*
X866413Y654711D01*
X866320Y654746D01*
X866228Y654785D01*
X866138Y654828D01*
X866050Y654873D01*
X865963Y654923D01*
X865879Y654975D01*
X865796Y655031D01*
X865716Y655089D01*
X865638Y655151D01*
X865563Y655216D01*
X865490Y655284D01*
X865420Y655354D01*
X865352Y655427D01*
X865287Y655502D01*
X865225Y655580D01*
X865167Y655660D01*
X865111Y655743D01*
X865059Y655827D01*
X865009Y655914D01*
X864964Y656002D01*
X864921Y656092D01*
X864882Y656184D01*
X864847Y656277D01*
X864815Y656371D01*
X864787Y656466D01*
X864762Y656562D01*
X864741Y656660D01*
X864724Y656758D01*
X864711Y656856D01*
X864702Y656955D01*
X864696Y657055D01*
X864694Y657154D01*
X864694Y658453D01*
X864696Y658552D01*
X864702Y658652D01*
X864711Y658751D01*
X864724Y658849D01*
X864741Y658947D01*
X864762Y659045D01*
X864787Y659141D01*
X864815Y659236D01*
X864847Y659330D01*
X864882Y659423D01*
X864921Y659515D01*
X864964Y659605D01*
X865009Y659693D01*
X865059Y659780D01*
X865111Y659864D01*
X865167Y659947D01*
X865225Y660027D01*
X865287Y660105D01*
X865352Y660180D01*
X865420Y660253D01*
X865490Y660323D01*
X865563Y660391D01*
X865638Y660456D01*
X865716Y660518D01*
X865796Y660576D01*
X865879Y660632D01*
X865963Y660684D01*
X866050Y660734D01*
X866138Y660779D01*
X866228Y660822D01*
X866320Y660861D01*
X866413Y660896D01*
X866507Y660928D01*
X866602Y660956D01*
X866698Y660981D01*
X866796Y661002D01*
X866894Y661019D01*
X866992Y661032D01*
X867091Y661041D01*
X867191Y661047D01*
X867290Y661049D01*
X871185Y661049D01*
X871185Y666242D01*
X864694Y666242D01*
X919576Y666242D02*
X919576Y654558D01*
X914383Y654558D01*
X909580Y654558D02*
X909580Y666242D01*
X905685Y659751D01*
X901790Y666242D01*
X901790Y654558D01*
X896358Y654558D02*
X893112Y654558D01*
X892999Y654560D01*
X892886Y654566D01*
X892773Y654576D01*
X892660Y654590D01*
X892548Y654607D01*
X892437Y654629D01*
X892327Y654654D01*
X892217Y654684D01*
X892109Y654717D01*
X892002Y654754D01*
X891896Y654794D01*
X891792Y654839D01*
X891689Y654887D01*
X891588Y654938D01*
X891489Y654993D01*
X891392Y655051D01*
X891297Y655113D01*
X891204Y655178D01*
X891114Y655246D01*
X891026Y655317D01*
X890940Y655392D01*
X890857Y655469D01*
X890777Y655549D01*
X890700Y655632D01*
X890625Y655718D01*
X890554Y655806D01*
X890486Y655896D01*
X890421Y655989D01*
X890359Y656084D01*
X890301Y656181D01*
X890246Y656280D01*
X890195Y656381D01*
X890147Y656484D01*
X890102Y656588D01*
X890062Y656694D01*
X890025Y656801D01*
X889992Y656909D01*
X889962Y657019D01*
X889937Y657129D01*
X889915Y657240D01*
X889898Y657352D01*
X889884Y657465D01*
X889874Y657578D01*
X889868Y657691D01*
X889866Y657804D01*
X889868Y657917D01*
X889874Y658030D01*
X889884Y658143D01*
X889898Y658256D01*
X889915Y658368D01*
X889937Y658479D01*
X889962Y658589D01*
X889992Y658699D01*
X890025Y658807D01*
X890062Y658914D01*
X890102Y659020D01*
X890147Y659124D01*
X890195Y659227D01*
X890246Y659328D01*
X890301Y659427D01*
X890359Y659524D01*
X890421Y659619D01*
X890486Y659712D01*
X890554Y659802D01*
X890625Y659890D01*
X890700Y659976D01*
X890777Y660059D01*
X890857Y660139D01*
X890940Y660216D01*
X891026Y660291D01*
X891114Y660362D01*
X891204Y660430D01*
X891297Y660495D01*
X891392Y660557D01*
X891489Y660615D01*
X891588Y660670D01*
X891689Y660721D01*
X891792Y660769D01*
X891896Y660814D01*
X892002Y660854D01*
X892109Y660891D01*
X892217Y660924D01*
X892327Y660954D01*
X892437Y660979D01*
X892548Y661001D01*
X892660Y661018D01*
X892773Y661032D01*
X892886Y661042D01*
X892999Y661048D01*
X893112Y661050D01*
X892463Y666242D02*
X896358Y666242D01*
X892463Y666242D02*
X892362Y666240D01*
X892262Y666234D01*
X892162Y666224D01*
X892062Y666211D01*
X891963Y666193D01*
X891864Y666172D01*
X891767Y666147D01*
X891670Y666118D01*
X891575Y666085D01*
X891481Y666049D01*
X891389Y666009D01*
X891298Y665966D01*
X891209Y665919D01*
X891122Y665869D01*
X891036Y665815D01*
X890953Y665758D01*
X890873Y665698D01*
X890794Y665635D01*
X890718Y665568D01*
X890645Y665499D01*
X890575Y665427D01*
X890507Y665353D01*
X890442Y665276D01*
X890381Y665196D01*
X890322Y665114D01*
X890267Y665030D01*
X890215Y664944D01*
X890166Y664856D01*
X890121Y664766D01*
X890079Y664674D01*
X890041Y664581D01*
X890007Y664486D01*
X889976Y664391D01*
X889949Y664294D01*
X889926Y664196D01*
X889906Y664097D01*
X889891Y663997D01*
X889879Y663897D01*
X889871Y663797D01*
X889867Y663696D01*
X889867Y663596D01*
X889871Y663495D01*
X889879Y663395D01*
X889891Y663295D01*
X889906Y663195D01*
X889926Y663096D01*
X889949Y662998D01*
X889976Y662901D01*
X890007Y662806D01*
X890041Y662711D01*
X890079Y662618D01*
X890121Y662526D01*
X890166Y662436D01*
X890215Y662348D01*
X890267Y662262D01*
X890322Y662178D01*
X890381Y662096D01*
X890442Y662016D01*
X890507Y661939D01*
X890575Y661865D01*
X890645Y661793D01*
X890718Y661724D01*
X890794Y661657D01*
X890873Y661594D01*
X890953Y661534D01*
X891036Y661477D01*
X891122Y661423D01*
X891209Y661373D01*
X891298Y661326D01*
X891389Y661283D01*
X891481Y661243D01*
X891575Y661207D01*
X891670Y661174D01*
X891767Y661145D01*
X891864Y661120D01*
X891963Y661099D01*
X892062Y661081D01*
X892162Y661068D01*
X892262Y661058D01*
X892362Y661052D01*
X892463Y661050D01*
X892463Y661049D02*
X895059Y661049D01*
X882331Y659751D02*
X878437Y659751D01*
X882331Y659751D02*
X882430Y659753D01*
X882530Y659759D01*
X882629Y659768D01*
X882727Y659781D01*
X882825Y659798D01*
X882923Y659819D01*
X883019Y659844D01*
X883114Y659872D01*
X883208Y659904D01*
X883301Y659939D01*
X883393Y659978D01*
X883483Y660021D01*
X883571Y660066D01*
X883658Y660116D01*
X883742Y660168D01*
X883825Y660224D01*
X883905Y660282D01*
X883983Y660344D01*
X884058Y660409D01*
X884131Y660477D01*
X884201Y660547D01*
X884269Y660620D01*
X884334Y660695D01*
X884396Y660773D01*
X884454Y660853D01*
X884510Y660936D01*
X884562Y661020D01*
X884612Y661107D01*
X884657Y661195D01*
X884700Y661285D01*
X884739Y661377D01*
X884774Y661470D01*
X884806Y661564D01*
X884834Y661659D01*
X884859Y661755D01*
X884880Y661853D01*
X884897Y661951D01*
X884910Y662049D01*
X884919Y662148D01*
X884925Y662248D01*
X884927Y662347D01*
X884928Y662347D02*
X884928Y662996D01*
X884926Y663109D01*
X884920Y663222D01*
X884910Y663335D01*
X884896Y663448D01*
X884879Y663560D01*
X884857Y663671D01*
X884832Y663781D01*
X884802Y663891D01*
X884769Y663999D01*
X884732Y664106D01*
X884692Y664212D01*
X884647Y664316D01*
X884599Y664419D01*
X884548Y664520D01*
X884493Y664619D01*
X884435Y664716D01*
X884373Y664811D01*
X884308Y664904D01*
X884240Y664994D01*
X884169Y665082D01*
X884094Y665168D01*
X884017Y665251D01*
X883937Y665331D01*
X883854Y665408D01*
X883768Y665483D01*
X883680Y665554D01*
X883590Y665622D01*
X883497Y665687D01*
X883402Y665749D01*
X883305Y665807D01*
X883206Y665862D01*
X883105Y665913D01*
X883002Y665961D01*
X882898Y666006D01*
X882792Y666046D01*
X882685Y666083D01*
X882577Y666116D01*
X882467Y666146D01*
X882357Y666171D01*
X882246Y666193D01*
X882134Y666210D01*
X882021Y666224D01*
X881908Y666234D01*
X881795Y666240D01*
X881682Y666242D01*
X881569Y666240D01*
X881456Y666234D01*
X881343Y666224D01*
X881230Y666210D01*
X881118Y666193D01*
X881007Y666171D01*
X880897Y666146D01*
X880787Y666116D01*
X880679Y666083D01*
X880572Y666046D01*
X880466Y666006D01*
X880362Y665961D01*
X880259Y665913D01*
X880158Y665862D01*
X880059Y665807D01*
X879962Y665749D01*
X879867Y665687D01*
X879774Y665622D01*
X879684Y665554D01*
X879596Y665483D01*
X879510Y665408D01*
X879427Y665331D01*
X879347Y665251D01*
X879270Y665168D01*
X879195Y665082D01*
X879124Y664994D01*
X879056Y664904D01*
X878991Y664811D01*
X878929Y664716D01*
X878871Y664619D01*
X878816Y664520D01*
X878765Y664419D01*
X878717Y664316D01*
X878672Y664212D01*
X878632Y664106D01*
X878595Y663999D01*
X878562Y663891D01*
X878532Y663781D01*
X878507Y663671D01*
X878485Y663560D01*
X878468Y663448D01*
X878454Y663335D01*
X878444Y663222D01*
X878438Y663109D01*
X878436Y662996D01*
X878437Y662996D02*
X878437Y659751D01*
X878436Y659751D02*
X878438Y659608D01*
X878444Y659465D01*
X878454Y659322D01*
X878468Y659180D01*
X878485Y659038D01*
X878507Y658896D01*
X878532Y658755D01*
X878562Y658615D01*
X878595Y658476D01*
X878632Y658338D01*
X878673Y658201D01*
X878717Y658065D01*
X878766Y657930D01*
X878818Y657797D01*
X878873Y657665D01*
X878933Y657535D01*
X878996Y657406D01*
X879062Y657279D01*
X879132Y657155D01*
X879205Y657032D01*
X879282Y656911D01*
X879362Y656792D01*
X879445Y656676D01*
X879531Y656561D01*
X879620Y656450D01*
X879713Y656340D01*
X879808Y656234D01*
X879907Y656130D01*
X880008Y656029D01*
X880112Y655930D01*
X880218Y655835D01*
X880328Y655742D01*
X880439Y655653D01*
X880554Y655567D01*
X880670Y655484D01*
X880789Y655404D01*
X880910Y655327D01*
X881033Y655254D01*
X881157Y655184D01*
X881284Y655118D01*
X881413Y655055D01*
X881543Y654995D01*
X881675Y654940D01*
X881808Y654888D01*
X881943Y654839D01*
X882079Y654795D01*
X882216Y654754D01*
X882354Y654717D01*
X882493Y654684D01*
X882633Y654654D01*
X882774Y654629D01*
X882916Y654607D01*
X883058Y654590D01*
X883200Y654576D01*
X883343Y654566D01*
X883486Y654560D01*
X883629Y654558D01*
X873498Y654558D02*
X870252Y654558D01*
X870139Y654560D01*
X870026Y654566D01*
X869913Y654576D01*
X869800Y654590D01*
X869688Y654607D01*
X869577Y654629D01*
X869467Y654654D01*
X869357Y654684D01*
X869249Y654717D01*
X869142Y654754D01*
X869036Y654794D01*
X868932Y654839D01*
X868829Y654887D01*
X868728Y654938D01*
X868629Y654993D01*
X868532Y655051D01*
X868437Y655113D01*
X868344Y655178D01*
X868254Y655246D01*
X868166Y655317D01*
X868080Y655392D01*
X867997Y655469D01*
X867917Y655549D01*
X867840Y655632D01*
X867765Y655718D01*
X867694Y655806D01*
X867626Y655896D01*
X867561Y655989D01*
X867499Y656084D01*
X867441Y656181D01*
X867386Y656280D01*
X867335Y656381D01*
X867287Y656484D01*
X867242Y656588D01*
X867202Y656694D01*
X867165Y656801D01*
X867132Y656909D01*
X867102Y657019D01*
X867077Y657129D01*
X867055Y657240D01*
X867038Y657352D01*
X867024Y657465D01*
X867014Y657578D01*
X867008Y657691D01*
X867006Y657804D01*
X867008Y657917D01*
X867014Y658030D01*
X867024Y658143D01*
X867038Y658256D01*
X867055Y658368D01*
X867077Y658479D01*
X867102Y658589D01*
X867132Y658699D01*
X867165Y658807D01*
X867202Y658914D01*
X867242Y659020D01*
X867287Y659124D01*
X867335Y659227D01*
X867386Y659328D01*
X867441Y659427D01*
X867499Y659524D01*
X867561Y659619D01*
X867626Y659712D01*
X867694Y659802D01*
X867765Y659890D01*
X867840Y659976D01*
X867917Y660059D01*
X867997Y660139D01*
X868080Y660216D01*
X868166Y660291D01*
X868254Y660362D01*
X868344Y660430D01*
X868437Y660495D01*
X868532Y660557D01*
X868629Y660615D01*
X868728Y660670D01*
X868829Y660721D01*
X868932Y660769D01*
X869036Y660814D01*
X869142Y660854D01*
X869249Y660891D01*
X869357Y660924D01*
X869467Y660954D01*
X869577Y660979D01*
X869688Y661001D01*
X869800Y661018D01*
X869913Y661032D01*
X870026Y661042D01*
X870139Y661048D01*
X870252Y661050D01*
X869603Y666242D02*
X873498Y666242D01*
X869603Y666242D02*
X869502Y666240D01*
X869402Y666234D01*
X869302Y666224D01*
X869202Y666211D01*
X869103Y666193D01*
X869004Y666172D01*
X868907Y666147D01*
X868810Y666118D01*
X868715Y666085D01*
X868621Y666049D01*
X868529Y666009D01*
X868438Y665966D01*
X868349Y665919D01*
X868262Y665869D01*
X868176Y665815D01*
X868093Y665758D01*
X868013Y665698D01*
X867934Y665635D01*
X867858Y665568D01*
X867785Y665499D01*
X867715Y665427D01*
X867647Y665353D01*
X867582Y665276D01*
X867521Y665196D01*
X867462Y665114D01*
X867407Y665030D01*
X867355Y664944D01*
X867306Y664856D01*
X867261Y664766D01*
X867219Y664674D01*
X867181Y664581D01*
X867147Y664486D01*
X867116Y664391D01*
X867089Y664294D01*
X867066Y664196D01*
X867046Y664097D01*
X867031Y663997D01*
X867019Y663897D01*
X867011Y663797D01*
X867007Y663696D01*
X867007Y663596D01*
X867011Y663495D01*
X867019Y663395D01*
X867031Y663295D01*
X867046Y663195D01*
X867066Y663096D01*
X867089Y662998D01*
X867116Y662901D01*
X867147Y662806D01*
X867181Y662711D01*
X867219Y662618D01*
X867261Y662526D01*
X867306Y662436D01*
X867355Y662348D01*
X867407Y662262D01*
X867462Y662178D01*
X867521Y662096D01*
X867582Y662016D01*
X867647Y661939D01*
X867715Y661865D01*
X867785Y661793D01*
X867858Y661724D01*
X867934Y661657D01*
X868013Y661594D01*
X868093Y661534D01*
X868176Y661477D01*
X868262Y661423D01*
X868349Y661373D01*
X868438Y661326D01*
X868529Y661283D01*
X868621Y661243D01*
X868715Y661207D01*
X868810Y661174D01*
X868907Y661145D01*
X869004Y661120D01*
X869103Y661099D01*
X869202Y661081D01*
X869302Y661068D01*
X869402Y661058D01*
X869502Y661052D01*
X869603Y661050D01*
X869603Y661049D02*
X872199Y661049D01*
X861517Y666242D02*
X861517Y654558D01*
X861517Y666242D02*
X858272Y666242D01*
X858159Y666240D01*
X858046Y666234D01*
X857933Y666224D01*
X857820Y666210D01*
X857708Y666193D01*
X857597Y666171D01*
X857487Y666146D01*
X857377Y666116D01*
X857269Y666083D01*
X857162Y666046D01*
X857056Y666006D01*
X856952Y665961D01*
X856849Y665913D01*
X856748Y665862D01*
X856649Y665807D01*
X856552Y665749D01*
X856457Y665687D01*
X856364Y665622D01*
X856274Y665554D01*
X856186Y665483D01*
X856100Y665408D01*
X856017Y665331D01*
X855937Y665251D01*
X855860Y665168D01*
X855785Y665082D01*
X855714Y664994D01*
X855646Y664904D01*
X855581Y664811D01*
X855519Y664716D01*
X855461Y664619D01*
X855406Y664520D01*
X855355Y664419D01*
X855307Y664316D01*
X855262Y664212D01*
X855222Y664106D01*
X855185Y663999D01*
X855152Y663891D01*
X855122Y663781D01*
X855097Y663671D01*
X855075Y663560D01*
X855058Y663448D01*
X855044Y663335D01*
X855034Y663222D01*
X855028Y663109D01*
X855026Y662996D01*
X855028Y662883D01*
X855034Y662770D01*
X855044Y662657D01*
X855058Y662544D01*
X855075Y662432D01*
X855097Y662321D01*
X855122Y662211D01*
X855152Y662101D01*
X855185Y661993D01*
X855222Y661886D01*
X855262Y661780D01*
X855307Y661676D01*
X855355Y661573D01*
X855406Y661472D01*
X855461Y661373D01*
X855519Y661276D01*
X855581Y661181D01*
X855646Y661088D01*
X855714Y660998D01*
X855785Y660910D01*
X855860Y660824D01*
X855937Y660741D01*
X856017Y660661D01*
X856100Y660584D01*
X856186Y660509D01*
X856274Y660438D01*
X856364Y660370D01*
X856457Y660305D01*
X856552Y660243D01*
X856649Y660185D01*
X856748Y660130D01*
X856849Y660079D01*
X856952Y660031D01*
X857056Y659986D01*
X857162Y659946D01*
X857269Y659909D01*
X857377Y659876D01*
X857487Y659846D01*
X857597Y659821D01*
X857708Y659799D01*
X857820Y659782D01*
X857933Y659768D01*
X858046Y659758D01*
X858159Y659752D01*
X858272Y659750D01*
X858272Y659751D02*
X861517Y659751D01*
X847124Y654558D02*
X847025Y654560D01*
X846925Y654566D01*
X846826Y654575D01*
X846728Y654588D01*
X846630Y654605D01*
X846532Y654626D01*
X846436Y654651D01*
X846341Y654679D01*
X846247Y654711D01*
X846154Y654746D01*
X846062Y654785D01*
X845972Y654828D01*
X845884Y654873D01*
X845797Y654923D01*
X845713Y654975D01*
X845630Y655031D01*
X845550Y655089D01*
X845472Y655151D01*
X845397Y655216D01*
X845324Y655284D01*
X845254Y655354D01*
X845186Y655427D01*
X845121Y655502D01*
X845059Y655580D01*
X845001Y655660D01*
X844945Y655743D01*
X844893Y655827D01*
X844843Y655914D01*
X844798Y656002D01*
X844755Y656092D01*
X844716Y656184D01*
X844681Y656277D01*
X844649Y656371D01*
X844621Y656466D01*
X844596Y656562D01*
X844575Y656660D01*
X844558Y656758D01*
X844545Y656856D01*
X844536Y656955D01*
X844530Y657055D01*
X844528Y657154D01*
X847124Y654558D02*
X847268Y654560D01*
X847413Y654566D01*
X847557Y654575D01*
X847700Y654588D01*
X847844Y654605D01*
X847987Y654626D01*
X848129Y654651D01*
X848270Y654679D01*
X848411Y654711D01*
X848551Y654747D01*
X848690Y654786D01*
X848828Y654829D01*
X848964Y654876D01*
X849100Y654926D01*
X849234Y654980D01*
X849366Y655037D01*
X849497Y655098D01*
X849626Y655162D01*
X849754Y655230D01*
X849880Y655301D01*
X850004Y655375D01*
X850125Y655452D01*
X850245Y655533D01*
X850363Y655616D01*
X850478Y655703D01*
X850591Y655793D01*
X850702Y655886D01*
X850810Y655981D01*
X850916Y656080D01*
X851019Y656181D01*
X850694Y663646D02*
X850692Y663745D01*
X850686Y663845D01*
X850677Y663944D01*
X850664Y664042D01*
X850647Y664140D01*
X850626Y664238D01*
X850601Y664334D01*
X850573Y664429D01*
X850541Y664523D01*
X850506Y664616D01*
X850467Y664708D01*
X850424Y664798D01*
X850379Y664886D01*
X850329Y664973D01*
X850277Y665057D01*
X850221Y665140D01*
X850163Y665220D01*
X850101Y665298D01*
X850036Y665373D01*
X849968Y665446D01*
X849898Y665516D01*
X849825Y665584D01*
X849750Y665649D01*
X849672Y665711D01*
X849592Y665769D01*
X849509Y665825D01*
X849425Y665877D01*
X849338Y665927D01*
X849250Y665972D01*
X849160Y666015D01*
X849068Y666054D01*
X848975Y666089D01*
X848881Y666121D01*
X848786Y666149D01*
X848690Y666174D01*
X848592Y666195D01*
X848494Y666212D01*
X848396Y666225D01*
X848297Y666234D01*
X848197Y666240D01*
X848098Y666242D01*
X847962Y666240D01*
X847826Y666234D01*
X847690Y666225D01*
X847554Y666212D01*
X847419Y666194D01*
X847285Y666174D01*
X847151Y666149D01*
X847017Y666121D01*
X846885Y666088D01*
X846754Y666053D01*
X846623Y666013D01*
X846494Y665970D01*
X846366Y665924D01*
X846240Y665873D01*
X846114Y665820D01*
X845991Y665762D01*
X845869Y665702D01*
X845749Y665638D01*
X845630Y665570D01*
X845514Y665500D01*
X845400Y665426D01*
X845287Y665349D01*
X845177Y665268D01*
X849396Y661374D02*
X849482Y661427D01*
X849566Y661484D01*
X849648Y661543D01*
X849728Y661606D01*
X849805Y661672D01*
X849880Y661740D01*
X849952Y661812D01*
X850021Y661886D01*
X850087Y661963D01*
X850150Y662042D01*
X850210Y662124D01*
X850267Y662208D01*
X850321Y662294D01*
X850371Y662382D01*
X850418Y662472D01*
X850462Y662563D01*
X850501Y662657D01*
X850538Y662751D01*
X850570Y662847D01*
X850599Y662945D01*
X850624Y663043D01*
X850645Y663142D01*
X850663Y663242D01*
X850676Y663342D01*
X850686Y663443D01*
X850692Y663545D01*
X850694Y663646D01*
X845826Y659426D02*
X845740Y659373D01*
X845656Y659316D01*
X845574Y659257D01*
X845494Y659194D01*
X845417Y659128D01*
X845342Y659060D01*
X845270Y658988D01*
X845201Y658914D01*
X845135Y658837D01*
X845072Y658758D01*
X845012Y658676D01*
X844955Y658592D01*
X844901Y658506D01*
X844851Y658418D01*
X844804Y658328D01*
X844760Y658237D01*
X844721Y658143D01*
X844684Y658049D01*
X844652Y657953D01*
X844623Y657855D01*
X844598Y657757D01*
X844577Y657658D01*
X844559Y657558D01*
X844546Y657458D01*
X844536Y657357D01*
X844530Y657255D01*
X844528Y657154D01*
X845826Y659426D02*
X849396Y661374D01*
X839515Y666242D02*
X839515Y654558D01*
X839515Y666242D02*
X836270Y666242D01*
X836157Y666240D01*
X836044Y666234D01*
X835931Y666224D01*
X835818Y666210D01*
X835706Y666193D01*
X835595Y666171D01*
X835485Y666146D01*
X835375Y666116D01*
X835267Y666083D01*
X835160Y666046D01*
X835054Y666006D01*
X834950Y665961D01*
X834847Y665913D01*
X834746Y665862D01*
X834647Y665807D01*
X834550Y665749D01*
X834455Y665687D01*
X834362Y665622D01*
X834272Y665554D01*
X834184Y665483D01*
X834098Y665408D01*
X834015Y665331D01*
X833935Y665251D01*
X833858Y665168D01*
X833783Y665082D01*
X833712Y664994D01*
X833644Y664904D01*
X833579Y664811D01*
X833517Y664716D01*
X833459Y664619D01*
X833404Y664520D01*
X833353Y664419D01*
X833305Y664316D01*
X833260Y664212D01*
X833220Y664106D01*
X833183Y663999D01*
X833150Y663891D01*
X833120Y663781D01*
X833095Y663671D01*
X833073Y663560D01*
X833056Y663448D01*
X833042Y663335D01*
X833032Y663222D01*
X833026Y663109D01*
X833024Y662996D01*
X833026Y662883D01*
X833032Y662770D01*
X833042Y662657D01*
X833056Y662544D01*
X833073Y662432D01*
X833095Y662321D01*
X833120Y662211D01*
X833150Y662101D01*
X833183Y661993D01*
X833220Y661886D01*
X833260Y661780D01*
X833305Y661676D01*
X833353Y661573D01*
X833404Y661472D01*
X833459Y661373D01*
X833517Y661276D01*
X833579Y661181D01*
X833644Y661088D01*
X833712Y660998D01*
X833783Y660910D01*
X833858Y660824D01*
X833935Y660741D01*
X834015Y660661D01*
X834098Y660584D01*
X834184Y660509D01*
X834272Y660438D01*
X834362Y660370D01*
X834455Y660305D01*
X834550Y660243D01*
X834647Y660185D01*
X834746Y660130D01*
X834847Y660079D01*
X834950Y660031D01*
X835054Y659986D01*
X835160Y659946D01*
X835267Y659909D01*
X835375Y659876D01*
X835485Y659846D01*
X835595Y659821D01*
X835706Y659799D01*
X835818Y659782D01*
X835931Y659768D01*
X836044Y659758D01*
X836157Y659752D01*
X836270Y659750D01*
X836270Y659751D02*
X839515Y659751D01*
X835620Y659751D02*
X833024Y654558D01*
M02*
